G04 #@! TF.FileFunction,Legend,Top*
%FSLAX46Y46*%
G04 Gerber Fmt 4.6, Leading zero omitted, Abs format (unit mm)*
G04 Created by KiCad (PCBNEW 4.0.2-stable) date 5/28/2017 8:04:03 PM*
%MOMM*%
G01*
G04 APERTURE LIST*
%ADD10C,0.100000*%
%ADD11C,0.250000*%
%ADD12C,0.300000*%
%ADD13C,0.150000*%
%ADD14C,0.120000*%
%ADD15C,0.304800*%
%ADD16C,0.203200*%
G04 APERTURE END LIST*
D10*
D11*
X108263276Y-92908381D02*
X107691847Y-92908381D01*
X107977561Y-92908381D02*
X107977561Y-91908381D01*
X107882323Y-92051238D01*
X107787085Y-92146476D01*
X107691847Y-92194095D01*
X108882323Y-91908381D02*
X108977562Y-91908381D01*
X109072800Y-91956000D01*
X109120419Y-92003619D01*
X109168038Y-92098857D01*
X109215657Y-92289333D01*
X109215657Y-92527429D01*
X109168038Y-92717905D01*
X109120419Y-92813143D01*
X109072800Y-92860762D01*
X108977562Y-92908381D01*
X108882323Y-92908381D01*
X108787085Y-92860762D01*
X108739466Y-92813143D01*
X108691847Y-92717905D01*
X108644228Y-92527429D01*
X108644228Y-92289333D01*
X108691847Y-92098857D01*
X108739466Y-92003619D01*
X108787085Y-91956000D01*
X108882323Y-91908381D01*
X110072800Y-92860762D02*
X109977562Y-92908381D01*
X109787085Y-92908381D01*
X109691847Y-92860762D01*
X109644228Y-92813143D01*
X109596609Y-92717905D01*
X109596609Y-92432190D01*
X109644228Y-92336952D01*
X109691847Y-92289333D01*
X109787085Y-92241714D01*
X109977562Y-92241714D01*
X110072800Y-92289333D01*
X110644228Y-92908381D02*
X110548990Y-92860762D01*
X110501371Y-92813143D01*
X110453752Y-92717905D01*
X110453752Y-92432190D01*
X110501371Y-92336952D01*
X110548990Y-92289333D01*
X110644228Y-92241714D01*
X110787086Y-92241714D01*
X110882324Y-92289333D01*
X110929943Y-92336952D01*
X110977562Y-92432190D01*
X110977562Y-92717905D01*
X110929943Y-92813143D01*
X110882324Y-92860762D01*
X110787086Y-92908381D01*
X110644228Y-92908381D01*
X111834705Y-92241714D02*
X111834705Y-92908381D01*
X111406133Y-92241714D02*
X111406133Y-92765524D01*
X111453752Y-92860762D01*
X111548990Y-92908381D01*
X111691848Y-92908381D01*
X111787086Y-92860762D01*
X111834705Y-92813143D01*
X112310895Y-92241714D02*
X112310895Y-92908381D01*
X112310895Y-92336952D02*
X112358514Y-92289333D01*
X112453752Y-92241714D01*
X112596610Y-92241714D01*
X112691848Y-92289333D01*
X112739467Y-92384571D01*
X112739467Y-92908381D01*
X113072800Y-92241714D02*
X113453752Y-92241714D01*
X113215657Y-91908381D02*
X113215657Y-92765524D01*
X113263276Y-92860762D01*
X113358514Y-92908381D01*
X113453752Y-92908381D01*
X114501372Y-91860762D02*
X113644229Y-93146476D01*
X114834705Y-92908381D02*
X114834705Y-91908381D01*
X115406134Y-92908381D02*
X114977562Y-92336952D01*
X115406134Y-91908381D02*
X114834705Y-92479810D01*
X115739467Y-91908381D02*
X115977562Y-92908381D01*
X116168039Y-92194095D01*
X116358515Y-92908381D01*
X116596610Y-91908381D01*
X116977562Y-92908381D02*
X116977562Y-91908381D01*
X117406134Y-92908381D02*
X117406134Y-92384571D01*
X117358515Y-92289333D01*
X117263277Y-92241714D01*
X117120419Y-92241714D01*
X117025181Y-92289333D01*
X116977562Y-92336952D01*
D12*
X120718971Y-88800913D02*
X119218971Y-88800913D01*
X120718971Y-87943770D01*
X119218971Y-87943770D01*
X120718971Y-86372341D02*
X120004686Y-86872341D01*
X120718971Y-87229484D02*
X119218971Y-87229484D01*
X119218971Y-86658056D01*
X119290400Y-86515198D01*
X119361829Y-86443770D01*
X119504686Y-86372341D01*
X119718971Y-86372341D01*
X119861829Y-86443770D01*
X119933257Y-86515198D01*
X120004686Y-86658056D01*
X120004686Y-87229484D01*
X119933257Y-85229484D02*
X119933257Y-85729484D01*
X120718971Y-85729484D02*
X119218971Y-85729484D01*
X119218971Y-85015198D01*
X119361829Y-84515199D02*
X119290400Y-84443770D01*
X119218971Y-84300913D01*
X119218971Y-83943770D01*
X119290400Y-83800913D01*
X119361829Y-83729484D01*
X119504686Y-83658056D01*
X119647543Y-83658056D01*
X119861829Y-83729484D01*
X120718971Y-84586627D01*
X120718971Y-83658056D01*
X119718971Y-82372342D02*
X120718971Y-82372342D01*
X119147543Y-82729485D02*
X120218971Y-83086628D01*
X120218971Y-82158056D01*
X120718971Y-80872342D02*
X120718971Y-81586628D01*
X119218971Y-81586628D01*
X119218971Y-80086628D02*
X119218971Y-79943771D01*
X119290400Y-79800914D01*
X119361829Y-79729485D01*
X119504686Y-79658056D01*
X119790400Y-79586628D01*
X120147543Y-79586628D01*
X120433257Y-79658056D01*
X120576114Y-79729485D01*
X120647543Y-79800914D01*
X120718971Y-79943771D01*
X120718971Y-80086628D01*
X120647543Y-80229485D01*
X120576114Y-80300914D01*
X120433257Y-80372342D01*
X120147543Y-80443771D01*
X119790400Y-80443771D01*
X119504686Y-80372342D01*
X119361829Y-80300914D01*
X119290400Y-80229485D01*
X119218971Y-80086628D01*
X120718971Y-78158057D02*
X120718971Y-79015200D01*
X120718971Y-78586628D02*
X119218971Y-78586628D01*
X119433257Y-78729485D01*
X119576114Y-78872343D01*
X119647543Y-79015200D01*
X85679545Y-112837371D02*
X84965259Y-112837371D01*
X84893830Y-113551657D01*
X84965259Y-113480229D01*
X85108116Y-113408800D01*
X85465259Y-113408800D01*
X85608116Y-113480229D01*
X85679545Y-113551657D01*
X85750973Y-113694514D01*
X85750973Y-114051657D01*
X85679545Y-114194514D01*
X85608116Y-114265943D01*
X85465259Y-114337371D01*
X85108116Y-114337371D01*
X84965259Y-114265943D01*
X84893830Y-114194514D01*
X86179544Y-112837371D02*
X86679544Y-114337371D01*
X87179544Y-112837371D01*
X88679544Y-112837371D02*
X89679544Y-112837371D01*
X89036687Y-114337371D01*
X90536686Y-112837371D02*
X90679543Y-112837371D01*
X90822400Y-112908800D01*
X90893829Y-112980229D01*
X90965258Y-113123086D01*
X91036686Y-113408800D01*
X91036686Y-113765943D01*
X90965258Y-114051657D01*
X90893829Y-114194514D01*
X90822400Y-114265943D01*
X90679543Y-114337371D01*
X90536686Y-114337371D01*
X90393829Y-114265943D01*
X90322400Y-114194514D01*
X90250972Y-114051657D01*
X90179543Y-113765943D01*
X90179543Y-113408800D01*
X90250972Y-113123086D01*
X90322400Y-112980229D01*
X90393829Y-112908800D01*
X90536686Y-112837371D01*
X91965257Y-112837371D02*
X92108114Y-112837371D01*
X92250971Y-112908800D01*
X92322400Y-112980229D01*
X92393829Y-113123086D01*
X92465257Y-113408800D01*
X92465257Y-113765943D01*
X92393829Y-114051657D01*
X92322400Y-114194514D01*
X92250971Y-114265943D01*
X92108114Y-114337371D01*
X91965257Y-114337371D01*
X91822400Y-114265943D01*
X91750971Y-114194514D01*
X91679543Y-114051657D01*
X91608114Y-113765943D01*
X91608114Y-113408800D01*
X91679543Y-113123086D01*
X91750971Y-112980229D01*
X91822400Y-112908800D01*
X91965257Y-112837371D01*
X93108114Y-114337371D02*
X93108114Y-113337371D01*
X93108114Y-113480229D02*
X93179542Y-113408800D01*
X93322400Y-113337371D01*
X93536685Y-113337371D01*
X93679542Y-113408800D01*
X93750971Y-113551657D01*
X93750971Y-114337371D01*
X93750971Y-113551657D02*
X93822400Y-113408800D01*
X93965257Y-113337371D01*
X94179542Y-113337371D01*
X94322400Y-113408800D01*
X94393828Y-113551657D01*
X94393828Y-114337371D01*
X95036685Y-113908800D02*
X95750971Y-113908800D01*
X94893828Y-114337371D02*
X95393828Y-112837371D01*
X95893828Y-114337371D01*
X86786686Y-116665943D02*
X87000972Y-116737371D01*
X87358115Y-116737371D01*
X87500972Y-116665943D01*
X87572401Y-116594514D01*
X87643829Y-116451657D01*
X87643829Y-116308800D01*
X87572401Y-116165943D01*
X87500972Y-116094514D01*
X87358115Y-116023086D01*
X87072401Y-115951657D01*
X86929543Y-115880229D01*
X86858115Y-115808800D01*
X86786686Y-115665943D01*
X86786686Y-115523086D01*
X86858115Y-115380229D01*
X86929543Y-115308800D01*
X87072401Y-115237371D01*
X87429543Y-115237371D01*
X87643829Y-115308800D01*
X88286686Y-116737371D02*
X88286686Y-115237371D01*
X88786686Y-116308800D01*
X89286686Y-115237371D01*
X89286686Y-116737371D01*
X90000972Y-116737371D02*
X90000972Y-115237371D01*
X90572400Y-115237371D01*
X90715258Y-115308800D01*
X90786686Y-115380229D01*
X90858115Y-115523086D01*
X90858115Y-115737371D01*
X90786686Y-115880229D01*
X90715258Y-115951657D01*
X90572400Y-116023086D01*
X90000972Y-116023086D01*
X91429543Y-116665943D02*
X91643829Y-116737371D01*
X92000972Y-116737371D01*
X92143829Y-116665943D01*
X92215258Y-116594514D01*
X92286686Y-116451657D01*
X92286686Y-116308800D01*
X92215258Y-116165943D01*
X92143829Y-116094514D01*
X92000972Y-116023086D01*
X91715258Y-115951657D01*
X91572400Y-115880229D01*
X91500972Y-115808800D01*
X91429543Y-115665943D01*
X91429543Y-115523086D01*
X91500972Y-115380229D01*
X91572400Y-115308800D01*
X91715258Y-115237371D01*
X92072400Y-115237371D01*
X92286686Y-115308800D01*
X92929543Y-115237371D02*
X92929543Y-116451657D01*
X93000971Y-116594514D01*
X93072400Y-116665943D01*
X93215257Y-116737371D01*
X93500971Y-116737371D01*
X93643829Y-116665943D01*
X93715257Y-116594514D01*
X93786686Y-116451657D01*
X93786686Y-115237371D01*
D11*
X88183981Y-92414647D02*
X88183981Y-92986076D01*
X88183981Y-92700362D02*
X87183981Y-92700362D01*
X87326838Y-92795600D01*
X87422076Y-92890838D01*
X87469695Y-92986076D01*
X87183981Y-91557504D02*
X87183981Y-91747981D01*
X87231600Y-91843219D01*
X87279219Y-91890838D01*
X87422076Y-91986076D01*
X87612552Y-92033695D01*
X87993505Y-92033695D01*
X88088743Y-91986076D01*
X88136362Y-91938457D01*
X88183981Y-91843219D01*
X88183981Y-91652742D01*
X88136362Y-91557504D01*
X88088743Y-91509885D01*
X87993505Y-91462266D01*
X87755410Y-91462266D01*
X87660171Y-91509885D01*
X87612552Y-91557504D01*
X87564933Y-91652742D01*
X87564933Y-91843219D01*
X87612552Y-91938457D01*
X87660171Y-91986076D01*
X87755410Y-92033695D01*
X87898267Y-91081314D02*
X87898267Y-90605123D01*
X88183981Y-91176552D02*
X87183981Y-90843219D01*
X88183981Y-90509885D01*
D13*
X75000000Y-75000000D02*
X125000000Y-75000000D01*
X75000000Y-125000000D02*
X125000000Y-125000000D01*
X125000000Y-75000000D02*
X125000000Y-125000000D01*
X75000000Y-75000000D02*
X75000000Y-125000000D01*
D14*
X107196000Y-81012400D02*
X108196000Y-81012400D01*
X108196000Y-79312400D02*
X107196000Y-79312400D01*
X111463200Y-80047200D02*
X112463200Y-80047200D01*
X112463200Y-78347200D02*
X111463200Y-78347200D01*
X96782000Y-99910000D02*
X97782000Y-99910000D01*
X97782000Y-98210000D02*
X96782000Y-98210000D01*
X103974000Y-77716000D02*
X103974000Y-76716000D01*
X102274000Y-76716000D02*
X102274000Y-77716000D01*
X94400000Y-76716000D02*
X94400000Y-77716000D01*
X96100000Y-77716000D02*
X96100000Y-76716000D01*
X90694000Y-91190000D02*
X92694000Y-91190000D01*
X92694000Y-89150000D02*
X90694000Y-89150000D01*
X92694000Y-94230000D02*
X90694000Y-94230000D01*
X90694000Y-96270000D02*
X92694000Y-96270000D01*
X93984000Y-78978000D02*
X93984000Y-76978000D01*
X91944000Y-76978000D02*
X91944000Y-78978000D01*
X124548000Y-123182000D02*
X124548000Y-122182000D01*
X122848000Y-122182000D02*
X122848000Y-123182000D01*
X122516000Y-123182000D02*
X122516000Y-122182000D01*
X120816000Y-122182000D02*
X120816000Y-123182000D01*
X122644800Y-113190400D02*
X122644800Y-114190400D01*
X124344800Y-114190400D02*
X124344800Y-113190400D01*
X120866800Y-113174400D02*
X120866800Y-114174400D01*
X122566800Y-114174400D02*
X122566800Y-113174400D01*
X85830000Y-101916000D02*
X85830000Y-103316000D01*
X85830000Y-103316000D02*
X88630000Y-103316000D01*
X85830000Y-101916000D02*
X88630000Y-101916000D01*
X107188000Y-78546000D02*
X109788000Y-78546000D01*
X109788000Y-78546000D02*
X109788000Y-75886000D01*
X109788000Y-75886000D02*
X107188000Y-75886000D01*
X107188000Y-75886000D02*
X107188000Y-78546000D01*
X105918000Y-78546000D02*
X104588000Y-78546000D01*
X104588000Y-78546000D02*
X104588000Y-77216000D01*
X103378000Y-100524000D02*
X95698000Y-100524000D01*
X95698000Y-100524000D02*
X95698000Y-103184000D01*
X95698000Y-103184000D02*
X103378000Y-103184000D01*
X103378000Y-103184000D02*
X103378000Y-100524000D01*
X104648000Y-100524000D02*
X105978000Y-100524000D01*
X105978000Y-100524000D02*
X105978000Y-101854000D01*
D13*
X75910000Y-98512000D02*
X75410000Y-98512000D01*
X81910000Y-101012000D02*
G75*
G03X81910000Y-101012000I-2000000J0D01*
G01*
X81910000Y-96012000D02*
G75*
G03X81910000Y-96012000I-2000000J0D01*
G01*
X77410000Y-93512000D02*
X77410000Y-103512000D01*
X82310000Y-93512000D02*
X82310000Y-103512000D01*
X75910000Y-93512000D02*
X75910000Y-103512000D01*
X75410000Y-93512000D02*
X75410000Y-103512000D01*
X75410000Y-103512000D02*
X85210000Y-103512000D01*
X85210000Y-103512000D02*
X85210000Y-93512000D01*
X85210000Y-93512000D02*
X75410000Y-93512000D01*
X75910000Y-86574000D02*
X75410000Y-86574000D01*
X81910000Y-89074000D02*
G75*
G03X81910000Y-89074000I-2000000J0D01*
G01*
X81910000Y-84074000D02*
G75*
G03X81910000Y-84074000I-2000000J0D01*
G01*
X77410000Y-81574000D02*
X77410000Y-91574000D01*
X82310000Y-81574000D02*
X82310000Y-91574000D01*
X75910000Y-81574000D02*
X75910000Y-91574000D01*
X75410000Y-81574000D02*
X75410000Y-91574000D01*
X75410000Y-91574000D02*
X85210000Y-91574000D01*
X85210000Y-91574000D02*
X85210000Y-81574000D01*
X85210000Y-81574000D02*
X75410000Y-81574000D01*
D14*
X112268000Y-124266000D02*
X119948000Y-124266000D01*
X119948000Y-124266000D02*
X119948000Y-121606000D01*
X119948000Y-121606000D02*
X112268000Y-121606000D01*
X112268000Y-121606000D02*
X112268000Y-124266000D01*
X110998000Y-124266000D02*
X109668000Y-124266000D01*
X109668000Y-124266000D02*
X109668000Y-122936000D01*
D13*
X105459000Y-104554000D02*
X105459000Y-124554000D01*
X75389000Y-104554000D02*
X105459000Y-104554000D01*
X75389000Y-124554000D02*
X75389000Y-104554000D01*
X105459000Y-124554000D02*
X75389000Y-124554000D01*
D14*
X94083600Y-90774400D02*
X94083600Y-91704400D01*
X94083600Y-93934400D02*
X94083600Y-93004400D01*
X94083600Y-93934400D02*
X96243600Y-93934400D01*
X94083600Y-90774400D02*
X95543600Y-90774400D01*
X111414000Y-76336000D02*
X112614000Y-76336000D01*
X112614000Y-78096000D02*
X111414000Y-78096000D01*
X104994000Y-99940000D02*
X103794000Y-99940000D01*
X103794000Y-98180000D02*
X104994000Y-98180000D01*
X91094000Y-101736000D02*
X92294000Y-101736000D01*
X92294000Y-103496000D02*
X91094000Y-103496000D01*
X90694000Y-86814000D02*
X92694000Y-86814000D01*
X92694000Y-88954000D02*
X90694000Y-88954000D01*
X75638000Y-78978000D02*
X75638000Y-76978000D01*
X77778000Y-76978000D02*
X77778000Y-78978000D01*
D13*
X86630000Y-89210000D02*
X86630000Y-96210000D01*
X88630000Y-89210000D02*
X88630000Y-96210000D01*
D14*
X80572000Y-76978000D02*
X80572000Y-78978000D01*
X78432000Y-78978000D02*
X78432000Y-76978000D01*
X81226000Y-78978000D02*
X81226000Y-76978000D01*
X83366000Y-76978000D02*
X83366000Y-78978000D01*
X86160000Y-76978000D02*
X86160000Y-78978000D01*
X84020000Y-78978000D02*
X84020000Y-76978000D01*
X90694000Y-96466000D02*
X92694000Y-96466000D01*
X92694000Y-98606000D02*
X90694000Y-98606000D01*
X86814000Y-78978000D02*
X86814000Y-76978000D01*
X88954000Y-76978000D02*
X88954000Y-78978000D01*
X91748000Y-76978000D02*
X91748000Y-78978000D01*
X89608000Y-78978000D02*
X89608000Y-76978000D01*
X96028400Y-87858000D02*
X96028400Y-89058000D01*
X94268400Y-89058000D02*
X94268400Y-87858000D01*
X97698000Y-86496000D02*
X98898000Y-86496000D01*
X98898000Y-88256000D02*
X97698000Y-88256000D01*
X97698000Y-88528000D02*
X98898000Y-88528000D01*
X98898000Y-90288000D02*
X97698000Y-90288000D01*
X99222000Y-91982400D02*
X100422000Y-91982400D01*
X100422000Y-93742400D02*
X99222000Y-93742400D01*
X100949200Y-88528000D02*
X102149200Y-88528000D01*
X102149200Y-90288000D02*
X100949200Y-90288000D01*
X100898400Y-86496000D02*
X102098400Y-86496000D01*
X102098400Y-88256000D02*
X100898400Y-88256000D01*
X118034400Y-121276000D02*
X116834400Y-121276000D01*
X116834400Y-119516000D02*
X118034400Y-119516000D01*
X122590000Y-97672000D02*
X123790000Y-97672000D01*
X123790000Y-99432000D02*
X122590000Y-99432000D01*
X116779600Y-113808400D02*
X115579600Y-113808400D01*
X115579600Y-112048400D02*
X116779600Y-112048400D01*
X114884800Y-121276000D02*
X113684800Y-121276000D01*
X113684800Y-119516000D02*
X114884800Y-119516000D01*
X111714800Y-121276000D02*
X110514800Y-121276000D01*
X110514800Y-119516000D02*
X111714800Y-119516000D01*
X116494000Y-97672000D02*
X117694000Y-97672000D01*
X117694000Y-99432000D02*
X116494000Y-99432000D01*
X118804800Y-114290400D02*
X118804800Y-113090400D01*
X120564800Y-113090400D02*
X120564800Y-114290400D01*
X111515600Y-112048400D02*
X112715600Y-112048400D01*
X112715600Y-113808400D02*
X111515600Y-113808400D01*
X111410000Y-99432000D02*
X110210000Y-99432000D01*
X110210000Y-97672000D02*
X111410000Y-97672000D01*
D13*
X99598110Y-95461780D02*
X102098110Y-95461780D01*
X102098110Y-95461780D02*
X102098110Y-96561780D01*
X102098110Y-96561780D02*
X99598110Y-96561780D01*
X99598110Y-96561780D02*
X99598110Y-95461780D01*
X99348110Y-96811780D02*
X102348110Y-96811780D01*
X99348110Y-95211780D02*
X102348110Y-95211780D01*
X102348110Y-95211780D02*
X102348110Y-96811780D01*
X99348110Y-95211780D02*
X99348110Y-96811780D01*
X97848110Y-97761780D02*
X103848110Y-97761780D01*
X97848110Y-94261780D02*
X103848110Y-94261780D01*
X97848110Y-94261780D02*
X97848110Y-97761780D01*
X103848110Y-94261780D02*
X103848110Y-97761780D01*
X109870200Y-81487600D02*
X105420200Y-81487600D01*
X111395200Y-88387600D02*
X105420200Y-88387600D01*
D15*
X96520000Y-85344000D02*
X96520000Y-91059000D01*
X96520000Y-91059000D02*
X125095000Y-91059000D01*
X125095000Y-91059000D02*
X125095000Y-75184000D01*
X125095000Y-75184000D02*
X101600000Y-75184000D01*
X101600000Y-75184000D02*
X101600000Y-85344000D01*
X101600000Y-85344000D02*
X96520000Y-85344000D01*
X96520000Y-85344000D02*
X96520000Y-75184000D01*
X96520000Y-75184000D02*
X101600000Y-75184000D01*
D13*
X90381000Y-80737000D02*
X90381000Y-80787000D01*
X94531000Y-80737000D02*
X94531000Y-80882000D01*
X94531000Y-85887000D02*
X94531000Y-85742000D01*
X90381000Y-85887000D02*
X90381000Y-85742000D01*
X90381000Y-80737000D02*
X94531000Y-80737000D01*
X90381000Y-85887000D02*
X94531000Y-85887000D01*
X90381000Y-80787000D02*
X88981000Y-80787000D01*
D14*
X124580000Y-104664000D02*
X124580000Y-102369000D01*
X124580000Y-102369000D02*
X119260000Y-102369000D01*
X119260000Y-102369000D02*
X119260000Y-108959000D01*
X119260000Y-108959000D02*
X124580000Y-108959000D01*
X124580000Y-108959000D02*
X124580000Y-106664000D01*
X124580000Y-106664000D02*
G75*
G02X124580000Y-104664000I0J1000000D01*
G01*
D13*
X116222600Y-119313400D02*
X116222600Y-119263400D01*
X112072600Y-119313400D02*
X112072600Y-119168400D01*
X112072600Y-114163400D02*
X112072600Y-114308400D01*
X116222600Y-114163400D02*
X116222600Y-114308400D01*
X116222600Y-119313400D02*
X112072600Y-119313400D01*
X116222600Y-114163400D02*
X112072600Y-114163400D01*
X116222600Y-119263400D02*
X117622600Y-119263400D01*
D14*
X118992000Y-104664000D02*
X118992000Y-102369000D01*
X118992000Y-102369000D02*
X113672000Y-102369000D01*
X113672000Y-102369000D02*
X113672000Y-108959000D01*
X113672000Y-108959000D02*
X118992000Y-108959000D01*
X118992000Y-108959000D02*
X118992000Y-106664000D01*
X118992000Y-106664000D02*
G75*
G02X118992000Y-104664000I0J1000000D01*
G01*
X108084000Y-106664000D02*
X108084000Y-108959000D01*
X108084000Y-108959000D02*
X113404000Y-108959000D01*
X113404000Y-108959000D02*
X113404000Y-102369000D01*
X113404000Y-102369000D02*
X108084000Y-102369000D01*
X108084000Y-102369000D02*
X108084000Y-104664000D01*
X108084000Y-104664000D02*
G75*
G02X108084000Y-106664000I0J-1000000D01*
G01*
X123344400Y-119310000D02*
X123344400Y-120510000D01*
X123344400Y-120510000D02*
X120644400Y-120510000D01*
X119344400Y-115710000D02*
X123344400Y-115710000D01*
X123344400Y-115710000D02*
X123344400Y-116910000D01*
X116388400Y-95876000D02*
X115188400Y-95876000D01*
X115188400Y-94116000D02*
X116388400Y-94116000D01*
X117202800Y-94792338D02*
G75*
G03X122752800Y-96337630I2990000J-462D01*
G01*
X117202800Y-94793262D02*
G75*
G02X122752800Y-93247970I2990000J462D01*
G01*
X122692800Y-94792800D02*
G75*
G03X122692800Y-94792800I-2500000J0D01*
G01*
X122752800Y-96337800D02*
X122752800Y-93247800D01*
D13*
X116079543Y-79109866D02*
X116127162Y-79157485D01*
X116174781Y-79300342D01*
X116174781Y-79395580D01*
X116127162Y-79538438D01*
X116031924Y-79633676D01*
X115936686Y-79681295D01*
X115746210Y-79728914D01*
X115603352Y-79728914D01*
X115412876Y-79681295D01*
X115317638Y-79633676D01*
X115222400Y-79538438D01*
X115174781Y-79395580D01*
X115174781Y-79300342D01*
X115222400Y-79157485D01*
X115270019Y-79109866D01*
X116174781Y-78157485D02*
X116174781Y-78728914D01*
X116174781Y-78443200D02*
X115174781Y-78443200D01*
X115317638Y-78538438D01*
X115412876Y-78633676D01*
X115460495Y-78728914D01*
X117501943Y-79109866D02*
X117549562Y-79157485D01*
X117597181Y-79300342D01*
X117597181Y-79395580D01*
X117549562Y-79538438D01*
X117454324Y-79633676D01*
X117359086Y-79681295D01*
X117168610Y-79728914D01*
X117025752Y-79728914D01*
X116835276Y-79681295D01*
X116740038Y-79633676D01*
X116644800Y-79538438D01*
X116597181Y-79395580D01*
X116597181Y-79300342D01*
X116644800Y-79157485D01*
X116692419Y-79109866D01*
X116692419Y-78728914D02*
X116644800Y-78681295D01*
X116597181Y-78586057D01*
X116597181Y-78347961D01*
X116644800Y-78252723D01*
X116692419Y-78205104D01*
X116787657Y-78157485D01*
X116882895Y-78157485D01*
X117025752Y-78205104D01*
X117597181Y-78776533D01*
X117597181Y-78157485D01*
X94372134Y-99620343D02*
X94324515Y-99667962D01*
X94181658Y-99715581D01*
X94086420Y-99715581D01*
X93943562Y-99667962D01*
X93848324Y-99572724D01*
X93800705Y-99477486D01*
X93753086Y-99287010D01*
X93753086Y-99144152D01*
X93800705Y-98953676D01*
X93848324Y-98858438D01*
X93943562Y-98763200D01*
X94086420Y-98715581D01*
X94181658Y-98715581D01*
X94324515Y-98763200D01*
X94372134Y-98810819D01*
X94705467Y-98715581D02*
X95324515Y-98715581D01*
X94991181Y-99096533D01*
X95134039Y-99096533D01*
X95229277Y-99144152D01*
X95276896Y-99191771D01*
X95324515Y-99287010D01*
X95324515Y-99525105D01*
X95276896Y-99620343D01*
X95229277Y-99667962D01*
X95134039Y-99715581D01*
X94848324Y-99715581D01*
X94753086Y-99667962D01*
X94705467Y-99620343D01*
X114758743Y-77077866D02*
X114806362Y-77125485D01*
X114853981Y-77268342D01*
X114853981Y-77363580D01*
X114806362Y-77506438D01*
X114711124Y-77601676D01*
X114615886Y-77649295D01*
X114425410Y-77696914D01*
X114282552Y-77696914D01*
X114092076Y-77649295D01*
X113996838Y-77601676D01*
X113901600Y-77506438D01*
X113853981Y-77363580D01*
X113853981Y-77268342D01*
X113901600Y-77125485D01*
X113949219Y-77077866D01*
X114187314Y-76220723D02*
X114853981Y-76220723D01*
X113806362Y-76458819D02*
X114520648Y-76696914D01*
X114520648Y-76077866D01*
X95083334Y-80163943D02*
X95035715Y-80211562D01*
X94892858Y-80259181D01*
X94797620Y-80259181D01*
X94654762Y-80211562D01*
X94559524Y-80116324D01*
X94511905Y-80021086D01*
X94464286Y-79830610D01*
X94464286Y-79687752D01*
X94511905Y-79497276D01*
X94559524Y-79402038D01*
X94654762Y-79306800D01*
X94797620Y-79259181D01*
X94892858Y-79259181D01*
X95035715Y-79306800D01*
X95083334Y-79354419D01*
X95988096Y-79259181D02*
X95511905Y-79259181D01*
X95464286Y-79735371D01*
X95511905Y-79687752D01*
X95607143Y-79640133D01*
X95845239Y-79640133D01*
X95940477Y-79687752D01*
X95988096Y-79735371D01*
X96035715Y-79830610D01*
X96035715Y-80068705D01*
X95988096Y-80163943D01*
X95940477Y-80211562D01*
X95845239Y-80259181D01*
X95607143Y-80259181D01*
X95511905Y-80211562D01*
X95464286Y-80163943D01*
X90054134Y-92406743D02*
X90006515Y-92454362D01*
X89863658Y-92501981D01*
X89768420Y-92501981D01*
X89625562Y-92454362D01*
X89530324Y-92359124D01*
X89482705Y-92263886D01*
X89435086Y-92073410D01*
X89435086Y-91930552D01*
X89482705Y-91740076D01*
X89530324Y-91644838D01*
X89625562Y-91549600D01*
X89768420Y-91501981D01*
X89863658Y-91501981D01*
X90006515Y-91549600D01*
X90054134Y-91597219D01*
X90911277Y-91501981D02*
X90720800Y-91501981D01*
X90625562Y-91549600D01*
X90577943Y-91597219D01*
X90482705Y-91740076D01*
X90435086Y-91930552D01*
X90435086Y-92311505D01*
X90482705Y-92406743D01*
X90530324Y-92454362D01*
X90625562Y-92501981D01*
X90816039Y-92501981D01*
X90911277Y-92454362D01*
X90958896Y-92406743D01*
X91006515Y-92311505D01*
X91006515Y-92073410D01*
X90958896Y-91978171D01*
X90911277Y-91930552D01*
X90816039Y-91882933D01*
X90625562Y-91882933D01*
X90530324Y-91930552D01*
X90482705Y-91978171D01*
X90435086Y-92073410D01*
X90003334Y-93930743D02*
X89955715Y-93978362D01*
X89812858Y-94025981D01*
X89717620Y-94025981D01*
X89574762Y-93978362D01*
X89479524Y-93883124D01*
X89431905Y-93787886D01*
X89384286Y-93597410D01*
X89384286Y-93454552D01*
X89431905Y-93264076D01*
X89479524Y-93168838D01*
X89574762Y-93073600D01*
X89717620Y-93025981D01*
X89812858Y-93025981D01*
X89955715Y-93073600D01*
X90003334Y-93121219D01*
X90336667Y-93025981D02*
X91003334Y-93025981D01*
X90574762Y-94025981D01*
X86244134Y-85243943D02*
X86196515Y-85291562D01*
X86053658Y-85339181D01*
X85958420Y-85339181D01*
X85815562Y-85291562D01*
X85720324Y-85196324D01*
X85672705Y-85101086D01*
X85625086Y-84910610D01*
X85625086Y-84767752D01*
X85672705Y-84577276D01*
X85720324Y-84482038D01*
X85815562Y-84386800D01*
X85958420Y-84339181D01*
X86053658Y-84339181D01*
X86196515Y-84386800D01*
X86244134Y-84434419D01*
X86815562Y-84767752D02*
X86720324Y-84720133D01*
X86672705Y-84672514D01*
X86625086Y-84577276D01*
X86625086Y-84529657D01*
X86672705Y-84434419D01*
X86720324Y-84386800D01*
X86815562Y-84339181D01*
X87006039Y-84339181D01*
X87101277Y-84386800D01*
X87148896Y-84434419D01*
X87196515Y-84529657D01*
X87196515Y-84577276D01*
X87148896Y-84672514D01*
X87101277Y-84720133D01*
X87006039Y-84767752D01*
X86815562Y-84767752D01*
X86720324Y-84815371D01*
X86672705Y-84862990D01*
X86625086Y-84958229D01*
X86625086Y-85148705D01*
X86672705Y-85243943D01*
X86720324Y-85291562D01*
X86815562Y-85339181D01*
X87006039Y-85339181D01*
X87101277Y-85291562D01*
X87148896Y-85243943D01*
X87196515Y-85148705D01*
X87196515Y-84958229D01*
X87148896Y-84862990D01*
X87101277Y-84815371D01*
X87006039Y-84767752D01*
X109170743Y-123458266D02*
X109218362Y-123505885D01*
X109265981Y-123648742D01*
X109265981Y-123743980D01*
X109218362Y-123886838D01*
X109123124Y-123982076D01*
X109027886Y-124029695D01*
X108837410Y-124077314D01*
X108694552Y-124077314D01*
X108504076Y-124029695D01*
X108408838Y-123982076D01*
X108313600Y-123886838D01*
X108265981Y-123743980D01*
X108265981Y-123648742D01*
X108313600Y-123505885D01*
X108361219Y-123458266D01*
X109265981Y-122982076D02*
X109265981Y-122791600D01*
X109218362Y-122696361D01*
X109170743Y-122648742D01*
X109027886Y-122553504D01*
X108837410Y-122505885D01*
X108456457Y-122505885D01*
X108361219Y-122553504D01*
X108313600Y-122601123D01*
X108265981Y-122696361D01*
X108265981Y-122886838D01*
X108313600Y-122982076D01*
X108361219Y-123029695D01*
X108456457Y-123077314D01*
X108694552Y-123077314D01*
X108789790Y-123029695D01*
X108837410Y-122982076D01*
X108885029Y-122886838D01*
X108885029Y-122696361D01*
X108837410Y-122601123D01*
X108789790Y-122553504D01*
X108694552Y-122505885D01*
X107799143Y-123883657D02*
X107846762Y-123931276D01*
X107894381Y-124074133D01*
X107894381Y-124169371D01*
X107846762Y-124312229D01*
X107751524Y-124407467D01*
X107656286Y-124455086D01*
X107465810Y-124502705D01*
X107322952Y-124502705D01*
X107132476Y-124455086D01*
X107037238Y-124407467D01*
X106942000Y-124312229D01*
X106894381Y-124169371D01*
X106894381Y-124074133D01*
X106942000Y-123931276D01*
X106989619Y-123883657D01*
X107894381Y-122931276D02*
X107894381Y-123502705D01*
X107894381Y-123216991D02*
X106894381Y-123216991D01*
X107037238Y-123312229D01*
X107132476Y-123407467D01*
X107180095Y-123502705D01*
X106894381Y-122312229D02*
X106894381Y-122216990D01*
X106942000Y-122121752D01*
X106989619Y-122074133D01*
X107084857Y-122026514D01*
X107275333Y-121978895D01*
X107513429Y-121978895D01*
X107703905Y-122026514D01*
X107799143Y-122074133D01*
X107846762Y-122121752D01*
X107894381Y-122216990D01*
X107894381Y-122312229D01*
X107846762Y-122407467D01*
X107799143Y-122455086D01*
X107703905Y-122502705D01*
X107513429Y-122550324D01*
X107275333Y-122550324D01*
X107084857Y-122502705D01*
X106989619Y-122455086D01*
X106942000Y-122407467D01*
X106894381Y-122312229D01*
X106681543Y-113723657D02*
X106729162Y-113771276D01*
X106776781Y-113914133D01*
X106776781Y-114009371D01*
X106729162Y-114152229D01*
X106633924Y-114247467D01*
X106538686Y-114295086D01*
X106348210Y-114342705D01*
X106205352Y-114342705D01*
X106014876Y-114295086D01*
X105919638Y-114247467D01*
X105824400Y-114152229D01*
X105776781Y-114009371D01*
X105776781Y-113914133D01*
X105824400Y-113771276D01*
X105872019Y-113723657D01*
X106776781Y-112771276D02*
X106776781Y-113342705D01*
X106776781Y-113056991D02*
X105776781Y-113056991D01*
X105919638Y-113152229D01*
X106014876Y-113247467D01*
X106062495Y-113342705D01*
X106776781Y-111818895D02*
X106776781Y-112390324D01*
X106776781Y-112104610D02*
X105776781Y-112104610D01*
X105919638Y-112199848D01*
X106014876Y-112295086D01*
X106062495Y-112390324D01*
X107951543Y-113774457D02*
X107999162Y-113822076D01*
X108046781Y-113964933D01*
X108046781Y-114060171D01*
X107999162Y-114203029D01*
X107903924Y-114298267D01*
X107808686Y-114345886D01*
X107618210Y-114393505D01*
X107475352Y-114393505D01*
X107284876Y-114345886D01*
X107189638Y-114298267D01*
X107094400Y-114203029D01*
X107046781Y-114060171D01*
X107046781Y-113964933D01*
X107094400Y-113822076D01*
X107142019Y-113774457D01*
X108046781Y-112822076D02*
X108046781Y-113393505D01*
X108046781Y-113107791D02*
X107046781Y-113107791D01*
X107189638Y-113203029D01*
X107284876Y-113298267D01*
X107332495Y-113393505D01*
X107142019Y-112441124D02*
X107094400Y-112393505D01*
X107046781Y-112298267D01*
X107046781Y-112060171D01*
X107094400Y-111964933D01*
X107142019Y-111917314D01*
X107237257Y-111869695D01*
X107332495Y-111869695D01*
X107475352Y-111917314D01*
X108046781Y-112488743D01*
X108046781Y-111869695D01*
X88365105Y-101239581D02*
X88365105Y-100239581D01*
X88603200Y-100239581D01*
X88746058Y-100287200D01*
X88841296Y-100382438D01*
X88888915Y-100477676D01*
X88936534Y-100668152D01*
X88936534Y-100811010D01*
X88888915Y-101001486D01*
X88841296Y-101096724D01*
X88746058Y-101191962D01*
X88603200Y-101239581D01*
X88365105Y-101239581D01*
X89888915Y-101239581D02*
X89317486Y-101239581D01*
X89603200Y-101239581D02*
X89603200Y-100239581D01*
X89507962Y-100382438D01*
X89412724Y-100477676D01*
X89317486Y-100525295D01*
X116174781Y-77496895D02*
X115174781Y-77496895D01*
X115174781Y-77115942D01*
X115222400Y-77020704D01*
X115270019Y-76973085D01*
X115365257Y-76925466D01*
X115508114Y-76925466D01*
X115603352Y-76973085D01*
X115650971Y-77020704D01*
X115698590Y-77115942D01*
X115698590Y-77496895D01*
X116174781Y-75973085D02*
X116174781Y-76544514D01*
X116174781Y-76258800D02*
X115174781Y-76258800D01*
X115317638Y-76354038D01*
X115412876Y-76449276D01*
X115460495Y-76544514D01*
X95194381Y-102744495D02*
X94194381Y-102744495D01*
X94194381Y-102363542D01*
X94242000Y-102268304D01*
X94289619Y-102220685D01*
X94384857Y-102173066D01*
X94527714Y-102173066D01*
X94622952Y-102220685D01*
X94670571Y-102268304D01*
X94718190Y-102363542D01*
X94718190Y-102744495D01*
X94289619Y-101792114D02*
X94242000Y-101744495D01*
X94194381Y-101649257D01*
X94194381Y-101411161D01*
X94242000Y-101315923D01*
X94289619Y-101268304D01*
X94384857Y-101220685D01*
X94480095Y-101220685D01*
X94622952Y-101268304D01*
X95194381Y-101839733D01*
X95194381Y-101220685D01*
X75512705Y-93162381D02*
X75512705Y-92162381D01*
X75893658Y-92162381D01*
X75988896Y-92210000D01*
X76036515Y-92257619D01*
X76084134Y-92352857D01*
X76084134Y-92495714D01*
X76036515Y-92590952D01*
X75988896Y-92638571D01*
X75893658Y-92686190D01*
X75512705Y-92686190D01*
X76417467Y-92162381D02*
X77036515Y-92162381D01*
X76703181Y-92543333D01*
X76846039Y-92543333D01*
X76941277Y-92590952D01*
X76988896Y-92638571D01*
X77036515Y-92733810D01*
X77036515Y-92971905D01*
X76988896Y-93067143D01*
X76941277Y-93114762D01*
X76846039Y-93162381D01*
X76560324Y-93162381D01*
X76465086Y-93114762D01*
X76417467Y-93067143D01*
X83945505Y-93060781D02*
X83945505Y-92060781D01*
X84326458Y-92060781D01*
X84421696Y-92108400D01*
X84469315Y-92156019D01*
X84516934Y-92251257D01*
X84516934Y-92394114D01*
X84469315Y-92489352D01*
X84421696Y-92536971D01*
X84326458Y-92584590D01*
X83945505Y-92584590D01*
X85374077Y-92394114D02*
X85374077Y-93060781D01*
X85135981Y-92013162D02*
X84897886Y-92727448D01*
X85516934Y-92727448D01*
X106675181Y-123877295D02*
X105675181Y-123877295D01*
X105675181Y-123496342D01*
X105722800Y-123401104D01*
X105770419Y-123353485D01*
X105865657Y-123305866D01*
X106008514Y-123305866D01*
X106103752Y-123353485D01*
X106151371Y-123401104D01*
X106198990Y-123496342D01*
X106198990Y-123877295D01*
X105675181Y-122401104D02*
X105675181Y-122877295D01*
X106151371Y-122924914D01*
X106103752Y-122877295D01*
X106056133Y-122782057D01*
X106056133Y-122543961D01*
X106103752Y-122448723D01*
X106151371Y-122401104D01*
X106246610Y-122353485D01*
X106484705Y-122353485D01*
X106579943Y-122401104D01*
X106627562Y-122448723D01*
X106675181Y-122543961D01*
X106675181Y-122782057D01*
X106627562Y-122877295D01*
X106579943Y-122924914D01*
X101309714Y-106406381D02*
X101309714Y-105406381D01*
X101690667Y-105406381D01*
X101785905Y-105454000D01*
X101833524Y-105501619D01*
X101881143Y-105596857D01*
X101881143Y-105739714D01*
X101833524Y-105834952D01*
X101785905Y-105882571D01*
X101690667Y-105930190D01*
X101309714Y-105930190D01*
X102262095Y-106358762D02*
X102404952Y-106406381D01*
X102643048Y-106406381D01*
X102738286Y-106358762D01*
X102785905Y-106311143D01*
X102833524Y-106215905D01*
X102833524Y-106120667D01*
X102785905Y-106025429D01*
X102738286Y-105977810D01*
X102643048Y-105930190D01*
X102452571Y-105882571D01*
X102357333Y-105834952D01*
X102309714Y-105787333D01*
X102262095Y-105692095D01*
X102262095Y-105596857D01*
X102309714Y-105501619D01*
X102357333Y-105454000D01*
X102452571Y-105406381D01*
X102690667Y-105406381D01*
X102833524Y-105454000D01*
X103785905Y-106406381D02*
X103214476Y-106406381D01*
X103500190Y-106406381D02*
X103500190Y-105406381D01*
X103404952Y-105549238D01*
X103309714Y-105644476D01*
X103214476Y-105692095D01*
X97389962Y-93054419D02*
X97294724Y-93006800D01*
X97199486Y-92911562D01*
X97056629Y-92768705D01*
X96961390Y-92721086D01*
X96866152Y-92721086D01*
X96913771Y-92959181D02*
X96818533Y-92911562D01*
X96723295Y-92816324D01*
X96675676Y-92625848D01*
X96675676Y-92292514D01*
X96723295Y-92102038D01*
X96818533Y-92006800D01*
X96913771Y-91959181D01*
X97104248Y-91959181D01*
X97199486Y-92006800D01*
X97294724Y-92102038D01*
X97342343Y-92292514D01*
X97342343Y-92625848D01*
X97294724Y-92816324D01*
X97199486Y-92911562D01*
X97104248Y-92959181D01*
X96913771Y-92959181D01*
X98294724Y-92959181D02*
X97723295Y-92959181D01*
X98009009Y-92959181D02*
X98009009Y-91959181D01*
X97913771Y-92102038D01*
X97818533Y-92197276D01*
X97723295Y-92244895D01*
X117597181Y-76925466D02*
X117120990Y-77258800D01*
X117597181Y-77496895D02*
X116597181Y-77496895D01*
X116597181Y-77115942D01*
X116644800Y-77020704D01*
X116692419Y-76973085D01*
X116787657Y-76925466D01*
X116930514Y-76925466D01*
X117025752Y-76973085D01*
X117073371Y-77020704D01*
X117120990Y-77115942D01*
X117120990Y-77496895D01*
X117597181Y-75973085D02*
X117597181Y-76544514D01*
X117597181Y-76258800D02*
X116597181Y-76258800D01*
X116740038Y-76354038D01*
X116835276Y-76449276D01*
X116882895Y-76544514D01*
X101534934Y-99563181D02*
X101201600Y-99086990D01*
X100963505Y-99563181D02*
X100963505Y-98563181D01*
X101344458Y-98563181D01*
X101439696Y-98610800D01*
X101487315Y-98658419D01*
X101534934Y-98753657D01*
X101534934Y-98896514D01*
X101487315Y-98991752D01*
X101439696Y-99039371D01*
X101344458Y-99086990D01*
X100963505Y-99086990D01*
X101915886Y-98658419D02*
X101963505Y-98610800D01*
X102058743Y-98563181D01*
X102296839Y-98563181D01*
X102392077Y-98610800D01*
X102439696Y-98658419D01*
X102487315Y-98753657D01*
X102487315Y-98848895D01*
X102439696Y-98991752D01*
X101868267Y-99563181D01*
X102487315Y-99563181D01*
X91578134Y-101493581D02*
X91244800Y-101017390D01*
X91006705Y-101493581D02*
X91006705Y-100493581D01*
X91387658Y-100493581D01*
X91482896Y-100541200D01*
X91530515Y-100588819D01*
X91578134Y-100684057D01*
X91578134Y-100826914D01*
X91530515Y-100922152D01*
X91482896Y-100969771D01*
X91387658Y-101017390D01*
X91006705Y-101017390D01*
X91911467Y-100493581D02*
X92530515Y-100493581D01*
X92197181Y-100874533D01*
X92340039Y-100874533D01*
X92435277Y-100922152D01*
X92482896Y-100969771D01*
X92530515Y-101065010D01*
X92530515Y-101303105D01*
X92482896Y-101398343D01*
X92435277Y-101445962D01*
X92340039Y-101493581D01*
X92054324Y-101493581D01*
X91959086Y-101445962D01*
X91911467Y-101398343D01*
X92035334Y-92603581D02*
X91702000Y-92127390D01*
X91463905Y-92603581D02*
X91463905Y-91603581D01*
X91844858Y-91603581D01*
X91940096Y-91651200D01*
X91987715Y-91698819D01*
X92035334Y-91794057D01*
X92035334Y-91936914D01*
X91987715Y-92032152D01*
X91940096Y-92079771D01*
X91844858Y-92127390D01*
X91463905Y-92127390D01*
X92892477Y-91936914D02*
X92892477Y-92603581D01*
X92654381Y-91555962D02*
X92416286Y-92270248D01*
X93035334Y-92270248D01*
X76490534Y-81275181D02*
X76157200Y-80798990D01*
X75919105Y-81275181D02*
X75919105Y-80275181D01*
X76300058Y-80275181D01*
X76395296Y-80322800D01*
X76442915Y-80370419D01*
X76490534Y-80465657D01*
X76490534Y-80608514D01*
X76442915Y-80703752D01*
X76395296Y-80751371D01*
X76300058Y-80798990D01*
X75919105Y-80798990D01*
X77395296Y-80275181D02*
X76919105Y-80275181D01*
X76871486Y-80751371D01*
X76919105Y-80703752D01*
X77014343Y-80656133D01*
X77252439Y-80656133D01*
X77347677Y-80703752D01*
X77395296Y-80751371D01*
X77442915Y-80846610D01*
X77442915Y-81084705D01*
X77395296Y-81179943D01*
X77347677Y-81227562D01*
X77252439Y-81275181D01*
X77014343Y-81275181D01*
X76919105Y-81227562D01*
X76871486Y-81179943D01*
X88234781Y-94857866D02*
X87758590Y-95191200D01*
X88234781Y-95429295D02*
X87234781Y-95429295D01*
X87234781Y-95048342D01*
X87282400Y-94953104D01*
X87330019Y-94905485D01*
X87425257Y-94857866D01*
X87568114Y-94857866D01*
X87663352Y-94905485D01*
X87710971Y-94953104D01*
X87758590Y-95048342D01*
X87758590Y-95429295D01*
X87234781Y-94524533D02*
X87234781Y-93857866D01*
X88234781Y-94286438D01*
X79386134Y-81325981D02*
X79052800Y-80849790D01*
X78814705Y-81325981D02*
X78814705Y-80325981D01*
X79195658Y-80325981D01*
X79290896Y-80373600D01*
X79338515Y-80421219D01*
X79386134Y-80516457D01*
X79386134Y-80659314D01*
X79338515Y-80754552D01*
X79290896Y-80802171D01*
X79195658Y-80849790D01*
X78814705Y-80849790D01*
X79957562Y-80754552D02*
X79862324Y-80706933D01*
X79814705Y-80659314D01*
X79767086Y-80564076D01*
X79767086Y-80516457D01*
X79814705Y-80421219D01*
X79862324Y-80373600D01*
X79957562Y-80325981D01*
X80148039Y-80325981D01*
X80243277Y-80373600D01*
X80290896Y-80421219D01*
X80338515Y-80516457D01*
X80338515Y-80564076D01*
X80290896Y-80659314D01*
X80243277Y-80706933D01*
X80148039Y-80754552D01*
X79957562Y-80754552D01*
X79862324Y-80802171D01*
X79814705Y-80849790D01*
X79767086Y-80945029D01*
X79767086Y-81135505D01*
X79814705Y-81230743D01*
X79862324Y-81278362D01*
X79957562Y-81325981D01*
X80148039Y-81325981D01*
X80243277Y-81278362D01*
X80290896Y-81230743D01*
X80338515Y-81135505D01*
X80338515Y-80945029D01*
X80290896Y-80849790D01*
X80243277Y-80802171D01*
X80148039Y-80754552D01*
X82230934Y-81275181D02*
X81897600Y-80798990D01*
X81659505Y-81275181D02*
X81659505Y-80275181D01*
X82040458Y-80275181D01*
X82135696Y-80322800D01*
X82183315Y-80370419D01*
X82230934Y-80465657D01*
X82230934Y-80608514D01*
X82183315Y-80703752D01*
X82135696Y-80751371D01*
X82040458Y-80798990D01*
X81659505Y-80798990D01*
X82707124Y-81275181D02*
X82897600Y-81275181D01*
X82992839Y-81227562D01*
X83040458Y-81179943D01*
X83135696Y-81037086D01*
X83183315Y-80846610D01*
X83183315Y-80465657D01*
X83135696Y-80370419D01*
X83088077Y-80322800D01*
X82992839Y-80275181D01*
X82802362Y-80275181D01*
X82707124Y-80322800D01*
X82659505Y-80370419D01*
X82611886Y-80465657D01*
X82611886Y-80703752D01*
X82659505Y-80798990D01*
X82707124Y-80846610D01*
X82802362Y-80894229D01*
X82992839Y-80894229D01*
X83088077Y-80846610D01*
X83135696Y-80798990D01*
X83183315Y-80703752D01*
X84650343Y-81275181D02*
X84317009Y-80798990D01*
X84078914Y-81275181D02*
X84078914Y-80275181D01*
X84459867Y-80275181D01*
X84555105Y-80322800D01*
X84602724Y-80370419D01*
X84650343Y-80465657D01*
X84650343Y-80608514D01*
X84602724Y-80703752D01*
X84555105Y-80751371D01*
X84459867Y-80798990D01*
X84078914Y-80798990D01*
X85602724Y-81275181D02*
X85031295Y-81275181D01*
X85317009Y-81275181D02*
X85317009Y-80275181D01*
X85221771Y-80418038D01*
X85126533Y-80513276D01*
X85031295Y-80560895D01*
X86221771Y-80275181D02*
X86317010Y-80275181D01*
X86412248Y-80322800D01*
X86459867Y-80370419D01*
X86507486Y-80465657D01*
X86555105Y-80656133D01*
X86555105Y-80894229D01*
X86507486Y-81084705D01*
X86459867Y-81179943D01*
X86412248Y-81227562D01*
X86317010Y-81275181D01*
X86221771Y-81275181D01*
X86126533Y-81227562D01*
X86078914Y-81179943D01*
X86031295Y-81084705D01*
X85983676Y-80894229D01*
X85983676Y-80656133D01*
X86031295Y-80465657D01*
X86078914Y-80370419D01*
X86126533Y-80322800D01*
X86221771Y-80275181D01*
X91051143Y-99838381D02*
X90717809Y-99362190D01*
X90479714Y-99838381D02*
X90479714Y-98838381D01*
X90860667Y-98838381D01*
X90955905Y-98886000D01*
X91003524Y-98933619D01*
X91051143Y-99028857D01*
X91051143Y-99171714D01*
X91003524Y-99266952D01*
X90955905Y-99314571D01*
X90860667Y-99362190D01*
X90479714Y-99362190D01*
X92003524Y-99838381D02*
X91432095Y-99838381D01*
X91717809Y-99838381D02*
X91717809Y-98838381D01*
X91622571Y-98981238D01*
X91527333Y-99076476D01*
X91432095Y-99124095D01*
X92955905Y-99838381D02*
X92384476Y-99838381D01*
X92670190Y-99838381D02*
X92670190Y-98838381D01*
X92574952Y-98981238D01*
X92479714Y-99076476D01*
X92384476Y-99124095D01*
X86326743Y-82595981D02*
X85993409Y-82119790D01*
X85755314Y-82595981D02*
X85755314Y-81595981D01*
X86136267Y-81595981D01*
X86231505Y-81643600D01*
X86279124Y-81691219D01*
X86326743Y-81786457D01*
X86326743Y-81929314D01*
X86279124Y-82024552D01*
X86231505Y-82072171D01*
X86136267Y-82119790D01*
X85755314Y-82119790D01*
X87279124Y-82595981D02*
X86707695Y-82595981D01*
X86993409Y-82595981D02*
X86993409Y-81595981D01*
X86898171Y-81738838D01*
X86802933Y-81834076D01*
X86707695Y-81881695D01*
X87660076Y-81691219D02*
X87707695Y-81643600D01*
X87802933Y-81595981D01*
X88041029Y-81595981D01*
X88136267Y-81643600D01*
X88183886Y-81691219D01*
X88231505Y-81786457D01*
X88231505Y-81881695D01*
X88183886Y-82024552D01*
X87612457Y-82595981D01*
X88231505Y-82595981D01*
X86326743Y-83865981D02*
X85993409Y-83389790D01*
X85755314Y-83865981D02*
X85755314Y-82865981D01*
X86136267Y-82865981D01*
X86231505Y-82913600D01*
X86279124Y-82961219D01*
X86326743Y-83056457D01*
X86326743Y-83199314D01*
X86279124Y-83294552D01*
X86231505Y-83342171D01*
X86136267Y-83389790D01*
X85755314Y-83389790D01*
X87279124Y-83865981D02*
X86707695Y-83865981D01*
X86993409Y-83865981D02*
X86993409Y-82865981D01*
X86898171Y-83008838D01*
X86802933Y-83104076D01*
X86707695Y-83151695D01*
X87612457Y-82865981D02*
X88231505Y-82865981D01*
X87898171Y-83246933D01*
X88041029Y-83246933D01*
X88136267Y-83294552D01*
X88183886Y-83342171D01*
X88231505Y-83437410D01*
X88231505Y-83675505D01*
X88183886Y-83770743D01*
X88136267Y-83818362D01*
X88041029Y-83865981D01*
X87755314Y-83865981D01*
X87660076Y-83818362D01*
X87612457Y-83770743D01*
X92067143Y-94025981D02*
X91733809Y-93549790D01*
X91495714Y-94025981D02*
X91495714Y-93025981D01*
X91876667Y-93025981D01*
X91971905Y-93073600D01*
X92019524Y-93121219D01*
X92067143Y-93216457D01*
X92067143Y-93359314D01*
X92019524Y-93454552D01*
X91971905Y-93502171D01*
X91876667Y-93549790D01*
X91495714Y-93549790D01*
X93019524Y-94025981D02*
X92448095Y-94025981D01*
X92733809Y-94025981D02*
X92733809Y-93025981D01*
X92638571Y-93168838D01*
X92543333Y-93264076D01*
X92448095Y-93311695D01*
X93876667Y-93359314D02*
X93876667Y-94025981D01*
X93638571Y-92978362D02*
X93400476Y-93692648D01*
X94019524Y-93692648D01*
X103801943Y-89657181D02*
X103468609Y-89180990D01*
X103230514Y-89657181D02*
X103230514Y-88657181D01*
X103611467Y-88657181D01*
X103706705Y-88704800D01*
X103754324Y-88752419D01*
X103801943Y-88847657D01*
X103801943Y-88990514D01*
X103754324Y-89085752D01*
X103706705Y-89133371D01*
X103611467Y-89180990D01*
X103230514Y-89180990D01*
X104754324Y-89657181D02*
X104182895Y-89657181D01*
X104468609Y-89657181D02*
X104468609Y-88657181D01*
X104373371Y-88800038D01*
X104278133Y-88895276D01*
X104182895Y-88942895D01*
X105659086Y-88657181D02*
X105182895Y-88657181D01*
X105135276Y-89133371D01*
X105182895Y-89085752D01*
X105278133Y-89038133D01*
X105516229Y-89038133D01*
X105611467Y-89085752D01*
X105659086Y-89133371D01*
X105706705Y-89228610D01*
X105706705Y-89466705D01*
X105659086Y-89561943D01*
X105611467Y-89609562D01*
X105516229Y-89657181D01*
X105278133Y-89657181D01*
X105182895Y-89609562D01*
X105135276Y-89561943D01*
X103801943Y-90977981D02*
X103468609Y-90501790D01*
X103230514Y-90977981D02*
X103230514Y-89977981D01*
X103611467Y-89977981D01*
X103706705Y-90025600D01*
X103754324Y-90073219D01*
X103801943Y-90168457D01*
X103801943Y-90311314D01*
X103754324Y-90406552D01*
X103706705Y-90454171D01*
X103611467Y-90501790D01*
X103230514Y-90501790D01*
X104754324Y-90977981D02*
X104182895Y-90977981D01*
X104468609Y-90977981D02*
X104468609Y-89977981D01*
X104373371Y-90120838D01*
X104278133Y-90216076D01*
X104182895Y-90263695D01*
X105611467Y-89977981D02*
X105420990Y-89977981D01*
X105325752Y-90025600D01*
X105278133Y-90073219D01*
X105182895Y-90216076D01*
X105135276Y-90406552D01*
X105135276Y-90787505D01*
X105182895Y-90882743D01*
X105230514Y-90930362D01*
X105325752Y-90977981D01*
X105516229Y-90977981D01*
X105611467Y-90930362D01*
X105659086Y-90882743D01*
X105706705Y-90787505D01*
X105706705Y-90549410D01*
X105659086Y-90454171D01*
X105611467Y-90406552D01*
X105516229Y-90358933D01*
X105325752Y-90358933D01*
X105230514Y-90406552D01*
X105182895Y-90454171D01*
X105135276Y-90549410D01*
X102125543Y-93873581D02*
X101792209Y-93397390D01*
X101554114Y-93873581D02*
X101554114Y-92873581D01*
X101935067Y-92873581D01*
X102030305Y-92921200D01*
X102077924Y-92968819D01*
X102125543Y-93064057D01*
X102125543Y-93206914D01*
X102077924Y-93302152D01*
X102030305Y-93349771D01*
X101935067Y-93397390D01*
X101554114Y-93397390D01*
X103077924Y-93873581D02*
X102506495Y-93873581D01*
X102792209Y-93873581D02*
X102792209Y-92873581D01*
X102696971Y-93016438D01*
X102601733Y-93111676D01*
X102506495Y-93159295D01*
X103411257Y-92873581D02*
X104077924Y-92873581D01*
X103649352Y-93873581D01*
X106545143Y-90927181D02*
X106211809Y-90450990D01*
X105973714Y-90927181D02*
X105973714Y-89927181D01*
X106354667Y-89927181D01*
X106449905Y-89974800D01*
X106497524Y-90022419D01*
X106545143Y-90117657D01*
X106545143Y-90260514D01*
X106497524Y-90355752D01*
X106449905Y-90403371D01*
X106354667Y-90450990D01*
X105973714Y-90450990D01*
X107497524Y-90927181D02*
X106926095Y-90927181D01*
X107211809Y-90927181D02*
X107211809Y-89927181D01*
X107116571Y-90070038D01*
X107021333Y-90165276D01*
X106926095Y-90212895D01*
X108068952Y-90355752D02*
X107973714Y-90308133D01*
X107926095Y-90260514D01*
X107878476Y-90165276D01*
X107878476Y-90117657D01*
X107926095Y-90022419D01*
X107973714Y-89974800D01*
X108068952Y-89927181D01*
X108259429Y-89927181D01*
X108354667Y-89974800D01*
X108402286Y-90022419D01*
X108449905Y-90117657D01*
X108449905Y-90165276D01*
X108402286Y-90260514D01*
X108354667Y-90308133D01*
X108259429Y-90355752D01*
X108068952Y-90355752D01*
X107973714Y-90403371D01*
X107926095Y-90450990D01*
X107878476Y-90546229D01*
X107878476Y-90736705D01*
X107926095Y-90831943D01*
X107973714Y-90879562D01*
X108068952Y-90927181D01*
X108259429Y-90927181D01*
X108354667Y-90879562D01*
X108402286Y-90831943D01*
X108449905Y-90736705D01*
X108449905Y-90546229D01*
X108402286Y-90450990D01*
X108354667Y-90403371D01*
X108259429Y-90355752D01*
X106494343Y-89606381D02*
X106161009Y-89130190D01*
X105922914Y-89606381D02*
X105922914Y-88606381D01*
X106303867Y-88606381D01*
X106399105Y-88654000D01*
X106446724Y-88701619D01*
X106494343Y-88796857D01*
X106494343Y-88939714D01*
X106446724Y-89034952D01*
X106399105Y-89082571D01*
X106303867Y-89130190D01*
X105922914Y-89130190D01*
X107446724Y-89606381D02*
X106875295Y-89606381D01*
X107161009Y-89606381D02*
X107161009Y-88606381D01*
X107065771Y-88749238D01*
X106970533Y-88844476D01*
X106875295Y-88892095D01*
X107922914Y-89606381D02*
X108113390Y-89606381D01*
X108208629Y-89558762D01*
X108256248Y-89511143D01*
X108351486Y-89368286D01*
X108399105Y-89177810D01*
X108399105Y-88796857D01*
X108351486Y-88701619D01*
X108303867Y-88654000D01*
X108208629Y-88606381D01*
X108018152Y-88606381D01*
X107922914Y-88654000D01*
X107875295Y-88701619D01*
X107827676Y-88796857D01*
X107827676Y-89034952D01*
X107875295Y-89130190D01*
X107922914Y-89177810D01*
X108018152Y-89225429D01*
X108208629Y-89225429D01*
X108303867Y-89177810D01*
X108351486Y-89130190D01*
X108399105Y-89034952D01*
X109316781Y-121089657D02*
X108840590Y-121422991D01*
X109316781Y-121661086D02*
X108316781Y-121661086D01*
X108316781Y-121280133D01*
X108364400Y-121184895D01*
X108412019Y-121137276D01*
X108507257Y-121089657D01*
X108650114Y-121089657D01*
X108745352Y-121137276D01*
X108792971Y-121184895D01*
X108840590Y-121280133D01*
X108840590Y-121661086D01*
X108412019Y-120708705D02*
X108364400Y-120661086D01*
X108316781Y-120565848D01*
X108316781Y-120327752D01*
X108364400Y-120232514D01*
X108412019Y-120184895D01*
X108507257Y-120137276D01*
X108602495Y-120137276D01*
X108745352Y-120184895D01*
X109316781Y-120756324D01*
X109316781Y-120137276D01*
X108316781Y-119518229D02*
X108316781Y-119422990D01*
X108364400Y-119327752D01*
X108412019Y-119280133D01*
X108507257Y-119232514D01*
X108697733Y-119184895D01*
X108935829Y-119184895D01*
X109126305Y-119232514D01*
X109221543Y-119280133D01*
X109269162Y-119327752D01*
X109316781Y-119422990D01*
X109316781Y-119518229D01*
X109269162Y-119613467D01*
X109221543Y-119661086D01*
X109126305Y-119708705D01*
X108935829Y-119756324D01*
X108697733Y-119756324D01*
X108507257Y-119708705D01*
X108412019Y-119661086D01*
X108364400Y-119613467D01*
X108316781Y-119518229D01*
X119499143Y-99055181D02*
X119165809Y-98578990D01*
X118927714Y-99055181D02*
X118927714Y-98055181D01*
X119308667Y-98055181D01*
X119403905Y-98102800D01*
X119451524Y-98150419D01*
X119499143Y-98245657D01*
X119499143Y-98388514D01*
X119451524Y-98483752D01*
X119403905Y-98531371D01*
X119308667Y-98578990D01*
X118927714Y-98578990D01*
X119880095Y-98150419D02*
X119927714Y-98102800D01*
X120022952Y-98055181D01*
X120261048Y-98055181D01*
X120356286Y-98102800D01*
X120403905Y-98150419D01*
X120451524Y-98245657D01*
X120451524Y-98340895D01*
X120403905Y-98483752D01*
X119832476Y-99055181D01*
X120451524Y-99055181D01*
X121403905Y-99055181D02*
X120832476Y-99055181D01*
X121118190Y-99055181D02*
X121118190Y-98055181D01*
X121022952Y-98198038D01*
X120927714Y-98293276D01*
X120832476Y-98340895D01*
X108046781Y-116619257D02*
X107570590Y-116952591D01*
X108046781Y-117190686D02*
X107046781Y-117190686D01*
X107046781Y-116809733D01*
X107094400Y-116714495D01*
X107142019Y-116666876D01*
X107237257Y-116619257D01*
X107380114Y-116619257D01*
X107475352Y-116666876D01*
X107522971Y-116714495D01*
X107570590Y-116809733D01*
X107570590Y-117190686D01*
X107142019Y-116238305D02*
X107094400Y-116190686D01*
X107046781Y-116095448D01*
X107046781Y-115857352D01*
X107094400Y-115762114D01*
X107142019Y-115714495D01*
X107237257Y-115666876D01*
X107332495Y-115666876D01*
X107475352Y-115714495D01*
X108046781Y-116285924D01*
X108046781Y-115666876D01*
X107142019Y-115285924D02*
X107094400Y-115238305D01*
X107046781Y-115143067D01*
X107046781Y-114904971D01*
X107094400Y-114809733D01*
X107142019Y-114762114D01*
X107237257Y-114714495D01*
X107332495Y-114714495D01*
X107475352Y-114762114D01*
X108046781Y-115333543D01*
X108046781Y-114714495D01*
X108046781Y-121038857D02*
X107570590Y-121372191D01*
X108046781Y-121610286D02*
X107046781Y-121610286D01*
X107046781Y-121229333D01*
X107094400Y-121134095D01*
X107142019Y-121086476D01*
X107237257Y-121038857D01*
X107380114Y-121038857D01*
X107475352Y-121086476D01*
X107522971Y-121134095D01*
X107570590Y-121229333D01*
X107570590Y-121610286D01*
X107142019Y-120657905D02*
X107094400Y-120610286D01*
X107046781Y-120515048D01*
X107046781Y-120276952D01*
X107094400Y-120181714D01*
X107142019Y-120134095D01*
X107237257Y-120086476D01*
X107332495Y-120086476D01*
X107475352Y-120134095D01*
X108046781Y-120705524D01*
X108046781Y-120086476D01*
X107046781Y-119753143D02*
X107046781Y-119134095D01*
X107427733Y-119467429D01*
X107427733Y-119324571D01*
X107475352Y-119229333D01*
X107522971Y-119181714D01*
X107618210Y-119134095D01*
X107856305Y-119134095D01*
X107951543Y-119181714D01*
X107999162Y-119229333D01*
X108046781Y-119324571D01*
X108046781Y-119610286D01*
X107999162Y-119705524D01*
X107951543Y-119753143D01*
X106725981Y-121089657D02*
X106249790Y-121422991D01*
X106725981Y-121661086D02*
X105725981Y-121661086D01*
X105725981Y-121280133D01*
X105773600Y-121184895D01*
X105821219Y-121137276D01*
X105916457Y-121089657D01*
X106059314Y-121089657D01*
X106154552Y-121137276D01*
X106202171Y-121184895D01*
X106249790Y-121280133D01*
X106249790Y-121661086D01*
X105821219Y-120708705D02*
X105773600Y-120661086D01*
X105725981Y-120565848D01*
X105725981Y-120327752D01*
X105773600Y-120232514D01*
X105821219Y-120184895D01*
X105916457Y-120137276D01*
X106011695Y-120137276D01*
X106154552Y-120184895D01*
X106725981Y-120756324D01*
X106725981Y-120137276D01*
X106059314Y-119280133D02*
X106725981Y-119280133D01*
X105678362Y-119518229D02*
X106392648Y-119756324D01*
X106392648Y-119137276D01*
X113403143Y-99004381D02*
X113069809Y-98528190D01*
X112831714Y-99004381D02*
X112831714Y-98004381D01*
X113212667Y-98004381D01*
X113307905Y-98052000D01*
X113355524Y-98099619D01*
X113403143Y-98194857D01*
X113403143Y-98337714D01*
X113355524Y-98432952D01*
X113307905Y-98480571D01*
X113212667Y-98528190D01*
X112831714Y-98528190D01*
X113784095Y-98099619D02*
X113831714Y-98052000D01*
X113926952Y-98004381D01*
X114165048Y-98004381D01*
X114260286Y-98052000D01*
X114307905Y-98099619D01*
X114355524Y-98194857D01*
X114355524Y-98290095D01*
X114307905Y-98432952D01*
X113736476Y-99004381D01*
X114355524Y-99004381D01*
X115260286Y-98004381D02*
X114784095Y-98004381D01*
X114736476Y-98480571D01*
X114784095Y-98432952D01*
X114879333Y-98385333D01*
X115117429Y-98385333D01*
X115212667Y-98432952D01*
X115260286Y-98480571D01*
X115307905Y-98575810D01*
X115307905Y-98813905D01*
X115260286Y-98909143D01*
X115212667Y-98956762D01*
X115117429Y-99004381D01*
X114879333Y-99004381D01*
X114784095Y-98956762D01*
X114736476Y-98909143D01*
X109367581Y-113774457D02*
X108891390Y-114107791D01*
X109367581Y-114345886D02*
X108367581Y-114345886D01*
X108367581Y-113964933D01*
X108415200Y-113869695D01*
X108462819Y-113822076D01*
X108558057Y-113774457D01*
X108700914Y-113774457D01*
X108796152Y-113822076D01*
X108843771Y-113869695D01*
X108891390Y-113964933D01*
X108891390Y-114345886D01*
X108462819Y-113393505D02*
X108415200Y-113345886D01*
X108367581Y-113250648D01*
X108367581Y-113012552D01*
X108415200Y-112917314D01*
X108462819Y-112869695D01*
X108558057Y-112822076D01*
X108653295Y-112822076D01*
X108796152Y-112869695D01*
X109367581Y-113441124D01*
X109367581Y-112822076D01*
X108367581Y-111964933D02*
X108367581Y-112155410D01*
X108415200Y-112250648D01*
X108462819Y-112298267D01*
X108605676Y-112393505D01*
X108796152Y-112441124D01*
X109177105Y-112441124D01*
X109272343Y-112393505D01*
X109319962Y-112345886D01*
X109367581Y-112250648D01*
X109367581Y-112060171D01*
X109319962Y-111964933D01*
X109272343Y-111917314D01*
X109177105Y-111869695D01*
X108939010Y-111869695D01*
X108843771Y-111917314D01*
X108796152Y-111964933D01*
X108748533Y-112060171D01*
X108748533Y-112250648D01*
X108796152Y-112345886D01*
X108843771Y-112393505D01*
X108939010Y-112441124D01*
X106725981Y-116619257D02*
X106249790Y-116952591D01*
X106725981Y-117190686D02*
X105725981Y-117190686D01*
X105725981Y-116809733D01*
X105773600Y-116714495D01*
X105821219Y-116666876D01*
X105916457Y-116619257D01*
X106059314Y-116619257D01*
X106154552Y-116666876D01*
X106202171Y-116714495D01*
X106249790Y-116809733D01*
X106249790Y-117190686D01*
X105821219Y-116238305D02*
X105773600Y-116190686D01*
X105725981Y-116095448D01*
X105725981Y-115857352D01*
X105773600Y-115762114D01*
X105821219Y-115714495D01*
X105916457Y-115666876D01*
X106011695Y-115666876D01*
X106154552Y-115714495D01*
X106725981Y-116285924D01*
X106725981Y-115666876D01*
X105725981Y-115333543D02*
X105725981Y-114666876D01*
X106725981Y-115095448D01*
X107002343Y-99055181D02*
X106669009Y-98578990D01*
X106430914Y-99055181D02*
X106430914Y-98055181D01*
X106811867Y-98055181D01*
X106907105Y-98102800D01*
X106954724Y-98150419D01*
X107002343Y-98245657D01*
X107002343Y-98388514D01*
X106954724Y-98483752D01*
X106907105Y-98531371D01*
X106811867Y-98578990D01*
X106430914Y-98578990D01*
X107383295Y-98150419D02*
X107430914Y-98102800D01*
X107526152Y-98055181D01*
X107764248Y-98055181D01*
X107859486Y-98102800D01*
X107907105Y-98150419D01*
X107954724Y-98245657D01*
X107954724Y-98340895D01*
X107907105Y-98483752D01*
X107335676Y-99055181D01*
X107954724Y-99055181D01*
X108526152Y-98483752D02*
X108430914Y-98436133D01*
X108383295Y-98388514D01*
X108335676Y-98293276D01*
X108335676Y-98245657D01*
X108383295Y-98150419D01*
X108430914Y-98102800D01*
X108526152Y-98055181D01*
X108716629Y-98055181D01*
X108811867Y-98102800D01*
X108859486Y-98150419D01*
X108907105Y-98245657D01*
X108907105Y-98293276D01*
X108859486Y-98388514D01*
X108811867Y-98436133D01*
X108716629Y-98483752D01*
X108526152Y-98483752D01*
X108430914Y-98531371D01*
X108383295Y-98578990D01*
X108335676Y-98674229D01*
X108335676Y-98864705D01*
X108383295Y-98959943D01*
X108430914Y-99007562D01*
X108526152Y-99055181D01*
X108716629Y-99055181D01*
X108811867Y-99007562D01*
X108859486Y-98959943D01*
X108907105Y-98864705D01*
X108907105Y-98674229D01*
X108859486Y-98578990D01*
X108811867Y-98531371D01*
X108716629Y-98483752D01*
X107124667Y-96315162D02*
X107267524Y-96362781D01*
X107505620Y-96362781D01*
X107600858Y-96315162D01*
X107648477Y-96267543D01*
X107696096Y-96172305D01*
X107696096Y-96077067D01*
X107648477Y-95981829D01*
X107600858Y-95934210D01*
X107505620Y-95886590D01*
X107315143Y-95838971D01*
X107219905Y-95791352D01*
X107172286Y-95743733D01*
X107124667Y-95648495D01*
X107124667Y-95553257D01*
X107172286Y-95458019D01*
X107219905Y-95410400D01*
X107315143Y-95362781D01*
X107553239Y-95362781D01*
X107696096Y-95410400D01*
X108029429Y-95362781D02*
X108267524Y-96362781D01*
X108458001Y-95648495D01*
X108648477Y-96362781D01*
X108886572Y-95362781D01*
X109791334Y-96362781D02*
X109219905Y-96362781D01*
X109505619Y-96362781D02*
X109505619Y-95362781D01*
X109410381Y-95505638D01*
X109315143Y-95600876D01*
X109219905Y-95648495D01*
X109677295Y-88758781D02*
X109677295Y-89568305D01*
X109724914Y-89663543D01*
X109772533Y-89711162D01*
X109867771Y-89758781D01*
X110058248Y-89758781D01*
X110153486Y-89711162D01*
X110201105Y-89663543D01*
X110248724Y-89568305D01*
X110248724Y-88758781D01*
X111248724Y-89758781D02*
X110677295Y-89758781D01*
X110963009Y-89758781D02*
X110963009Y-88758781D01*
X110867771Y-88901638D01*
X110772533Y-88996876D01*
X110677295Y-89044495D01*
D16*
X117655219Y-84797295D02*
X118477695Y-84797295D01*
X118574457Y-84748914D01*
X118622838Y-84700533D01*
X118671219Y-84603771D01*
X118671219Y-84410248D01*
X118622838Y-84313486D01*
X118574457Y-84265105D01*
X118477695Y-84216724D01*
X117655219Y-84216724D01*
X117751981Y-83781295D02*
X117703600Y-83732914D01*
X117655219Y-83636152D01*
X117655219Y-83394248D01*
X117703600Y-83297486D01*
X117751981Y-83249105D01*
X117848743Y-83200724D01*
X117945505Y-83200724D01*
X118090648Y-83249105D01*
X118671219Y-83829676D01*
X118671219Y-83200724D01*
D13*
X91643295Y-82764381D02*
X91643295Y-83573905D01*
X91690914Y-83669143D01*
X91738533Y-83716762D01*
X91833771Y-83764381D01*
X92024248Y-83764381D01*
X92119486Y-83716762D01*
X92167105Y-83669143D01*
X92214724Y-83573905D01*
X92214724Y-82764381D01*
X92595676Y-82764381D02*
X93214724Y-82764381D01*
X92881390Y-83145333D01*
X93024248Y-83145333D01*
X93119486Y-83192952D01*
X93167105Y-83240571D01*
X93214724Y-83335810D01*
X93214724Y-83573905D01*
X93167105Y-83669143D01*
X93119486Y-83716762D01*
X93024248Y-83764381D01*
X92738533Y-83764381D01*
X92643295Y-83716762D01*
X92595676Y-83669143D01*
X106019695Y-103846381D02*
X106019695Y-104655905D01*
X106067314Y-104751143D01*
X106114933Y-104798762D01*
X106210171Y-104846381D01*
X106400648Y-104846381D01*
X106495886Y-104798762D01*
X106543505Y-104751143D01*
X106591124Y-104655905D01*
X106591124Y-103846381D01*
X107495886Y-104179714D02*
X107495886Y-104846381D01*
X107257790Y-103798762D02*
X107019695Y-104513048D01*
X107638743Y-104513048D01*
X108508895Y-114768381D02*
X108508895Y-115577905D01*
X108556514Y-115673143D01*
X108604133Y-115720762D01*
X108699371Y-115768381D01*
X108889848Y-115768381D01*
X108985086Y-115720762D01*
X109032705Y-115673143D01*
X109080324Y-115577905D01*
X109080324Y-114768381D01*
X110032705Y-114768381D02*
X109556514Y-114768381D01*
X109508895Y-115244571D01*
X109556514Y-115196952D01*
X109651752Y-115149333D01*
X109889848Y-115149333D01*
X109985086Y-115196952D01*
X110032705Y-115244571D01*
X110080324Y-115339810D01*
X110080324Y-115577905D01*
X110032705Y-115673143D01*
X109985086Y-115720762D01*
X109889848Y-115768381D01*
X109651752Y-115768381D01*
X109556514Y-115720762D01*
X109508895Y-115673143D01*
X106019695Y-105217981D02*
X106019695Y-106027505D01*
X106067314Y-106122743D01*
X106114933Y-106170362D01*
X106210171Y-106217981D01*
X106400648Y-106217981D01*
X106495886Y-106170362D01*
X106543505Y-106122743D01*
X106591124Y-106027505D01*
X106591124Y-105217981D01*
X107495886Y-105217981D02*
X107305409Y-105217981D01*
X107210171Y-105265600D01*
X107162552Y-105313219D01*
X107067314Y-105456076D01*
X107019695Y-105646552D01*
X107019695Y-106027505D01*
X107067314Y-106122743D01*
X107114933Y-106170362D01*
X107210171Y-106217981D01*
X107400648Y-106217981D01*
X107495886Y-106170362D01*
X107543505Y-106122743D01*
X107591124Y-106027505D01*
X107591124Y-105789410D01*
X107543505Y-105694171D01*
X107495886Y-105646552D01*
X107400648Y-105598933D01*
X107210171Y-105598933D01*
X107114933Y-105646552D01*
X107067314Y-105694171D01*
X107019695Y-105789410D01*
X106070495Y-106589581D02*
X106070495Y-107399105D01*
X106118114Y-107494343D01*
X106165733Y-107541962D01*
X106260971Y-107589581D01*
X106451448Y-107589581D01*
X106546686Y-107541962D01*
X106594305Y-107494343D01*
X106641924Y-107399105D01*
X106641924Y-106589581D01*
X107260971Y-107018152D02*
X107165733Y-106970533D01*
X107118114Y-106922914D01*
X107070495Y-106827676D01*
X107070495Y-106780057D01*
X107118114Y-106684819D01*
X107165733Y-106637200D01*
X107260971Y-106589581D01*
X107451448Y-106589581D01*
X107546686Y-106637200D01*
X107594305Y-106684819D01*
X107641924Y-106780057D01*
X107641924Y-106827676D01*
X107594305Y-106922914D01*
X107546686Y-106970533D01*
X107451448Y-107018152D01*
X107260971Y-107018152D01*
X107165733Y-107065771D01*
X107118114Y-107113390D01*
X107070495Y-107208629D01*
X107070495Y-107399105D01*
X107118114Y-107494343D01*
X107165733Y-107541962D01*
X107260971Y-107589581D01*
X107451448Y-107589581D01*
X107546686Y-107541962D01*
X107594305Y-107494343D01*
X107641924Y-107399105D01*
X107641924Y-107208629D01*
X107594305Y-107113390D01*
X107546686Y-107065771D01*
X107451448Y-107018152D01*
X108621581Y-118516305D02*
X109431105Y-118516305D01*
X109526343Y-118468686D01*
X109573962Y-118421067D01*
X109621581Y-118325829D01*
X109621581Y-118135352D01*
X109573962Y-118040114D01*
X109526343Y-117992495D01*
X109431105Y-117944876D01*
X108621581Y-117944876D01*
X108621581Y-117563924D02*
X108621581Y-116897257D01*
X109621581Y-117325829D01*
X111879143Y-95448381D02*
X111545809Y-94972190D01*
X111307714Y-95448381D02*
X111307714Y-94448381D01*
X111688667Y-94448381D01*
X111783905Y-94496000D01*
X111831524Y-94543619D01*
X111879143Y-94638857D01*
X111879143Y-94781714D01*
X111831524Y-94876952D01*
X111783905Y-94924571D01*
X111688667Y-94972190D01*
X111307714Y-94972190D01*
X112260095Y-94543619D02*
X112307714Y-94496000D01*
X112402952Y-94448381D01*
X112641048Y-94448381D01*
X112736286Y-94496000D01*
X112783905Y-94543619D01*
X112831524Y-94638857D01*
X112831524Y-94734095D01*
X112783905Y-94876952D01*
X112212476Y-95448381D01*
X112831524Y-95448381D01*
X113307714Y-95448381D02*
X113498190Y-95448381D01*
X113593429Y-95400762D01*
X113641048Y-95353143D01*
X113736286Y-95210286D01*
X113783905Y-95019810D01*
X113783905Y-94638857D01*
X113736286Y-94543619D01*
X113688667Y-94496000D01*
X113593429Y-94448381D01*
X113402952Y-94448381D01*
X113307714Y-94496000D01*
X113260095Y-94543619D01*
X113212476Y-94638857D01*
X113212476Y-94876952D01*
X113260095Y-94972190D01*
X113307714Y-95019810D01*
X113402952Y-95067429D01*
X113593429Y-95067429D01*
X113688667Y-95019810D01*
X113736286Y-94972190D01*
X113783905Y-94876952D01*
X122807505Y-92755981D02*
X122807505Y-91755981D01*
X123045600Y-91755981D01*
X123188458Y-91803600D01*
X123283696Y-91898838D01*
X123331315Y-91994076D01*
X123378934Y-92184552D01*
X123378934Y-92327410D01*
X123331315Y-92517886D01*
X123283696Y-92613124D01*
X123188458Y-92708362D01*
X123045600Y-92755981D01*
X122807505Y-92755981D01*
X123759886Y-91851219D02*
X123807505Y-91803600D01*
X123902743Y-91755981D01*
X124140839Y-91755981D01*
X124236077Y-91803600D01*
X124283696Y-91851219D01*
X124331315Y-91946457D01*
X124331315Y-92041695D01*
X124283696Y-92184552D01*
X123712267Y-92755981D01*
X124331315Y-92755981D01*
M02*
