M48
;DRILL file {KiCad 4.0.2-stable} date 5/28/2017 8:04:06 PM
;FORMAT={3:3/ absolute / metric / suppress leading zeros}
FMAT,2
METRIC,TZ
T1C0.400
T2C0.900
T3C1.000
T4C1.016
T5C1.300
T6C2.200
%
G90
G05
M71
T1
X91999Y-81382
X92964Y-78029
X94386Y-94132
X95250Y-88392
X95402Y-86013
X98044Y-117399
X101498Y-86563
X101678Y-96114
X102514Y-92964
X102819Y-84328
X102870Y-83312
X103378Y-96164
X105156Y-92964
X106172Y-85801
X106680Y-82144
X106985Y-92202
X107696Y-94488
X107848Y-82093
X108712Y-78892
X108763Y-96774
X111811Y-80467
X111842Y-87242
X111963Y-83312
X112166Y-85242
X112253Y-86556
X112319Y-87884
X112700Y-118643
X113030Y-114554
X113370Y-83343
X114003Y-86563
X114046Y-98450
X114097Y-112573
X114300Y-79197
X114402Y-114351
X114656Y-87224
X115519Y-87884
X118313Y-115875
X118339Y-118643
X118384Y-113741
X122682Y-120091
X122682Y-122733
T2
X118923Y-94793
X121463Y-94793
T3
X76849Y-106944
X76849Y-112024
X97028Y-101854
X99568Y-101854
X102108Y-101854
X103999Y-112094
X103999Y-117174
X103999Y-122254
X104648Y-101854
X105918Y-77216
X108458Y-77216
X110998Y-122936
X113538Y-122936
X116078Y-122936
X118618Y-122936
T4
X97790Y-76454
X97790Y-78994
X97790Y-81534
X97790Y-84074
X100330Y-76454
X100330Y-78994
X100330Y-81534
X100330Y-84074
T5
X80010Y-84074
X80010Y-89074
X80010Y-96012
X80010Y-101012
T6
X87630Y-87710
X87630Y-97710
T0
M30
