M48
;DRILL file {KiCad 4.0.2+dfsg1-stable} date Wed 06 Sep 2017 09:12:33 PM CST
;FORMAT={-:-/ absolute / metric / decimal}
FMAT,2
METRIC,TZ
T1C0.400
T2C0.900
T3C1.000
T4C1.016
T5C1.300
T6C2.200
%
G90
G05
M71
T1
X91.999Y-81.382
X92.964Y-78.029
X94.386Y-94.132
X95.25Y-88.392
X95.402Y-86.013
X98.044Y-117.399
X101.498Y-86.563
X101.678Y-96.114
X102.514Y-92.964
X102.819Y-84.328
X102.87Y-83.312
X103.378Y-96.164
X105.156Y-92.964
X106.172Y-85.801
X106.68Y-82.144
X106.985Y-92.202
X107.696Y-94.488
X107.848Y-82.093
X108.712Y-78.892
X108.763Y-96.774
X111.811Y-80.467
X111.842Y-87.242
X111.963Y-83.312
X112.166Y-85.242
X112.253Y-86.556
X112.319Y-87.884
X112.7Y-118.643
X113.03Y-114.554
X113.37Y-83.343
X114.003Y-86.563
X114.046Y-98.45
X114.097Y-112.573
X114.3Y-79.197
X114.402Y-114.351
X114.656Y-87.224
X115.519Y-87.884
X118.313Y-115.875
X118.339Y-118.643
X118.384Y-113.741
X122.682Y-120.091
X122.682Y-122.733
T2
X118.923Y-94.793
X121.463Y-94.793
T3
X76.849Y-106.944
X76.849Y-112.024
X97.028Y-101.854
X99.568Y-101.854
X102.108Y-101.854
X103.999Y-112.094
X103.999Y-117.174
X103.999Y-122.254
X104.648Y-101.854
X105.918Y-77.216
X108.458Y-77.216
X110.998Y-122.936
X113.538Y-122.936
X116.078Y-122.936
X118.618Y-122.936
T4
X97.79Y-76.454
X97.79Y-78.994
X97.79Y-81.534
X97.79Y-84.074
X100.33Y-76.454
X100.33Y-78.994
X100.33Y-81.534
X100.33Y-84.074
T5
X80.01Y-84.074
X80.01Y-89.074
X80.01Y-96.012
X80.01Y-101.012
T6
X87.63Y-87.71
X87.63Y-97.71
T0
M30
