G04 #@! TF.FileFunction,Copper,L1,Top,Signal*
%FSLAX46Y46*%
G04 Gerber Fmt 4.6, Leading zero omitted, Abs format (unit mm)*
G04 Created by KiCad (PCBNEW 4.0.2-stable) date 5/28/2017 8:04:03 PM*
%MOMM*%
G01*
G04 APERTURE LIST*
%ADD10C,0.100000*%
%ADD11C,0.150000*%
%ADD12R,1.000000X1.250000*%
%ADD13R,1.250000X1.000000*%
%ADD14R,1.000000X1.600000*%
%ADD15R,1.600000X1.000000*%
%ADD16R,1.200000X1.200000*%
%ADD17R,1.700000X1.700000*%
%ADD18O,1.700000X1.700000*%
%ADD19R,2.500000X2.500000*%
%ADD20C,2.500000*%
%ADD21C,1.700000*%
%ADD22R,0.900000X0.800000*%
%ADD23R,0.700000X1.300000*%
%ADD24R,0.900000X1.700000*%
%ADD25R,1.700000X0.900000*%
%ADD26C,3.000000*%
%ADD27R,1.300000X0.700000*%
%ADD28R,2.180000X1.600000*%
%ADD29R,1.450000X0.450000*%
%ADD30R,1.524000X1.524000*%
%ADD31C,1.524000*%
%ADD32R,1.550000X0.600000*%
%ADD33R,1.780000X2.000000*%
%ADD34R,1.500000X1.000000*%
%ADD35R,1.800000X1.000000*%
%ADD36R,1.840000X2.200000*%
%ADD37R,1.800000X1.800000*%
%ADD38C,1.800000*%
%ADD39C,0.600000*%
%ADD40C,0.250000*%
%ADD41C,0.500000*%
%ADD42C,4.000000*%
G04 APERTURE END LIST*
D10*
D11*
X75000000Y-75000000D02*
X125000000Y-75000000D01*
X75000000Y-125000000D02*
X125000000Y-125000000D01*
X125000000Y-75000000D02*
X125000000Y-125000000D01*
X75000000Y-75000000D02*
X75000000Y-125000000D01*
D12*
X108696000Y-80162400D03*
X106696000Y-80162400D03*
X112963200Y-79197200D03*
X110963200Y-79197200D03*
X98282000Y-99060000D03*
X96282000Y-99060000D03*
D13*
X103124000Y-76216000D03*
X103124000Y-78216000D03*
X95250000Y-78216000D03*
X95250000Y-76216000D03*
D14*
X93194000Y-90170000D03*
X90194000Y-90170000D03*
X90194000Y-95250000D03*
X93194000Y-95250000D03*
D15*
X92964000Y-76478000D03*
X92964000Y-79478000D03*
D13*
X123698000Y-121682000D03*
X123698000Y-123682000D03*
X121666000Y-121682000D03*
X121666000Y-123682000D03*
X123494800Y-114690400D03*
X123494800Y-112690400D03*
X121716800Y-114674400D03*
X121716800Y-112674400D03*
D16*
X88730000Y-102616000D03*
X86530000Y-102616000D03*
D17*
X105918000Y-77216000D03*
D18*
X108458000Y-77216000D03*
D17*
X104648000Y-101854000D03*
D18*
X102108000Y-101854000D03*
X99568000Y-101854000D03*
X97028000Y-101854000D03*
D19*
X80010000Y-96012000D03*
D20*
X80010000Y-101012000D03*
D19*
X80010000Y-84074000D03*
D20*
X80010000Y-89074000D03*
D17*
X110998000Y-122936000D03*
D18*
X113538000Y-122936000D03*
X116078000Y-122936000D03*
X118618000Y-122936000D03*
D21*
X103999000Y-122254000D03*
X103999000Y-117174000D03*
X103999000Y-112094000D03*
X76849000Y-112024000D03*
X76849000Y-106944000D03*
D22*
X95843600Y-93304400D03*
X95843600Y-91404400D03*
X93843600Y-92354400D03*
D23*
X112964000Y-77216000D03*
X111064000Y-77216000D03*
X103444000Y-99060000D03*
X105344000Y-99060000D03*
X92644000Y-102616000D03*
X90744000Y-102616000D03*
D24*
X93144000Y-87884000D03*
X90244000Y-87884000D03*
D25*
X76708000Y-76528000D03*
X76708000Y-79428000D03*
D26*
X87630000Y-87710000D03*
X87630000Y-97710000D03*
D25*
X79502000Y-79428000D03*
X79502000Y-76528000D03*
X82296000Y-76528000D03*
X82296000Y-79428000D03*
X85090000Y-79428000D03*
X85090000Y-76528000D03*
D24*
X93144000Y-97536000D03*
X90244000Y-97536000D03*
D25*
X87884000Y-76528000D03*
X87884000Y-79428000D03*
X90678000Y-79428000D03*
X90678000Y-76528000D03*
D27*
X95148400Y-89408000D03*
X95148400Y-87508000D03*
D23*
X99248000Y-87376000D03*
X97348000Y-87376000D03*
X99248000Y-89408000D03*
X97348000Y-89408000D03*
X100772000Y-92862400D03*
X98872000Y-92862400D03*
X102499200Y-89408000D03*
X100599200Y-89408000D03*
X102448400Y-87376000D03*
X100548400Y-87376000D03*
X116484400Y-120396000D03*
X118384400Y-120396000D03*
X124140000Y-98552000D03*
X122240000Y-98552000D03*
X115229600Y-112928400D03*
X117129600Y-112928400D03*
X113334800Y-120396000D03*
X115234800Y-120396000D03*
X110164800Y-120396000D03*
X112064800Y-120396000D03*
X118044000Y-98552000D03*
X116144000Y-98552000D03*
D27*
X119684800Y-112740400D03*
X119684800Y-114640400D03*
D23*
X113065600Y-112928400D03*
X111165600Y-112928400D03*
X109860000Y-98552000D03*
X111760000Y-98552000D03*
D28*
X96235570Y-96009680D03*
X105440430Y-96014320D03*
D29*
X110595200Y-87862600D03*
X110595200Y-87212600D03*
X110595200Y-86562600D03*
X110595200Y-85912600D03*
X110595200Y-85262600D03*
X110595200Y-84612600D03*
X110595200Y-83962600D03*
X110595200Y-83312600D03*
X110595200Y-82662600D03*
X110595200Y-82012600D03*
X104695200Y-82012600D03*
X104695200Y-82662600D03*
X104695200Y-83312600D03*
X104695200Y-83962600D03*
X104695200Y-84612600D03*
X104695200Y-85262600D03*
X104695200Y-85912600D03*
X104695200Y-86562600D03*
X104695200Y-87212600D03*
X104695200Y-87862600D03*
D30*
X97790000Y-76454000D03*
D31*
X100330000Y-76454000D03*
X97790000Y-78994000D03*
X100330000Y-78994000D03*
X97790000Y-81534000D03*
X100330000Y-81534000D03*
X97790000Y-84074000D03*
X100330000Y-84074000D03*
D32*
X89756000Y-81407000D03*
X89756000Y-82677000D03*
X89756000Y-83947000D03*
X89756000Y-85217000D03*
X95156000Y-85217000D03*
X95156000Y-83947000D03*
X95156000Y-82677000D03*
X95156000Y-81407000D03*
D33*
X123190000Y-100899000D03*
X120650000Y-110429000D03*
X120650000Y-100899000D03*
X123190000Y-110429000D03*
D32*
X116847600Y-118643400D03*
X116847600Y-117373400D03*
X116847600Y-116103400D03*
X116847600Y-114833400D03*
X111447600Y-114833400D03*
X111447600Y-116103400D03*
X111447600Y-117373400D03*
X111447600Y-118643400D03*
D33*
X117602000Y-100899000D03*
X115062000Y-110429000D03*
X115062000Y-100899000D03*
X117602000Y-110429000D03*
X109474000Y-110429000D03*
X112014000Y-100899000D03*
X112014000Y-110429000D03*
X109474000Y-100899000D03*
D10*
G36*
X123806400Y-117010000D02*
X124656400Y-117610000D01*
X124656400Y-118610000D01*
X123806400Y-119210000D01*
X123806400Y-117010000D01*
X123806400Y-117010000D01*
G37*
D34*
X120084400Y-116610000D03*
D35*
X120230900Y-118110000D03*
D34*
X120084400Y-119610000D03*
D36*
X122897900Y-118110000D03*
D10*
G36*
X121988200Y-119210000D02*
X120988200Y-118510000D01*
X120988200Y-117710000D01*
X121988200Y-117010000D01*
X121988200Y-119210000D01*
X121988200Y-119210000D01*
G37*
D23*
X114838400Y-94996000D03*
X116738400Y-94996000D03*
D37*
X121462800Y-94792800D03*
D38*
X118922800Y-94792800D03*
D39*
X98044000Y-117398800D03*
X107696000Y-94488000D03*
X106984800Y-92202000D03*
X112166400Y-85242400D03*
X108712000Y-78892400D03*
X114300000Y-79197200D03*
X107848400Y-82092800D03*
X101498400Y-86563200D03*
X106680000Y-82143600D03*
X111810800Y-80467200D03*
X108762800Y-96774000D03*
X114046000Y-98450400D03*
X95402400Y-86013400D03*
X92964000Y-78028800D03*
X101677968Y-96113600D03*
X103378000Y-96164400D03*
X114401600Y-114350800D03*
X113030000Y-114554000D03*
X118384000Y-113741200D03*
X122682000Y-120091200D03*
X122682000Y-122732800D03*
X112318800Y-87884000D03*
X115519200Y-87884000D03*
X94386400Y-94132400D03*
X91998800Y-81381600D03*
X95250000Y-88392000D03*
X102514400Y-92964000D03*
X105156000Y-92964000D03*
X111841631Y-87241871D03*
X114655600Y-87223600D03*
X113370180Y-83343154D03*
X111963200Y-83312000D03*
X118313200Y-115874800D03*
X114096800Y-112572800D03*
X106172000Y-85801200D03*
X102870000Y-83312000D03*
X102819200Y-84328000D03*
X118338600Y-118643400D03*
X112699800Y-118643400D03*
X112252996Y-86555724D03*
X114003431Y-86563200D03*
D40*
X96570800Y-117398800D02*
X98044000Y-117398800D01*
X92659200Y-113487200D02*
X96570800Y-117398800D01*
X92659200Y-103531200D02*
X92659200Y-113487200D01*
X92644000Y-102616000D02*
X92644000Y-103516000D01*
X92644000Y-103516000D02*
X92659200Y-103531200D01*
D41*
X101955600Y-106680000D02*
X104648000Y-103987600D01*
X104648000Y-103987600D02*
X104648000Y-101854000D01*
X101955600Y-116687600D02*
X101955600Y-106680000D01*
X102442000Y-117174000D02*
X101955600Y-116687600D01*
X103999000Y-117174000D02*
X102442000Y-117174000D01*
D40*
X107635000Y-100899000D02*
X106680000Y-101854000D01*
X106680000Y-101854000D02*
X104648000Y-101854000D01*
X109474000Y-100899000D02*
X107635000Y-100899000D01*
X107696000Y-94488000D02*
X107696000Y-99906000D01*
X107696000Y-99906000D02*
X105748000Y-101854000D01*
X105748000Y-101854000D02*
X104648000Y-101854000D01*
X106984800Y-87898000D02*
X106984800Y-92202000D01*
X110595200Y-85262600D02*
X109620200Y-85262600D01*
X109620200Y-85262600D02*
X106984800Y-87898000D01*
X111590400Y-85242400D02*
X112166400Y-85242400D01*
X110595200Y-85262600D02*
X111570200Y-85262600D01*
X111570200Y-85262600D02*
X111590400Y-85242400D01*
X108696000Y-80162400D02*
X108696000Y-78908400D01*
X108696000Y-78908400D02*
X108712000Y-78892400D01*
X112963200Y-79197200D02*
X114300000Y-79197200D01*
X107848400Y-83084400D02*
X107848400Y-82092800D01*
X104695200Y-85262600D02*
X105670200Y-85262600D01*
X105670200Y-85262600D02*
X107848400Y-83084400D01*
X112963200Y-79197200D02*
X112963200Y-77216800D01*
X112963200Y-77216800D02*
X112964000Y-77216000D01*
X103124000Y-76216000D02*
X103999000Y-76216000D01*
X103999000Y-76216000D02*
X104370600Y-75844400D01*
X104370600Y-75844400D02*
X111892400Y-75844400D01*
X111892400Y-75844400D02*
X112964000Y-76916000D01*
X112964000Y-76916000D02*
X112964000Y-77216000D01*
X103444000Y-99060000D02*
X103444000Y-99360000D01*
X103444000Y-99360000D02*
X104648000Y-100564000D01*
X104648000Y-100564000D02*
X104648000Y-101854000D01*
X96617000Y-77724000D02*
X99060000Y-77724000D01*
X99060000Y-77724000D02*
X100330000Y-76454000D01*
X95250000Y-78216000D02*
X96125000Y-78216000D01*
X96125000Y-78216000D02*
X96617000Y-77724000D01*
X103124000Y-76216000D02*
X100568000Y-76216000D01*
X100568000Y-76216000D02*
X100330000Y-76454000D01*
X98729802Y-94589600D02*
X96605650Y-94589600D01*
X96605650Y-94589600D02*
X96235570Y-94959680D01*
X99974400Y-90414199D02*
X101773399Y-90414199D01*
X98409401Y-90414199D02*
X99974400Y-90414199D01*
X99974400Y-90414199D02*
X99974400Y-93345002D01*
X99974400Y-93345002D02*
X98729802Y-94589600D01*
X95843600Y-91404400D02*
X97419200Y-91404400D01*
X97419200Y-91404400D02*
X98409401Y-90414199D01*
X101783200Y-90424000D02*
X102499200Y-89708000D01*
X101773399Y-90414199D02*
X101783200Y-90424000D01*
X102499200Y-89708000D02*
X102499200Y-89408000D01*
X121462800Y-94792800D02*
X121462800Y-95942800D01*
X121462800Y-95942800D02*
X120650000Y-96755600D01*
X120650000Y-96755600D02*
X120650000Y-100899000D01*
X101498400Y-87026000D02*
X101498400Y-86563200D01*
X102448400Y-87376000D02*
X101848400Y-87376000D01*
X101848400Y-87376000D02*
X101498400Y-87026000D01*
X106680000Y-83602800D02*
X106680000Y-82143600D01*
X104695200Y-84612600D02*
X105670200Y-84612600D01*
X105670200Y-84612600D02*
X106680000Y-83602800D01*
X111358200Y-80467200D02*
X111810800Y-80467200D01*
X110963200Y-79197200D02*
X110963200Y-80072200D01*
X110963200Y-80072200D02*
X111358200Y-80467200D01*
X108762800Y-97154800D02*
X108762800Y-96774000D01*
X109860000Y-98552000D02*
X109860000Y-98252000D01*
X109860000Y-98252000D02*
X108762800Y-97154800D01*
X114046000Y-98633000D02*
X114046000Y-98450400D01*
X115062000Y-100899000D02*
X115062000Y-99649000D01*
X115062000Y-99649000D02*
X114046000Y-98633000D01*
X96282000Y-99060000D02*
X96282000Y-101108000D01*
X96282000Y-101108000D02*
X97028000Y-101854000D01*
X95156000Y-85767000D02*
X95402400Y-86013400D01*
X95156000Y-85217000D02*
X95156000Y-85767000D01*
X92964000Y-78728000D02*
X92964000Y-78028800D01*
X92964000Y-79478000D02*
X92964000Y-78728000D01*
X111064000Y-79096400D02*
X110963200Y-79197200D01*
X120650000Y-100899000D02*
X120650000Y-102149000D01*
X120650000Y-102149000D02*
X120487800Y-102311200D01*
X120487800Y-102311200D02*
X115224200Y-102311200D01*
X115224200Y-102311200D02*
X115062000Y-102149000D01*
X115062000Y-102149000D02*
X115062000Y-100899000D01*
X120599200Y-100848200D02*
X120650000Y-100899000D01*
X96235570Y-94959680D02*
X96235570Y-96009680D01*
X106696000Y-80162400D02*
X106696000Y-77994000D01*
X106696000Y-77994000D02*
X105918000Y-77216000D01*
X105918000Y-77216000D02*
X103374000Y-77216000D01*
X103374000Y-77216000D02*
X103124000Y-77466000D01*
X103124000Y-77466000D02*
X103124000Y-78216000D01*
X96282000Y-99060000D02*
X96282000Y-96056110D01*
X96282000Y-96056110D02*
X96235570Y-96009680D01*
X97790000Y-76454000D02*
X95488000Y-76454000D01*
X95488000Y-76454000D02*
X95250000Y-76216000D01*
X90194000Y-90170000D02*
X90194000Y-91220000D01*
X90194000Y-91220000D02*
X90194000Y-95250000D01*
X86530000Y-102616000D02*
X86530000Y-98810000D01*
X86530000Y-98810000D02*
X87630000Y-97710000D01*
X90244000Y-97536000D02*
X89544000Y-97536000D01*
X89544000Y-97536000D02*
X89370000Y-97710000D01*
X89370000Y-97710000D02*
X87630000Y-97710000D01*
X90194000Y-95250000D02*
X90194000Y-97486000D01*
X90194000Y-97486000D02*
X90244000Y-97536000D01*
X90678000Y-79428000D02*
X92914000Y-79428000D01*
X92914000Y-79428000D02*
X92964000Y-79478000D01*
X103378000Y-96164400D02*
X105290350Y-96164400D01*
X105290350Y-96164400D02*
X105440430Y-96014320D01*
X101253704Y-96113600D02*
X101677968Y-96113600D01*
X101103400Y-96113600D02*
X101253704Y-96113600D01*
X98282000Y-98935000D02*
X101103400Y-96113600D01*
X98282000Y-99060000D02*
X98282000Y-98935000D01*
X108610400Y-91794350D02*
X108610400Y-86922400D01*
X108610400Y-86922400D02*
X109620200Y-85912600D01*
X109620200Y-85912600D02*
X110595200Y-85912600D01*
X105440430Y-96014320D02*
X105440430Y-94964320D01*
X105440430Y-94964320D02*
X108610400Y-91794350D01*
X105344000Y-99060000D02*
X105344000Y-96110750D01*
X105344000Y-96110750D02*
X105440430Y-96014320D01*
X93144000Y-87884000D02*
X93144000Y-86784000D01*
X93144000Y-86784000D02*
X93072789Y-86712789D01*
X93072789Y-86712789D02*
X93072789Y-85518789D01*
X93072789Y-85518789D02*
X90231000Y-82677000D01*
X90231000Y-82677000D02*
X89756000Y-82677000D01*
X93194000Y-90170000D02*
X93194000Y-87934000D01*
X93194000Y-87934000D02*
X93144000Y-87884000D01*
X92151200Y-85317200D02*
X92151200Y-93157200D01*
X92151200Y-93157200D02*
X93194000Y-94200000D01*
X93194000Y-94200000D02*
X93194000Y-95250000D01*
X89756000Y-83947000D02*
X90781000Y-83947000D01*
X90781000Y-83947000D02*
X92151200Y-85317200D01*
X93144000Y-97536000D02*
X93144000Y-95300000D01*
X93144000Y-95300000D02*
X93194000Y-95250000D01*
X90678000Y-76528000D02*
X92914000Y-76528000D01*
X92914000Y-76528000D02*
X92964000Y-76478000D01*
X87985600Y-81026000D02*
X87985600Y-83921600D01*
X87985600Y-83921600D02*
X89281000Y-85217000D01*
X89281000Y-85217000D02*
X89756000Y-85217000D01*
X88493600Y-80518000D02*
X87985600Y-81026000D01*
X89001600Y-80518000D02*
X88493600Y-80518000D01*
X89255600Y-80264000D02*
X89001600Y-80518000D01*
X89255600Y-78650400D02*
X89255600Y-80264000D01*
X90678000Y-76528000D02*
X90678000Y-77228000D01*
X90678000Y-77228000D02*
X89255600Y-78650400D01*
X87884000Y-76528000D02*
X90678000Y-76528000D01*
X121666000Y-121682000D02*
X120791000Y-121682000D01*
X120791000Y-121682000D02*
X120345200Y-122127800D01*
X120345200Y-122127800D02*
X120345200Y-123698000D01*
X119786400Y-124256800D02*
X111218800Y-124256800D01*
X120345200Y-123698000D02*
X119786400Y-124256800D01*
X111218800Y-124256800D02*
X110998000Y-124036000D01*
X110998000Y-124036000D02*
X110998000Y-122936000D01*
X120084400Y-119610000D02*
X120344000Y-119610000D01*
X120344000Y-119610000D02*
X121666000Y-120932000D01*
X121666000Y-120932000D02*
X121666000Y-121682000D01*
X121666000Y-121682000D02*
X123698000Y-121682000D01*
X122897900Y-118110000D02*
X124231400Y-118110000D01*
X114707200Y-114350800D02*
X114401600Y-114350800D01*
X115229600Y-112928400D02*
X115229600Y-113828400D01*
X115229600Y-113828400D02*
X114707200Y-114350800D01*
X112750600Y-114833400D02*
X113030000Y-114554000D01*
X111447600Y-114833400D02*
X112750600Y-114833400D01*
X119684800Y-112740400D02*
X119384800Y-112740400D01*
X119384800Y-112740400D02*
X118384000Y-113741200D01*
X122682000Y-119675900D02*
X122682000Y-120091200D01*
X122897900Y-118110000D02*
X122897900Y-119460000D01*
X122897900Y-119460000D02*
X122682000Y-119675900D01*
X121488200Y-118110000D02*
X120230900Y-118110000D01*
X122897900Y-118110000D02*
X121488200Y-118110000D01*
X121865200Y-122732800D02*
X122682000Y-122732800D01*
X121666000Y-123682000D02*
X121666000Y-122932000D01*
X121666000Y-122932000D02*
X121865200Y-122732800D01*
X115229600Y-113228400D02*
X115229600Y-112928400D01*
X111447600Y-114833400D02*
X111447600Y-114283400D01*
X111447600Y-114283400D02*
X112014000Y-113717000D01*
X112014000Y-113717000D02*
X112014000Y-111679000D01*
X112014000Y-111679000D02*
X112014000Y-110429000D01*
X111447600Y-114833400D02*
X110422600Y-114833400D01*
X110422600Y-114833400D02*
X110164800Y-115091200D01*
X110164800Y-115091200D02*
X110164800Y-119496000D01*
X110164800Y-119496000D02*
X110164800Y-120396000D01*
X121716800Y-112674400D02*
X119750800Y-112674400D01*
X119750800Y-112674400D02*
X119684800Y-112740400D01*
X123494800Y-112690400D02*
X121732800Y-112690400D01*
X121732800Y-112690400D02*
X121716800Y-112674400D01*
X121666000Y-123682000D02*
X123698000Y-123682000D01*
X111922600Y-116103400D02*
X115234800Y-119415600D01*
X115234800Y-119415600D02*
X115234800Y-119496000D01*
X111447600Y-116103400D02*
X111922600Y-116103400D01*
X115234800Y-119496000D02*
X115234800Y-120396000D01*
X116484400Y-120396000D02*
X116484400Y-122529600D01*
X116484400Y-122529600D02*
X116078000Y-122936000D01*
X115234800Y-120396000D02*
X116484400Y-120396000D01*
X90744000Y-102616000D02*
X88730000Y-102616000D01*
X113995200Y-85191600D02*
X115519200Y-86715600D01*
X115519200Y-86715600D02*
X115519200Y-87884000D01*
X113995200Y-81788000D02*
X113995200Y-85191600D01*
X113299402Y-81092202D02*
X113995200Y-81788000D01*
X111148200Y-81092202D02*
X113299402Y-81092202D01*
X109778800Y-79722802D02*
X111148200Y-81092202D01*
X109778800Y-78536800D02*
X109778800Y-79722802D01*
X108458000Y-77216000D02*
X109778800Y-78536800D01*
X110595200Y-87862600D02*
X110616600Y-87884000D01*
X110616600Y-87884000D02*
X112318800Y-87884000D01*
X111064000Y-77216000D02*
X108458000Y-77216000D01*
X105918000Y-88174802D02*
X104190800Y-89902002D01*
X102752999Y-97602201D02*
X102108000Y-98247200D01*
X104190800Y-94426598D02*
X102752999Y-95864399D01*
X102108000Y-100651919D02*
X102108000Y-101854000D01*
X102752999Y-95864399D02*
X102752999Y-97602201D01*
X105918000Y-87460400D02*
X105918000Y-88174802D01*
X104695200Y-87212600D02*
X105670200Y-87212600D01*
X104190800Y-89902002D02*
X104190800Y-94426598D01*
X105670200Y-87212600D02*
X105918000Y-87460400D01*
X102108000Y-98247200D02*
X102108000Y-100651919D01*
X102302988Y-97341012D02*
X99568000Y-100076000D01*
X99568000Y-100651919D02*
X99568000Y-101854000D01*
X103682800Y-89350000D02*
X103682800Y-94298187D01*
X99568000Y-100076000D02*
X99568000Y-100651919D01*
X104695200Y-88337600D02*
X103682800Y-89350000D01*
X102302988Y-95677999D02*
X102302988Y-97341012D01*
X104695200Y-87862600D02*
X104695200Y-88337600D01*
X103682800Y-94298187D02*
X102302988Y-95677999D01*
D42*
X80010000Y-89074000D02*
X80010000Y-96012000D01*
D40*
X75539600Y-96570800D02*
X76098400Y-96012000D01*
X76098400Y-96012000D02*
X80010000Y-96012000D01*
X75539600Y-103530400D02*
X75539600Y-96570800D01*
X75999001Y-103989801D02*
X75539600Y-103530400D01*
X76849000Y-106944000D02*
X75999001Y-106094001D01*
X75999001Y-106094001D02*
X75999001Y-103989801D01*
X75438000Y-87884000D02*
X76628000Y-89074000D01*
X76628000Y-89074000D02*
X80010000Y-89074000D01*
X75438000Y-81398000D02*
X75438000Y-87884000D01*
X76708000Y-79428000D02*
X76708000Y-80128000D01*
X76708000Y-80128000D02*
X75438000Y-81398000D01*
X90244000Y-87884000D02*
X87804000Y-87884000D01*
X87804000Y-87884000D02*
X87630000Y-87710000D01*
X111447600Y-117373400D02*
X112472600Y-117373400D01*
X112472600Y-117373400D02*
X113334800Y-118235600D01*
X113334800Y-118235600D02*
X113334800Y-119496000D01*
X113334800Y-119496000D02*
X113334800Y-120396000D01*
X113334800Y-120396000D02*
X113334800Y-122732800D01*
X113334800Y-122732800D02*
X113538000Y-122936000D01*
X113334800Y-120396000D02*
X112064800Y-120396000D01*
X94386400Y-94132400D02*
X94386400Y-112641400D01*
X91998800Y-81381600D02*
X89781400Y-81381600D01*
X89781400Y-81381600D02*
X89756000Y-81407000D01*
X95250000Y-88392000D02*
X95250000Y-87609600D01*
X95250000Y-87609600D02*
X95148400Y-87508000D01*
X103999000Y-122254000D02*
X94386400Y-112641400D01*
X97144800Y-93304400D02*
X97586800Y-92862400D01*
X97586800Y-92862400D02*
X98872000Y-92862400D01*
X95843600Y-93304400D02*
X97144800Y-93304400D01*
X93843600Y-92354400D02*
X93843600Y-91704400D01*
X93843600Y-91704400D02*
X95148400Y-90399600D01*
X95148400Y-90399600D02*
X95148400Y-90203200D01*
X95148400Y-89408000D02*
X95148400Y-90203200D01*
X94081600Y-86563200D02*
X94081600Y-88641200D01*
X94081600Y-88641200D02*
X94848400Y-89408000D01*
X94848400Y-89408000D02*
X95148400Y-89408000D01*
X93573600Y-86055200D02*
X94081600Y-86563200D01*
X93573600Y-82514400D02*
X93573600Y-86055200D01*
X95156000Y-81407000D02*
X94681000Y-81407000D01*
X94681000Y-81407000D02*
X93573600Y-82514400D01*
X76708000Y-76528000D02*
X77808000Y-76528000D01*
X77808000Y-76528000D02*
X79502000Y-76528000D01*
X79502000Y-79428000D02*
X80602000Y-79428000D01*
X80602000Y-79428000D02*
X82296000Y-79428000D01*
X82296000Y-76528000D02*
X83396000Y-76528000D01*
X83396000Y-76528000D02*
X85090000Y-76528000D01*
X85090000Y-79428000D02*
X86190000Y-79428000D01*
X86190000Y-79428000D02*
X87884000Y-79428000D01*
X103378000Y-88087200D02*
X103378000Y-86904800D01*
X103378000Y-86904800D02*
X103720200Y-86562600D01*
X103720200Y-86562600D02*
X104695200Y-86562600D01*
X103073200Y-88392000D02*
X103378000Y-88087200D01*
X101650800Y-88392000D02*
X103073200Y-88392000D01*
X101498400Y-88239600D02*
X101650800Y-88392000D01*
X101498400Y-87726000D02*
X101498400Y-88239600D01*
X100548400Y-87376000D02*
X101148400Y-87376000D01*
X101148400Y-87376000D02*
X101498400Y-87726000D01*
X99248000Y-87376000D02*
X100548400Y-87376000D01*
X96570800Y-83616800D02*
X96570800Y-85698800D01*
X97348000Y-86476000D02*
X97348000Y-87376000D01*
X96570800Y-85698800D02*
X97348000Y-86476000D01*
X95156000Y-82677000D02*
X95631000Y-82677000D01*
X95631000Y-82677000D02*
X96570800Y-83616800D01*
X98348800Y-89108800D02*
X98348800Y-86690198D01*
X103720200Y-85912600D02*
X104695200Y-85912600D01*
X98348800Y-86690198D02*
X99126398Y-85912600D01*
X99126398Y-85912600D02*
X103720200Y-85912600D01*
X99248000Y-89408000D02*
X98648000Y-89408000D01*
X98648000Y-89408000D02*
X98348800Y-89108800D01*
X100599200Y-89408000D02*
X99248000Y-89408000D01*
X96418400Y-88178400D02*
X97348000Y-89108000D01*
X96418400Y-86715600D02*
X96418400Y-88178400D01*
X96360411Y-86657611D02*
X96418400Y-86715600D01*
X95012800Y-86657611D02*
X96360411Y-86657611D01*
X94023611Y-85668422D02*
X95012800Y-86657611D01*
X94023611Y-84604389D02*
X94023611Y-85668422D01*
X94681000Y-83947000D02*
X94023611Y-84604389D01*
X95156000Y-83947000D02*
X94681000Y-83947000D01*
X97348000Y-89108000D02*
X97348000Y-89408000D01*
X100772000Y-92862400D02*
X102412800Y-92862400D01*
X102412800Y-92862400D02*
X102514400Y-92964000D01*
X102499200Y-92948800D02*
X102514400Y-92964000D01*
X105156000Y-89814400D02*
X105156000Y-92964000D01*
X106375200Y-88595200D02*
X105156000Y-89814400D01*
X106375200Y-87857600D02*
X106375200Y-88595200D01*
X110595200Y-84612600D02*
X109620200Y-84612600D01*
X109620200Y-84612600D02*
X106375200Y-87857600D01*
X123190000Y-100634800D02*
X124140000Y-99684800D01*
X124140000Y-99684800D02*
X124140000Y-98552000D01*
X123190000Y-100899000D02*
X123190000Y-100634800D01*
X114655600Y-87223600D02*
X114655600Y-90017600D01*
X116535200Y-91897200D02*
X122123200Y-91897200D01*
X122123200Y-91897200D02*
X123393200Y-93167200D01*
X114655600Y-90017600D02*
X116535200Y-91897200D01*
X122240000Y-97652000D02*
X122240000Y-98552000D01*
X123393200Y-93167200D02*
X123393200Y-96498800D01*
X123393200Y-96498800D02*
X122240000Y-97652000D01*
X110595200Y-87212600D02*
X111812360Y-87212600D01*
X111812360Y-87212600D02*
X111841631Y-87241871D01*
X118364000Y-112572800D02*
X118008400Y-112928400D01*
X118008400Y-112928400D02*
X117129600Y-112928400D01*
X118364000Y-112268000D02*
X118364000Y-112572800D01*
X118719600Y-111912400D02*
X118364000Y-112268000D01*
X119276600Y-111912400D02*
X118719600Y-111912400D01*
X120650000Y-110539000D02*
X119276600Y-111912400D01*
X115163600Y-115671600D02*
X115595400Y-116103400D01*
X115595400Y-116103400D02*
X116847600Y-116103400D01*
X115163600Y-114604800D02*
X115163600Y-115671600D01*
X115722400Y-114046000D02*
X115163600Y-114604800D01*
X116312000Y-114046000D02*
X115722400Y-114046000D01*
X117129600Y-112928400D02*
X117129600Y-113228400D01*
X117129600Y-113228400D02*
X116312000Y-114046000D01*
X120650000Y-110429000D02*
X120650000Y-110539000D01*
X116847600Y-116103400D02*
X116847600Y-116535200D01*
X116847600Y-117373400D02*
X116847600Y-116103400D01*
X117602000Y-100899000D02*
X117602000Y-98994000D01*
X117602000Y-98994000D02*
X118044000Y-98552000D01*
X113370180Y-83767418D02*
X113370180Y-83343154D01*
X113378411Y-87382198D02*
X113378411Y-83775649D01*
X113393812Y-87397599D02*
X113378411Y-87382198D01*
X113393812Y-88370401D02*
X113393812Y-87397599D01*
X113378411Y-95486411D02*
X113378411Y-88385802D01*
X116144000Y-98252000D02*
X113378411Y-95486411D01*
X113378411Y-88385802D02*
X113393812Y-88370401D01*
X116144000Y-98552000D02*
X116144000Y-98252000D01*
X113378411Y-83775649D02*
X113370180Y-83767418D01*
X110595200Y-83312600D02*
X111962600Y-83312600D01*
X111962600Y-83312600D02*
X111963200Y-83312000D01*
X118313200Y-115874800D02*
X118450400Y-115874800D01*
X118450400Y-115874800D02*
X119684800Y-114640400D01*
X114096800Y-111658400D02*
X114096800Y-112572800D01*
X115062000Y-110693200D02*
X114096800Y-111658400D01*
X115062000Y-110429000D02*
X115062000Y-110693200D01*
X119684800Y-114640400D02*
X118784800Y-114640400D01*
X118784800Y-114640400D02*
X118591800Y-114833400D01*
X118591800Y-114833400D02*
X116847600Y-114833400D01*
X116939000Y-114742000D02*
X116847600Y-114833400D01*
X116372600Y-118643400D02*
X116847600Y-118643400D01*
X113665600Y-115936400D02*
X116372600Y-118643400D01*
X113665600Y-113828400D02*
X113665600Y-115936400D01*
X113065600Y-112928400D02*
X113065600Y-113228400D01*
X113065600Y-113228400D02*
X113665600Y-113828400D01*
X109474000Y-110429000D02*
X109474000Y-112623600D01*
X109778800Y-112928400D02*
X111165600Y-112928400D01*
X109474000Y-112623600D02*
X109778800Y-112928400D01*
X112943801Y-88184001D02*
X112943801Y-87583999D01*
X111570200Y-82662600D02*
X110595200Y-82662600D01*
X112364626Y-82662600D02*
X111570200Y-82662600D01*
X112928400Y-83996387D02*
X112745179Y-83813166D01*
X112928400Y-87568598D02*
X112928400Y-83996387D01*
X111760000Y-89367802D02*
X112943801Y-88184001D01*
X112745179Y-83043153D02*
X112364626Y-82662600D01*
X112943801Y-87583999D02*
X112928400Y-87568598D01*
X112745179Y-83813166D02*
X112745179Y-83043153D01*
X111760000Y-98552000D02*
X111760000Y-89367802D01*
X111760000Y-98552000D02*
X111760000Y-100645000D01*
X111760000Y-100645000D02*
X112014000Y-100899000D01*
X107781600Y-85801200D02*
X106172000Y-85801200D01*
X110595200Y-83962600D02*
X109620200Y-83962600D01*
X109620200Y-83962600D02*
X107781600Y-85801200D01*
X110595200Y-82012600D02*
X109393800Y-82012600D01*
X109393800Y-82012600D02*
X108712000Y-81330800D01*
X102666800Y-81330800D02*
X102448401Y-81112401D01*
X108712000Y-81330800D02*
X102666800Y-81330800D01*
X102448401Y-81112401D02*
X100330000Y-78994000D01*
X100838000Y-80264000D02*
X102586600Y-82012600D01*
X102586600Y-82012600D02*
X104695200Y-82012600D01*
X99060000Y-80264000D02*
X100838000Y-80264000D01*
X97790000Y-81534000D02*
X99060000Y-80264000D01*
X102209600Y-82854800D02*
X102401800Y-82662600D01*
X102401800Y-82662600D02*
X104695200Y-82662600D01*
X99009200Y-82854800D02*
X102209600Y-82854800D01*
X97790000Y-84074000D02*
X99009200Y-82854800D01*
X104695200Y-83312600D02*
X102870600Y-83312600D01*
X102870600Y-83312600D02*
X102870000Y-83312000D01*
X104695200Y-83962600D02*
X103184600Y-83962600D01*
X103184600Y-83962600D02*
X102819200Y-84328000D01*
X118338600Y-118643400D02*
X118338600Y-117355800D01*
X118338600Y-117355800D02*
X119084400Y-116610000D01*
X119084400Y-116610000D02*
X120084400Y-116610000D01*
X118384400Y-119496000D02*
X118338600Y-119450200D01*
X118338600Y-119450200D02*
X118338600Y-118643400D01*
X111447600Y-118643400D02*
X112699800Y-118643400D01*
X117602000Y-110429000D02*
X117602000Y-109179000D01*
X123190000Y-109179000D02*
X123190000Y-110429000D01*
X117602000Y-109179000D02*
X117677001Y-109103999D01*
X117677001Y-109103999D02*
X123114999Y-109103999D01*
X123114999Y-109103999D02*
X123190000Y-109179000D01*
X124510800Y-110540800D02*
X124399000Y-110429000D01*
X124399000Y-110429000D02*
X123190000Y-110429000D01*
X124510800Y-114549400D02*
X124510800Y-110540800D01*
X123494800Y-114690400D02*
X124369800Y-114690400D01*
X124369800Y-114690400D02*
X124510800Y-114549400D01*
X121716800Y-114674400D02*
X121591800Y-114674400D01*
X120084400Y-116181800D02*
X120084400Y-116610000D01*
X121591800Y-114674400D02*
X120084400Y-116181800D01*
X123494800Y-114690400D02*
X121732800Y-114690400D01*
X121732800Y-114690400D02*
X121716800Y-114674400D01*
X118384400Y-119496000D02*
X118384400Y-120396000D01*
X116738400Y-94996000D02*
X118719600Y-94996000D01*
X118719600Y-94996000D02*
X118922800Y-94792800D01*
X118348400Y-94996000D02*
X118399200Y-94945200D01*
X112246120Y-86562600D02*
X112252996Y-86555724D01*
X110595200Y-86562600D02*
X112246120Y-86562600D01*
X114003431Y-86987464D02*
X114003431Y-86563200D01*
X114838400Y-94096000D02*
X114003431Y-93261031D01*
X114838400Y-94996000D02*
X114838400Y-94096000D01*
X114003431Y-93261031D02*
X114003431Y-86987464D01*
M02*
