%FSLAX45Y45*%
G04 Gerber Fmt 4.5, Leading zero omitted, Abs format (unit mm)*
G04 Created by KiCad (PCBNEW 4.0.2-stable) date 5/28/2017 8:04:07 PM*
%MOMM*%
G01*
G04 APERTURE LIST*
%ADD10C,0.127000*%
%ADD11C,0.150000*%
%ADD12C,0.200000*%
%ADD13C,0.300000*%
G04 APERTURE END LIST*
D10*
D11*
X7500000Y-7500000D02*
X12500000Y-7500000D01*
X7500000Y-12500000D02*
X12500000Y-12500000D01*
X12500000Y-7500000D02*
X12500000Y-12500000D01*
X7500000Y-7500000D02*
X7500000Y-12500000D01*
D12*
X9179880Y-8118160D02*
X9219880Y-8158160D01*
X9219880Y-8118160D02*
X9179880Y-8158160D01*
X9276400Y-7782880D02*
X9316400Y-7822880D01*
X9316400Y-7782880D02*
X9276400Y-7822880D01*
X9418640Y-9393240D02*
X9458640Y-9433240D01*
X9458640Y-9393240D02*
X9418640Y-9433240D01*
X9505000Y-8819200D02*
X9545000Y-8859200D01*
X9545000Y-8819200D02*
X9505000Y-8859200D01*
X9520240Y-8581340D02*
X9560240Y-8621340D01*
X9560240Y-8581340D02*
X9520240Y-8621340D01*
X9784400Y-11719880D02*
X9824400Y-11759880D01*
X9824400Y-11719880D02*
X9784400Y-11759880D01*
X10129840Y-8636320D02*
X10169840Y-8676320D01*
X10169840Y-8636320D02*
X10129840Y-8676320D01*
X10147797Y-9591360D02*
X10187797Y-9631360D01*
X10187797Y-9591360D02*
X10147797Y-9631360D01*
X10231440Y-9276400D02*
X10271440Y-9316400D01*
X10271440Y-9276400D02*
X10231440Y-9316400D01*
X10261920Y-8412800D02*
X10301920Y-8452800D01*
X10301920Y-8412800D02*
X10261920Y-8452800D01*
X10267000Y-8311200D02*
X10307000Y-8351200D01*
X10307000Y-8311200D02*
X10267000Y-8351200D01*
X10317800Y-9596440D02*
X10357800Y-9636440D01*
X10357800Y-9596440D02*
X10317800Y-9636440D01*
X10495600Y-9276400D02*
X10535600Y-9316400D01*
X10535600Y-9276400D02*
X10495600Y-9316400D01*
X10597200Y-8560120D02*
X10637200Y-8600120D01*
X10637200Y-8560120D02*
X10597200Y-8600120D01*
X10648000Y-8194360D02*
X10688000Y-8234360D01*
X10688000Y-8194360D02*
X10648000Y-8234360D01*
X10678480Y-9200200D02*
X10718480Y-9240200D01*
X10718480Y-9200200D02*
X10678480Y-9240200D01*
X10749600Y-9428800D02*
X10789600Y-9468800D01*
X10789600Y-9428800D02*
X10749600Y-9468800D01*
X10764840Y-8189280D02*
X10804840Y-8229280D01*
X10804840Y-8189280D02*
X10764840Y-8229280D01*
X10851200Y-7869240D02*
X10891200Y-7909240D01*
X10891200Y-7869240D02*
X10851200Y-7909240D01*
X10856280Y-9657400D02*
X10896280Y-9697400D01*
X10896280Y-9657400D02*
X10856280Y-9697400D01*
X11161080Y-8026720D02*
X11201080Y-8066720D01*
X11201080Y-8026720D02*
X11161080Y-8066720D01*
X11164163Y-8704187D02*
X11204163Y-8744187D01*
X11204163Y-8704187D02*
X11164163Y-8744187D01*
X11176320Y-8311200D02*
X11216320Y-8351200D01*
X11216320Y-8311200D02*
X11176320Y-8351200D01*
X11196640Y-8504240D02*
X11236640Y-8544240D01*
X11236640Y-8504240D02*
X11196640Y-8544240D01*
X11205300Y-8635572D02*
X11245300Y-8675572D01*
X11245300Y-8635572D02*
X11205300Y-8675572D01*
X11211880Y-8768400D02*
X11251880Y-8808400D01*
X11251880Y-8768400D02*
X11211880Y-8808400D01*
X11249980Y-11844340D02*
X11289980Y-11884340D01*
X11289980Y-11844340D02*
X11249980Y-11884340D01*
X11283000Y-11435400D02*
X11323000Y-11475400D01*
X11323000Y-11435400D02*
X11283000Y-11475400D01*
X11317018Y-8314315D02*
X11357018Y-8354315D01*
X11357018Y-8314315D02*
X11317018Y-8354315D01*
X11380343Y-8636320D02*
X11420343Y-8676320D01*
X11420343Y-8636320D02*
X11380343Y-8676320D01*
X11384600Y-9825040D02*
X11424600Y-9865040D01*
X11424600Y-9825040D02*
X11384600Y-9865040D01*
X11389680Y-11237280D02*
X11429680Y-11277280D01*
X11429680Y-11237280D02*
X11389680Y-11277280D01*
X11410000Y-7899720D02*
X11450000Y-7939720D01*
X11450000Y-7899720D02*
X11410000Y-7939720D01*
X11420160Y-11415080D02*
X11460160Y-11455080D01*
X11460160Y-11415080D02*
X11420160Y-11455080D01*
X11445560Y-8702360D02*
X11485560Y-8742360D01*
X11485560Y-8702360D02*
X11445560Y-8742360D01*
X11531920Y-8768400D02*
X11571920Y-8808400D01*
X11571920Y-8768400D02*
X11531920Y-8808400D01*
X11811320Y-11567480D02*
X11851320Y-11607480D01*
X11851320Y-11567480D02*
X11811320Y-11607480D01*
X11813860Y-11844340D02*
X11853860Y-11884340D01*
X11853860Y-11844340D02*
X11813860Y-11884340D01*
X11818400Y-11354120D02*
X11858400Y-11394120D01*
X11858400Y-11354120D02*
X11818400Y-11394120D01*
X12248200Y-11989120D02*
X12288200Y-12029120D01*
X12288200Y-11989120D02*
X12248200Y-12029120D01*
X12248200Y-12253280D02*
X12288200Y-12293280D01*
X12288200Y-12253280D02*
X12248200Y-12293280D01*
X11937280Y-9479280D02*
G75*
G03X11937280Y-9479280I-45000J0D01*
G01*
X12191280Y-9479280D02*
G75*
G03X12191280Y-9479280I-45000J0D01*
G01*
X7684900Y-10644400D02*
X7684900Y-10744400D01*
X7634900Y-10694400D02*
X7734900Y-10694400D01*
X7684900Y-11152400D02*
X7684900Y-11252400D01*
X7634900Y-11202400D02*
X7734900Y-11202400D01*
X9702800Y-10135400D02*
X9702800Y-10235400D01*
X9652800Y-10185400D02*
X9752800Y-10185400D01*
X9956800Y-10135400D02*
X9956800Y-10235400D01*
X9906800Y-10185400D02*
X10006800Y-10185400D01*
X10210800Y-10135400D02*
X10210800Y-10235400D01*
X10160800Y-10185400D02*
X10260800Y-10185400D01*
X10399900Y-11159400D02*
X10399900Y-11259400D01*
X10349900Y-11209400D02*
X10449900Y-11209400D01*
X10399900Y-11667400D02*
X10399900Y-11767400D01*
X10349900Y-11717400D02*
X10449900Y-11717400D01*
X10399900Y-12175400D02*
X10399900Y-12275400D01*
X10349900Y-12225400D02*
X10449900Y-12225400D01*
X10464800Y-10135400D02*
X10464800Y-10235400D01*
X10414800Y-10185400D02*
X10514800Y-10185400D01*
X10591800Y-7671600D02*
X10591800Y-7771600D01*
X10541800Y-7721600D02*
X10641800Y-7721600D01*
X10845800Y-7671600D02*
X10845800Y-7771600D01*
X10795800Y-7721600D02*
X10895800Y-7721600D01*
X11099800Y-12243600D02*
X11099800Y-12343600D01*
X11049800Y-12293600D02*
X11149800Y-12293600D01*
X11353800Y-12243600D02*
X11353800Y-12343600D01*
X11303800Y-12293600D02*
X11403800Y-12293600D01*
X11607800Y-12243600D02*
X11607800Y-12343600D01*
X11557800Y-12293600D02*
X11657800Y-12293600D01*
X11861800Y-12243600D02*
X11861800Y-12343600D01*
X11811800Y-12293600D02*
X11911800Y-12293600D01*
X9814921Y-7681321D02*
X9814921Y-7609479D01*
X9743079Y-7609479D01*
X9743079Y-7681321D01*
X9814921Y-7681321D01*
X9814921Y-7935321D02*
X9814921Y-7863479D01*
X9743079Y-7863479D01*
X9743079Y-7935321D01*
X9814921Y-7935321D01*
X9814921Y-8189321D02*
X9814921Y-8117479D01*
X9743079Y-8117479D01*
X9743079Y-8189321D01*
X9814921Y-8189321D01*
X9814921Y-8443321D02*
X9814921Y-8371479D01*
X9743079Y-8371479D01*
X9743079Y-8443321D01*
X9814921Y-8443321D01*
X10068921Y-7681321D02*
X10068921Y-7609479D01*
X9997079Y-7609479D01*
X9997079Y-7681321D01*
X10068921Y-7681321D01*
X10068921Y-7935321D02*
X10068921Y-7863479D01*
X9997079Y-7863479D01*
X9997079Y-7935321D01*
X10068921Y-7935321D01*
X10068921Y-8189321D02*
X10068921Y-8117479D01*
X9997079Y-8117479D01*
X9997079Y-8189321D01*
X10068921Y-8189321D01*
X10068921Y-8443321D02*
X10068921Y-8371479D01*
X9997079Y-8371479D01*
X9997079Y-8443321D01*
X10068921Y-8443321D01*
X8001000Y-8472400D02*
X8066000Y-8407400D01*
X8001000Y-8342400D01*
X7936000Y-8407400D01*
X8001000Y-8472400D01*
X8001000Y-8972400D02*
X8066000Y-8907400D01*
X8001000Y-8842400D01*
X7936000Y-8907400D01*
X8001000Y-8972400D01*
X8001000Y-9666200D02*
X8066000Y-9601200D01*
X8001000Y-9536200D01*
X7936000Y-9601200D01*
X8001000Y-9666200D01*
X8001000Y-10166200D02*
X8066000Y-10101200D01*
X8001000Y-10036200D01*
X7936000Y-10101200D01*
X8001000Y-10166200D01*
X8653000Y-8661000D02*
X8873000Y-8881000D01*
X8873000Y-8661000D02*
X8653000Y-8881000D01*
X8873000Y-8771000D02*
G75*
G03X8873000Y-8771000I-110000J0D01*
G01*
X8653000Y-9661000D02*
X8873000Y-9881000D01*
X8873000Y-9661000D02*
X8653000Y-9881000D01*
X8873000Y-9771000D02*
G75*
G03X8873000Y-9771000I-110000J0D01*
G01*
D13*
X7763928Y-12973214D02*
X7763928Y-12673214D01*
X7835357Y-12673214D01*
X7878214Y-12687500D01*
X7906786Y-12716071D01*
X7921071Y-12744643D01*
X7935357Y-12801786D01*
X7935357Y-12844643D01*
X7921071Y-12901786D01*
X7906786Y-12930357D01*
X7878214Y-12958929D01*
X7835357Y-12973214D01*
X7763928Y-12973214D01*
X8063928Y-12973214D02*
X8063928Y-12773214D01*
X8063928Y-12830357D02*
X8078214Y-12801786D01*
X8092500Y-12787500D01*
X8121071Y-12773214D01*
X8149643Y-12773214D01*
X8249643Y-12973214D02*
X8249643Y-12773214D01*
X8249643Y-12673214D02*
X8235357Y-12687500D01*
X8249643Y-12701786D01*
X8263928Y-12687500D01*
X8249643Y-12673214D01*
X8249643Y-12701786D01*
X8435357Y-12973214D02*
X8406786Y-12958929D01*
X8392500Y-12930357D01*
X8392500Y-12673214D01*
X8592500Y-12973214D02*
X8563929Y-12958929D01*
X8549643Y-12930357D01*
X8549643Y-12673214D01*
X8935357Y-12973214D02*
X8935357Y-12673214D01*
X9035357Y-12887500D01*
X9135357Y-12673214D01*
X9135357Y-12973214D01*
X9406786Y-12973214D02*
X9406786Y-12816071D01*
X9392500Y-12787500D01*
X9363929Y-12773214D01*
X9306786Y-12773214D01*
X9278214Y-12787500D01*
X9406786Y-12958929D02*
X9378214Y-12973214D01*
X9306786Y-12973214D01*
X9278214Y-12958929D01*
X9263929Y-12930357D01*
X9263929Y-12901786D01*
X9278214Y-12873214D01*
X9306786Y-12858929D01*
X9378214Y-12858929D01*
X9406786Y-12844643D01*
X9549643Y-12773214D02*
X9549643Y-13073214D01*
X9549643Y-12787500D02*
X9578214Y-12773214D01*
X9635357Y-12773214D01*
X9663929Y-12787500D01*
X9678214Y-12801786D01*
X9692500Y-12830357D01*
X9692500Y-12916071D01*
X9678214Y-12944643D01*
X9663929Y-12958929D01*
X9635357Y-12973214D01*
X9578214Y-12973214D01*
X9549643Y-12958929D01*
X9821071Y-12944643D02*
X9835357Y-12958929D01*
X9821071Y-12973214D01*
X9806786Y-12958929D01*
X9821071Y-12944643D01*
X9821071Y-12973214D01*
X9821071Y-12787500D02*
X9835357Y-12801786D01*
X9821071Y-12816071D01*
X9806786Y-12801786D01*
X9821071Y-12787500D01*
X9821071Y-12816071D01*
X7452500Y-13447500D02*
X7492500Y-13487500D01*
X7492500Y-13447500D02*
X7452500Y-13487500D01*
X7821071Y-13303214D02*
X7849643Y-13303214D01*
X7878214Y-13317500D01*
X7892500Y-13331786D01*
X7906786Y-13360357D01*
X7921071Y-13417500D01*
X7921071Y-13488929D01*
X7906786Y-13546071D01*
X7892500Y-13574643D01*
X7878214Y-13588929D01*
X7849643Y-13603214D01*
X7821071Y-13603214D01*
X7792500Y-13588929D01*
X7778214Y-13574643D01*
X7763928Y-13546071D01*
X7749643Y-13488929D01*
X7749643Y-13417500D01*
X7763928Y-13360357D01*
X7778214Y-13331786D01*
X7792500Y-13317500D01*
X7821071Y-13303214D01*
X8049643Y-13574643D02*
X8063928Y-13588929D01*
X8049643Y-13603214D01*
X8035357Y-13588929D01*
X8049643Y-13574643D01*
X8049643Y-13603214D01*
X8321071Y-13403214D02*
X8321071Y-13603214D01*
X8249643Y-13288929D02*
X8178214Y-13503214D01*
X8363928Y-13503214D01*
X8535357Y-13303214D02*
X8563929Y-13303214D01*
X8592500Y-13317500D01*
X8606786Y-13331786D01*
X8621071Y-13360357D01*
X8635357Y-13417500D01*
X8635357Y-13488929D01*
X8621071Y-13546071D01*
X8606786Y-13574643D01*
X8592500Y-13588929D01*
X8563929Y-13603214D01*
X8535357Y-13603214D01*
X8506786Y-13588929D01*
X8492500Y-13574643D01*
X8478214Y-13546071D01*
X8463929Y-13488929D01*
X8463929Y-13417500D01*
X8478214Y-13360357D01*
X8492500Y-13331786D01*
X8506786Y-13317500D01*
X8535357Y-13303214D01*
X8763929Y-13603214D02*
X8763929Y-13403214D01*
X8763929Y-13431786D02*
X8778214Y-13417500D01*
X8806786Y-13403214D01*
X8849643Y-13403214D01*
X8878214Y-13417500D01*
X8892500Y-13446071D01*
X8892500Y-13603214D01*
X8892500Y-13446071D02*
X8906786Y-13417500D01*
X8935357Y-13403214D01*
X8978214Y-13403214D01*
X9006786Y-13417500D01*
X9021071Y-13446071D01*
X9021071Y-13603214D01*
X9163929Y-13603214D02*
X9163929Y-13403214D01*
X9163929Y-13431786D02*
X9178214Y-13417500D01*
X9206786Y-13403214D01*
X9249643Y-13403214D01*
X9278214Y-13417500D01*
X9292500Y-13446071D01*
X9292500Y-13603214D01*
X9292500Y-13446071D02*
X9306786Y-13417500D01*
X9335357Y-13403214D01*
X9378214Y-13403214D01*
X9406786Y-13417500D01*
X9421071Y-13446071D01*
X9421071Y-13603214D01*
X10006786Y-13288929D02*
X9749643Y-13674643D01*
X10392500Y-13303214D02*
X10421071Y-13303214D01*
X10449643Y-13317500D01*
X10463928Y-13331786D01*
X10478214Y-13360357D01*
X10492500Y-13417500D01*
X10492500Y-13488929D01*
X10478214Y-13546071D01*
X10463928Y-13574643D01*
X10449643Y-13588929D01*
X10421071Y-13603214D01*
X10392500Y-13603214D01*
X10363928Y-13588929D01*
X10349643Y-13574643D01*
X10335357Y-13546071D01*
X10321071Y-13488929D01*
X10321071Y-13417500D01*
X10335357Y-13360357D01*
X10349643Y-13331786D01*
X10363928Y-13317500D01*
X10392500Y-13303214D01*
X10621071Y-13574643D02*
X10635357Y-13588929D01*
X10621071Y-13603214D01*
X10606786Y-13588929D01*
X10621071Y-13574643D01*
X10621071Y-13603214D01*
X10821071Y-13303214D02*
X10849643Y-13303214D01*
X10878214Y-13317500D01*
X10892500Y-13331786D01*
X10906786Y-13360357D01*
X10921071Y-13417500D01*
X10921071Y-13488929D01*
X10906786Y-13546071D01*
X10892500Y-13574643D01*
X10878214Y-13588929D01*
X10849643Y-13603214D01*
X10821071Y-13603214D01*
X10792500Y-13588929D01*
X10778214Y-13574643D01*
X10763928Y-13546071D01*
X10749643Y-13488929D01*
X10749643Y-13417500D01*
X10763928Y-13360357D01*
X10778214Y-13331786D01*
X10792500Y-13317500D01*
X10821071Y-13303214D01*
X11206785Y-13603214D02*
X11035357Y-13603214D01*
X11121071Y-13603214D02*
X11121071Y-13303214D01*
X11092500Y-13346071D01*
X11063928Y-13374643D01*
X11035357Y-13388929D01*
X11463928Y-13303214D02*
X11406785Y-13303214D01*
X11378214Y-13317500D01*
X11363928Y-13331786D01*
X11335357Y-13374643D01*
X11321071Y-13431786D01*
X11321071Y-13546071D01*
X11335357Y-13574643D01*
X11349643Y-13588929D01*
X11378214Y-13603214D01*
X11435357Y-13603214D01*
X11463928Y-13588929D01*
X11478214Y-13574643D01*
X11492500Y-13546071D01*
X11492500Y-13474643D01*
X11478214Y-13446071D01*
X11463928Y-13431786D01*
X11435357Y-13417500D01*
X11378214Y-13417500D01*
X11349643Y-13431786D01*
X11335357Y-13446071D01*
X11321071Y-13474643D01*
X11606786Y-13303214D02*
X11606786Y-13360357D01*
X11721071Y-13303214D02*
X11721071Y-13360357D01*
X12163928Y-13717500D02*
X12149643Y-13703214D01*
X12121071Y-13660357D01*
X12106785Y-13631786D01*
X12092500Y-13588929D01*
X12078214Y-13517500D01*
X12078214Y-13460357D01*
X12092500Y-13388929D01*
X12106785Y-13346071D01*
X12121071Y-13317500D01*
X12149643Y-13274643D01*
X12163928Y-13260357D01*
X12406785Y-13403214D02*
X12406785Y-13603214D01*
X12335357Y-13288929D02*
X12263928Y-13503214D01*
X12449643Y-13503214D01*
X12721071Y-13603214D02*
X12549643Y-13603214D01*
X12635357Y-13603214D02*
X12635357Y-13303214D01*
X12606785Y-13346071D01*
X12578214Y-13374643D01*
X12549643Y-13388929D01*
X13078214Y-13603214D02*
X13078214Y-13303214D01*
X13206785Y-13603214D02*
X13206785Y-13446071D01*
X13192500Y-13417500D01*
X13163928Y-13403214D01*
X13121071Y-13403214D01*
X13092500Y-13417500D01*
X13078214Y-13431786D01*
X13392500Y-13603214D02*
X13363928Y-13588929D01*
X13349643Y-13574643D01*
X13335357Y-13546071D01*
X13335357Y-13460357D01*
X13349643Y-13431786D01*
X13363928Y-13417500D01*
X13392500Y-13403214D01*
X13435357Y-13403214D01*
X13463928Y-13417500D01*
X13478214Y-13431786D01*
X13492500Y-13460357D01*
X13492500Y-13546071D01*
X13478214Y-13574643D01*
X13463928Y-13588929D01*
X13435357Y-13603214D01*
X13392500Y-13603214D01*
X13663928Y-13603214D02*
X13635357Y-13588929D01*
X13621071Y-13560357D01*
X13621071Y-13303214D01*
X13892500Y-13588929D02*
X13863928Y-13603214D01*
X13806786Y-13603214D01*
X13778214Y-13588929D01*
X13763928Y-13560357D01*
X13763928Y-13446071D01*
X13778214Y-13417500D01*
X13806786Y-13403214D01*
X13863928Y-13403214D01*
X13892500Y-13417500D01*
X13906786Y-13446071D01*
X13906786Y-13474643D01*
X13763928Y-13503214D01*
X14021071Y-13588929D02*
X14049643Y-13603214D01*
X14106786Y-13603214D01*
X14135357Y-13588929D01*
X14149643Y-13560357D01*
X14149643Y-13546071D01*
X14135357Y-13517500D01*
X14106786Y-13503214D01*
X14063928Y-13503214D01*
X14035357Y-13488929D01*
X14021071Y-13460357D01*
X14021071Y-13446071D01*
X14035357Y-13417500D01*
X14063928Y-13403214D01*
X14106786Y-13403214D01*
X14135357Y-13417500D01*
X14249643Y-13717500D02*
X14263928Y-13703214D01*
X14292500Y-13660357D01*
X14306786Y-13631786D01*
X14321071Y-13588929D01*
X14335357Y-13517500D01*
X14335357Y-13460357D01*
X14321071Y-13388929D01*
X14306786Y-13346071D01*
X14292500Y-13317500D01*
X14263928Y-13274643D01*
X14249643Y-13260357D01*
X7492500Y-13863500D02*
G75*
G03X7492500Y-13863500I-45000J0D01*
G01*
X7821071Y-13699214D02*
X7849643Y-13699214D01*
X7878214Y-13713500D01*
X7892500Y-13727786D01*
X7906786Y-13756357D01*
X7921071Y-13813500D01*
X7921071Y-13884929D01*
X7906786Y-13942071D01*
X7892500Y-13970643D01*
X7878214Y-13984929D01*
X7849643Y-13999214D01*
X7821071Y-13999214D01*
X7792500Y-13984929D01*
X7778214Y-13970643D01*
X7763928Y-13942071D01*
X7749643Y-13884929D01*
X7749643Y-13813500D01*
X7763928Y-13756357D01*
X7778214Y-13727786D01*
X7792500Y-13713500D01*
X7821071Y-13699214D01*
X8049643Y-13970643D02*
X8063928Y-13984929D01*
X8049643Y-13999214D01*
X8035357Y-13984929D01*
X8049643Y-13970643D01*
X8049643Y-13999214D01*
X8206786Y-13999214D02*
X8263928Y-13999214D01*
X8292500Y-13984929D01*
X8306786Y-13970643D01*
X8335357Y-13927786D01*
X8349643Y-13870643D01*
X8349643Y-13756357D01*
X8335357Y-13727786D01*
X8321071Y-13713500D01*
X8292500Y-13699214D01*
X8235357Y-13699214D01*
X8206786Y-13713500D01*
X8192500Y-13727786D01*
X8178214Y-13756357D01*
X8178214Y-13827786D01*
X8192500Y-13856357D01*
X8206786Y-13870643D01*
X8235357Y-13884929D01*
X8292500Y-13884929D01*
X8321071Y-13870643D01*
X8335357Y-13856357D01*
X8349643Y-13827786D01*
X8535357Y-13699214D02*
X8563929Y-13699214D01*
X8592500Y-13713500D01*
X8606786Y-13727786D01*
X8621071Y-13756357D01*
X8635357Y-13813500D01*
X8635357Y-13884929D01*
X8621071Y-13942071D01*
X8606786Y-13970643D01*
X8592500Y-13984929D01*
X8563929Y-13999214D01*
X8535357Y-13999214D01*
X8506786Y-13984929D01*
X8492500Y-13970643D01*
X8478214Y-13942071D01*
X8463929Y-13884929D01*
X8463929Y-13813500D01*
X8478214Y-13756357D01*
X8492500Y-13727786D01*
X8506786Y-13713500D01*
X8535357Y-13699214D01*
X8763929Y-13999214D02*
X8763929Y-13799214D01*
X8763929Y-13827786D02*
X8778214Y-13813500D01*
X8806786Y-13799214D01*
X8849643Y-13799214D01*
X8878214Y-13813500D01*
X8892500Y-13842071D01*
X8892500Y-13999214D01*
X8892500Y-13842071D02*
X8906786Y-13813500D01*
X8935357Y-13799214D01*
X8978214Y-13799214D01*
X9006786Y-13813500D01*
X9021071Y-13842071D01*
X9021071Y-13999214D01*
X9163929Y-13999214D02*
X9163929Y-13799214D01*
X9163929Y-13827786D02*
X9178214Y-13813500D01*
X9206786Y-13799214D01*
X9249643Y-13799214D01*
X9278214Y-13813500D01*
X9292500Y-13842071D01*
X9292500Y-13999214D01*
X9292500Y-13842071D02*
X9306786Y-13813500D01*
X9335357Y-13799214D01*
X9378214Y-13799214D01*
X9406786Y-13813500D01*
X9421071Y-13842071D01*
X9421071Y-13999214D01*
X10006786Y-13684929D02*
X9749643Y-14070643D01*
X10392500Y-13699214D02*
X10421071Y-13699214D01*
X10449643Y-13713500D01*
X10463928Y-13727786D01*
X10478214Y-13756357D01*
X10492500Y-13813500D01*
X10492500Y-13884929D01*
X10478214Y-13942071D01*
X10463928Y-13970643D01*
X10449643Y-13984929D01*
X10421071Y-13999214D01*
X10392500Y-13999214D01*
X10363928Y-13984929D01*
X10349643Y-13970643D01*
X10335357Y-13942071D01*
X10321071Y-13884929D01*
X10321071Y-13813500D01*
X10335357Y-13756357D01*
X10349643Y-13727786D01*
X10363928Y-13713500D01*
X10392500Y-13699214D01*
X10621071Y-13970643D02*
X10635357Y-13984929D01*
X10621071Y-13999214D01*
X10606786Y-13984929D01*
X10621071Y-13970643D01*
X10621071Y-13999214D01*
X10821071Y-13699214D02*
X10849643Y-13699214D01*
X10878214Y-13713500D01*
X10892500Y-13727786D01*
X10906786Y-13756357D01*
X10921071Y-13813500D01*
X10921071Y-13884929D01*
X10906786Y-13942071D01*
X10892500Y-13970643D01*
X10878214Y-13984929D01*
X10849643Y-13999214D01*
X10821071Y-13999214D01*
X10792500Y-13984929D01*
X10778214Y-13970643D01*
X10763928Y-13942071D01*
X10749643Y-13884929D01*
X10749643Y-13813500D01*
X10763928Y-13756357D01*
X10778214Y-13727786D01*
X10792500Y-13713500D01*
X10821071Y-13699214D01*
X11021071Y-13699214D02*
X11206785Y-13699214D01*
X11106786Y-13813500D01*
X11149643Y-13813500D01*
X11178214Y-13827786D01*
X11192500Y-13842071D01*
X11206785Y-13870643D01*
X11206785Y-13942071D01*
X11192500Y-13970643D01*
X11178214Y-13984929D01*
X11149643Y-13999214D01*
X11063928Y-13999214D01*
X11035357Y-13984929D01*
X11021071Y-13970643D01*
X11478214Y-13699214D02*
X11335357Y-13699214D01*
X11321071Y-13842071D01*
X11335357Y-13827786D01*
X11363928Y-13813500D01*
X11435357Y-13813500D01*
X11463928Y-13827786D01*
X11478214Y-13842071D01*
X11492500Y-13870643D01*
X11492500Y-13942071D01*
X11478214Y-13970643D01*
X11463928Y-13984929D01*
X11435357Y-13999214D01*
X11363928Y-13999214D01*
X11335357Y-13984929D01*
X11321071Y-13970643D01*
X11606786Y-13699214D02*
X11606786Y-13756357D01*
X11721071Y-13699214D02*
X11721071Y-13756357D01*
X12163928Y-14113500D02*
X12149643Y-14099214D01*
X12121071Y-14056357D01*
X12106785Y-14027786D01*
X12092500Y-13984929D01*
X12078214Y-13913500D01*
X12078214Y-13856357D01*
X12092500Y-13784929D01*
X12106785Y-13742071D01*
X12121071Y-13713500D01*
X12149643Y-13670643D01*
X12163928Y-13656357D01*
X12263928Y-13727786D02*
X12278214Y-13713500D01*
X12306785Y-13699214D01*
X12378214Y-13699214D01*
X12406785Y-13713500D01*
X12421071Y-13727786D01*
X12435357Y-13756357D01*
X12435357Y-13784929D01*
X12421071Y-13827786D01*
X12249643Y-13999214D01*
X12435357Y-13999214D01*
X12792500Y-13999214D02*
X12792500Y-13699214D01*
X12921071Y-13999214D02*
X12921071Y-13842071D01*
X12906785Y-13813500D01*
X12878214Y-13799214D01*
X12835357Y-13799214D01*
X12806785Y-13813500D01*
X12792500Y-13827786D01*
X13106785Y-13999214D02*
X13078214Y-13984929D01*
X13063928Y-13970643D01*
X13049643Y-13942071D01*
X13049643Y-13856357D01*
X13063928Y-13827786D01*
X13078214Y-13813500D01*
X13106785Y-13799214D01*
X13149643Y-13799214D01*
X13178214Y-13813500D01*
X13192500Y-13827786D01*
X13206785Y-13856357D01*
X13206785Y-13942071D01*
X13192500Y-13970643D01*
X13178214Y-13984929D01*
X13149643Y-13999214D01*
X13106785Y-13999214D01*
X13378214Y-13999214D02*
X13349643Y-13984929D01*
X13335357Y-13956357D01*
X13335357Y-13699214D01*
X13606786Y-13984929D02*
X13578214Y-13999214D01*
X13521071Y-13999214D01*
X13492500Y-13984929D01*
X13478214Y-13956357D01*
X13478214Y-13842071D01*
X13492500Y-13813500D01*
X13521071Y-13799214D01*
X13578214Y-13799214D01*
X13606786Y-13813500D01*
X13621071Y-13842071D01*
X13621071Y-13870643D01*
X13478214Y-13899214D01*
X13735357Y-13984929D02*
X13763928Y-13999214D01*
X13821071Y-13999214D01*
X13849643Y-13984929D01*
X13863928Y-13956357D01*
X13863928Y-13942071D01*
X13849643Y-13913500D01*
X13821071Y-13899214D01*
X13778214Y-13899214D01*
X13749643Y-13884929D01*
X13735357Y-13856357D01*
X13735357Y-13842071D01*
X13749643Y-13813500D01*
X13778214Y-13799214D01*
X13821071Y-13799214D01*
X13849643Y-13813500D01*
X13963928Y-14113500D02*
X13978214Y-14099214D01*
X14006786Y-14056357D01*
X14021071Y-14027786D01*
X14035357Y-13984929D01*
X14049643Y-13913500D01*
X14049643Y-13856357D01*
X14035357Y-13784929D01*
X14021071Y-13742071D01*
X14006786Y-13713500D01*
X13978214Y-13670643D01*
X13963928Y-13656357D01*
X7442500Y-14209500D02*
X7442500Y-14309500D01*
X7392500Y-14259500D02*
X7492500Y-14259500D01*
X7921071Y-14395214D02*
X7749643Y-14395214D01*
X7835357Y-14395214D02*
X7835357Y-14095214D01*
X7806786Y-14138071D01*
X7778214Y-14166643D01*
X7749643Y-14180929D01*
X8049643Y-14366643D02*
X8063928Y-14380929D01*
X8049643Y-14395214D01*
X8035357Y-14380929D01*
X8049643Y-14366643D01*
X8049643Y-14395214D01*
X8249643Y-14095214D02*
X8278214Y-14095214D01*
X8306786Y-14109500D01*
X8321071Y-14123786D01*
X8335357Y-14152357D01*
X8349643Y-14209500D01*
X8349643Y-14280929D01*
X8335357Y-14338071D01*
X8321071Y-14366643D01*
X8306786Y-14380929D01*
X8278214Y-14395214D01*
X8249643Y-14395214D01*
X8221071Y-14380929D01*
X8206786Y-14366643D01*
X8192500Y-14338071D01*
X8178214Y-14280929D01*
X8178214Y-14209500D01*
X8192500Y-14152357D01*
X8206786Y-14123786D01*
X8221071Y-14109500D01*
X8249643Y-14095214D01*
X8535357Y-14095214D02*
X8563929Y-14095214D01*
X8592500Y-14109500D01*
X8606786Y-14123786D01*
X8621071Y-14152357D01*
X8635357Y-14209500D01*
X8635357Y-14280929D01*
X8621071Y-14338071D01*
X8606786Y-14366643D01*
X8592500Y-14380929D01*
X8563929Y-14395214D01*
X8535357Y-14395214D01*
X8506786Y-14380929D01*
X8492500Y-14366643D01*
X8478214Y-14338071D01*
X8463929Y-14280929D01*
X8463929Y-14209500D01*
X8478214Y-14152357D01*
X8492500Y-14123786D01*
X8506786Y-14109500D01*
X8535357Y-14095214D01*
X8763929Y-14395214D02*
X8763929Y-14195214D01*
X8763929Y-14223786D02*
X8778214Y-14209500D01*
X8806786Y-14195214D01*
X8849643Y-14195214D01*
X8878214Y-14209500D01*
X8892500Y-14238071D01*
X8892500Y-14395214D01*
X8892500Y-14238071D02*
X8906786Y-14209500D01*
X8935357Y-14195214D01*
X8978214Y-14195214D01*
X9006786Y-14209500D01*
X9021071Y-14238071D01*
X9021071Y-14395214D01*
X9163929Y-14395214D02*
X9163929Y-14195214D01*
X9163929Y-14223786D02*
X9178214Y-14209500D01*
X9206786Y-14195214D01*
X9249643Y-14195214D01*
X9278214Y-14209500D01*
X9292500Y-14238071D01*
X9292500Y-14395214D01*
X9292500Y-14238071D02*
X9306786Y-14209500D01*
X9335357Y-14195214D01*
X9378214Y-14195214D01*
X9406786Y-14209500D01*
X9421071Y-14238071D01*
X9421071Y-14395214D01*
X10006786Y-14080929D02*
X9749643Y-14466643D01*
X10392500Y-14095214D02*
X10421071Y-14095214D01*
X10449643Y-14109500D01*
X10463928Y-14123786D01*
X10478214Y-14152357D01*
X10492500Y-14209500D01*
X10492500Y-14280929D01*
X10478214Y-14338071D01*
X10463928Y-14366643D01*
X10449643Y-14380929D01*
X10421071Y-14395214D01*
X10392500Y-14395214D01*
X10363928Y-14380929D01*
X10349643Y-14366643D01*
X10335357Y-14338071D01*
X10321071Y-14280929D01*
X10321071Y-14209500D01*
X10335357Y-14152357D01*
X10349643Y-14123786D01*
X10363928Y-14109500D01*
X10392500Y-14095214D01*
X10621071Y-14366643D02*
X10635357Y-14380929D01*
X10621071Y-14395214D01*
X10606786Y-14380929D01*
X10621071Y-14366643D01*
X10621071Y-14395214D01*
X10821071Y-14095214D02*
X10849643Y-14095214D01*
X10878214Y-14109500D01*
X10892500Y-14123786D01*
X10906786Y-14152357D01*
X10921071Y-14209500D01*
X10921071Y-14280929D01*
X10906786Y-14338071D01*
X10892500Y-14366643D01*
X10878214Y-14380929D01*
X10849643Y-14395214D01*
X10821071Y-14395214D01*
X10792500Y-14380929D01*
X10778214Y-14366643D01*
X10763928Y-14338071D01*
X10749643Y-14280929D01*
X10749643Y-14209500D01*
X10763928Y-14152357D01*
X10778214Y-14123786D01*
X10792500Y-14109500D01*
X10821071Y-14095214D01*
X11021071Y-14095214D02*
X11206785Y-14095214D01*
X11106786Y-14209500D01*
X11149643Y-14209500D01*
X11178214Y-14223786D01*
X11192500Y-14238071D01*
X11206785Y-14266643D01*
X11206785Y-14338071D01*
X11192500Y-14366643D01*
X11178214Y-14380929D01*
X11149643Y-14395214D01*
X11063928Y-14395214D01*
X11035357Y-14380929D01*
X11021071Y-14366643D01*
X11349643Y-14395214D02*
X11406785Y-14395214D01*
X11435357Y-14380929D01*
X11449643Y-14366643D01*
X11478214Y-14323786D01*
X11492500Y-14266643D01*
X11492500Y-14152357D01*
X11478214Y-14123786D01*
X11463928Y-14109500D01*
X11435357Y-14095214D01*
X11378214Y-14095214D01*
X11349643Y-14109500D01*
X11335357Y-14123786D01*
X11321071Y-14152357D01*
X11321071Y-14223786D01*
X11335357Y-14252357D01*
X11349643Y-14266643D01*
X11378214Y-14280929D01*
X11435357Y-14280929D01*
X11463928Y-14266643D01*
X11478214Y-14252357D01*
X11492500Y-14223786D01*
X11606786Y-14095214D02*
X11606786Y-14152357D01*
X11721071Y-14095214D02*
X11721071Y-14152357D01*
X12163928Y-14509500D02*
X12149643Y-14495214D01*
X12121071Y-14452357D01*
X12106785Y-14423786D01*
X12092500Y-14380929D01*
X12078214Y-14309500D01*
X12078214Y-14252357D01*
X12092500Y-14180929D01*
X12106785Y-14138071D01*
X12121071Y-14109500D01*
X12149643Y-14066643D01*
X12163928Y-14052357D01*
X12435357Y-14395214D02*
X12263928Y-14395214D01*
X12349643Y-14395214D02*
X12349643Y-14095214D01*
X12321071Y-14138071D01*
X12292500Y-14166643D01*
X12263928Y-14180929D01*
X12706785Y-14095214D02*
X12563928Y-14095214D01*
X12549643Y-14238071D01*
X12563928Y-14223786D01*
X12592500Y-14209500D01*
X12663928Y-14209500D01*
X12692500Y-14223786D01*
X12706785Y-14238071D01*
X12721071Y-14266643D01*
X12721071Y-14338071D01*
X12706785Y-14366643D01*
X12692500Y-14380929D01*
X12663928Y-14395214D01*
X12592500Y-14395214D01*
X12563928Y-14380929D01*
X12549643Y-14366643D01*
X13078214Y-14395214D02*
X13078214Y-14095214D01*
X13206785Y-14395214D02*
X13206785Y-14238071D01*
X13192500Y-14209500D01*
X13163928Y-14195214D01*
X13121071Y-14195214D01*
X13092500Y-14209500D01*
X13078214Y-14223786D01*
X13392500Y-14395214D02*
X13363928Y-14380929D01*
X13349643Y-14366643D01*
X13335357Y-14338071D01*
X13335357Y-14252357D01*
X13349643Y-14223786D01*
X13363928Y-14209500D01*
X13392500Y-14195214D01*
X13435357Y-14195214D01*
X13463928Y-14209500D01*
X13478214Y-14223786D01*
X13492500Y-14252357D01*
X13492500Y-14338071D01*
X13478214Y-14366643D01*
X13463928Y-14380929D01*
X13435357Y-14395214D01*
X13392500Y-14395214D01*
X13663928Y-14395214D02*
X13635357Y-14380929D01*
X13621071Y-14352357D01*
X13621071Y-14095214D01*
X13892500Y-14380929D02*
X13863928Y-14395214D01*
X13806786Y-14395214D01*
X13778214Y-14380929D01*
X13763928Y-14352357D01*
X13763928Y-14238071D01*
X13778214Y-14209500D01*
X13806786Y-14195214D01*
X13863928Y-14195214D01*
X13892500Y-14209500D01*
X13906786Y-14238071D01*
X13906786Y-14266643D01*
X13763928Y-14295214D01*
X14021071Y-14380929D02*
X14049643Y-14395214D01*
X14106786Y-14395214D01*
X14135357Y-14380929D01*
X14149643Y-14352357D01*
X14149643Y-14338071D01*
X14135357Y-14309500D01*
X14106786Y-14295214D01*
X14063928Y-14295214D01*
X14035357Y-14280929D01*
X14021071Y-14252357D01*
X14021071Y-14238071D01*
X14035357Y-14209500D01*
X14063928Y-14195214D01*
X14106786Y-14195214D01*
X14135357Y-14209500D01*
X14249643Y-14509500D02*
X14263928Y-14495214D01*
X14292500Y-14452357D01*
X14306786Y-14423786D01*
X14321071Y-14380929D01*
X14335357Y-14309500D01*
X14335357Y-14252357D01*
X14321071Y-14180929D01*
X14306786Y-14138071D01*
X14292500Y-14109500D01*
X14263928Y-14066643D01*
X14249643Y-14052357D01*
X7477621Y-14691421D02*
X7477621Y-14619579D01*
X7405778Y-14619579D01*
X7405778Y-14691421D01*
X7477621Y-14691421D01*
X7921071Y-14791214D02*
X7749643Y-14791214D01*
X7835357Y-14791214D02*
X7835357Y-14491214D01*
X7806786Y-14534071D01*
X7778214Y-14562643D01*
X7749643Y-14576929D01*
X8049643Y-14762643D02*
X8063928Y-14776929D01*
X8049643Y-14791214D01*
X8035357Y-14776929D01*
X8049643Y-14762643D01*
X8049643Y-14791214D01*
X8249643Y-14491214D02*
X8278214Y-14491214D01*
X8306786Y-14505500D01*
X8321071Y-14519786D01*
X8335357Y-14548357D01*
X8349643Y-14605500D01*
X8349643Y-14676929D01*
X8335357Y-14734071D01*
X8321071Y-14762643D01*
X8306786Y-14776929D01*
X8278214Y-14791214D01*
X8249643Y-14791214D01*
X8221071Y-14776929D01*
X8206786Y-14762643D01*
X8192500Y-14734071D01*
X8178214Y-14676929D01*
X8178214Y-14605500D01*
X8192500Y-14548357D01*
X8206786Y-14519786D01*
X8221071Y-14505500D01*
X8249643Y-14491214D01*
X8463929Y-14519786D02*
X8478214Y-14505500D01*
X8506786Y-14491214D01*
X8578214Y-14491214D01*
X8606786Y-14505500D01*
X8621071Y-14519786D01*
X8635357Y-14548357D01*
X8635357Y-14576929D01*
X8621071Y-14619786D01*
X8449643Y-14791214D01*
X8635357Y-14791214D01*
X8763929Y-14791214D02*
X8763929Y-14591214D01*
X8763929Y-14619786D02*
X8778214Y-14605500D01*
X8806786Y-14591214D01*
X8849643Y-14591214D01*
X8878214Y-14605500D01*
X8892500Y-14634071D01*
X8892500Y-14791214D01*
X8892500Y-14634071D02*
X8906786Y-14605500D01*
X8935357Y-14591214D01*
X8978214Y-14591214D01*
X9006786Y-14605500D01*
X9021071Y-14634071D01*
X9021071Y-14791214D01*
X9163929Y-14791214D02*
X9163929Y-14591214D01*
X9163929Y-14619786D02*
X9178214Y-14605500D01*
X9206786Y-14591214D01*
X9249643Y-14591214D01*
X9278214Y-14605500D01*
X9292500Y-14634071D01*
X9292500Y-14791214D01*
X9292500Y-14634071D02*
X9306786Y-14605500D01*
X9335357Y-14591214D01*
X9378214Y-14591214D01*
X9406786Y-14605500D01*
X9421071Y-14634071D01*
X9421071Y-14791214D01*
X10006786Y-14476929D02*
X9749643Y-14862643D01*
X10392500Y-14491214D02*
X10421071Y-14491214D01*
X10449643Y-14505500D01*
X10463928Y-14519786D01*
X10478214Y-14548357D01*
X10492500Y-14605500D01*
X10492500Y-14676929D01*
X10478214Y-14734071D01*
X10463928Y-14762643D01*
X10449643Y-14776929D01*
X10421071Y-14791214D01*
X10392500Y-14791214D01*
X10363928Y-14776929D01*
X10349643Y-14762643D01*
X10335357Y-14734071D01*
X10321071Y-14676929D01*
X10321071Y-14605500D01*
X10335357Y-14548357D01*
X10349643Y-14519786D01*
X10363928Y-14505500D01*
X10392500Y-14491214D01*
X10621071Y-14762643D02*
X10635357Y-14776929D01*
X10621071Y-14791214D01*
X10606786Y-14776929D01*
X10621071Y-14762643D01*
X10621071Y-14791214D01*
X10821071Y-14491214D02*
X10849643Y-14491214D01*
X10878214Y-14505500D01*
X10892500Y-14519786D01*
X10906786Y-14548357D01*
X10921071Y-14605500D01*
X10921071Y-14676929D01*
X10906786Y-14734071D01*
X10892500Y-14762643D01*
X10878214Y-14776929D01*
X10849643Y-14791214D01*
X10821071Y-14791214D01*
X10792500Y-14776929D01*
X10778214Y-14762643D01*
X10763928Y-14734071D01*
X10749643Y-14676929D01*
X10749643Y-14605500D01*
X10763928Y-14548357D01*
X10778214Y-14519786D01*
X10792500Y-14505500D01*
X10821071Y-14491214D01*
X11178214Y-14591214D02*
X11178214Y-14791214D01*
X11106786Y-14476929D02*
X11035357Y-14691214D01*
X11221071Y-14691214D01*
X11392500Y-14491214D02*
X11421071Y-14491214D01*
X11449643Y-14505500D01*
X11463928Y-14519786D01*
X11478214Y-14548357D01*
X11492500Y-14605500D01*
X11492500Y-14676929D01*
X11478214Y-14734071D01*
X11463928Y-14762643D01*
X11449643Y-14776929D01*
X11421071Y-14791214D01*
X11392500Y-14791214D01*
X11363928Y-14776929D01*
X11349643Y-14762643D01*
X11335357Y-14734071D01*
X11321071Y-14676929D01*
X11321071Y-14605500D01*
X11335357Y-14548357D01*
X11349643Y-14519786D01*
X11363928Y-14505500D01*
X11392500Y-14491214D01*
X11606786Y-14491214D02*
X11606786Y-14548357D01*
X11721071Y-14491214D02*
X11721071Y-14548357D01*
X12163928Y-14905500D02*
X12149643Y-14891214D01*
X12121071Y-14848357D01*
X12106785Y-14819786D01*
X12092500Y-14776929D01*
X12078214Y-14705500D01*
X12078214Y-14648357D01*
X12092500Y-14576929D01*
X12106785Y-14534071D01*
X12121071Y-14505500D01*
X12149643Y-14462643D01*
X12163928Y-14448357D01*
X12321071Y-14619786D02*
X12292500Y-14605500D01*
X12278214Y-14591214D01*
X12263928Y-14562643D01*
X12263928Y-14548357D01*
X12278214Y-14519786D01*
X12292500Y-14505500D01*
X12321071Y-14491214D01*
X12378214Y-14491214D01*
X12406785Y-14505500D01*
X12421071Y-14519786D01*
X12435357Y-14548357D01*
X12435357Y-14562643D01*
X12421071Y-14591214D01*
X12406785Y-14605500D01*
X12378214Y-14619786D01*
X12321071Y-14619786D01*
X12292500Y-14634071D01*
X12278214Y-14648357D01*
X12263928Y-14676929D01*
X12263928Y-14734071D01*
X12278214Y-14762643D01*
X12292500Y-14776929D01*
X12321071Y-14791214D01*
X12378214Y-14791214D01*
X12406785Y-14776929D01*
X12421071Y-14762643D01*
X12435357Y-14734071D01*
X12435357Y-14676929D01*
X12421071Y-14648357D01*
X12406785Y-14634071D01*
X12378214Y-14619786D01*
X12792500Y-14791214D02*
X12792500Y-14491214D01*
X12921071Y-14791214D02*
X12921071Y-14634071D01*
X12906785Y-14605500D01*
X12878214Y-14591214D01*
X12835357Y-14591214D01*
X12806785Y-14605500D01*
X12792500Y-14619786D01*
X13106785Y-14791214D02*
X13078214Y-14776929D01*
X13063928Y-14762643D01*
X13049643Y-14734071D01*
X13049643Y-14648357D01*
X13063928Y-14619786D01*
X13078214Y-14605500D01*
X13106785Y-14591214D01*
X13149643Y-14591214D01*
X13178214Y-14605500D01*
X13192500Y-14619786D01*
X13206785Y-14648357D01*
X13206785Y-14734071D01*
X13192500Y-14762643D01*
X13178214Y-14776929D01*
X13149643Y-14791214D01*
X13106785Y-14791214D01*
X13378214Y-14791214D02*
X13349643Y-14776929D01*
X13335357Y-14748357D01*
X13335357Y-14491214D01*
X13606786Y-14776929D02*
X13578214Y-14791214D01*
X13521071Y-14791214D01*
X13492500Y-14776929D01*
X13478214Y-14748357D01*
X13478214Y-14634071D01*
X13492500Y-14605500D01*
X13521071Y-14591214D01*
X13578214Y-14591214D01*
X13606786Y-14605500D01*
X13621071Y-14634071D01*
X13621071Y-14662643D01*
X13478214Y-14691214D01*
X13735357Y-14776929D02*
X13763928Y-14791214D01*
X13821071Y-14791214D01*
X13849643Y-14776929D01*
X13863928Y-14748357D01*
X13863928Y-14734071D01*
X13849643Y-14705500D01*
X13821071Y-14691214D01*
X13778214Y-14691214D01*
X13749643Y-14676929D01*
X13735357Y-14648357D01*
X13735357Y-14634071D01*
X13749643Y-14605500D01*
X13778214Y-14591214D01*
X13821071Y-14591214D01*
X13849643Y-14605500D01*
X13963928Y-14905500D02*
X13978214Y-14891214D01*
X14006786Y-14848357D01*
X14021071Y-14819786D01*
X14035357Y-14776929D01*
X14049643Y-14705500D01*
X14049643Y-14648357D01*
X14035357Y-14576929D01*
X14021071Y-14534071D01*
X14006786Y-14505500D01*
X13978214Y-14462643D01*
X13963928Y-14448357D01*
X7427500Y-15116500D02*
X7492500Y-15051500D01*
X7427500Y-14986500D01*
X7362500Y-15051500D01*
X7427500Y-15116500D01*
X7921071Y-15187214D02*
X7749643Y-15187214D01*
X7835357Y-15187214D02*
X7835357Y-14887214D01*
X7806786Y-14930071D01*
X7778214Y-14958643D01*
X7749643Y-14972929D01*
X8049643Y-15158643D02*
X8063928Y-15172929D01*
X8049643Y-15187214D01*
X8035357Y-15172929D01*
X8049643Y-15158643D01*
X8049643Y-15187214D01*
X8163928Y-14887214D02*
X8349643Y-14887214D01*
X8249643Y-15001500D01*
X8292500Y-15001500D01*
X8321071Y-15015786D01*
X8335357Y-15030071D01*
X8349643Y-15058643D01*
X8349643Y-15130071D01*
X8335357Y-15158643D01*
X8321071Y-15172929D01*
X8292500Y-15187214D01*
X8206786Y-15187214D01*
X8178214Y-15172929D01*
X8163928Y-15158643D01*
X8535357Y-14887214D02*
X8563929Y-14887214D01*
X8592500Y-14901500D01*
X8606786Y-14915786D01*
X8621071Y-14944357D01*
X8635357Y-15001500D01*
X8635357Y-15072929D01*
X8621071Y-15130071D01*
X8606786Y-15158643D01*
X8592500Y-15172929D01*
X8563929Y-15187214D01*
X8535357Y-15187214D01*
X8506786Y-15172929D01*
X8492500Y-15158643D01*
X8478214Y-15130071D01*
X8463929Y-15072929D01*
X8463929Y-15001500D01*
X8478214Y-14944357D01*
X8492500Y-14915786D01*
X8506786Y-14901500D01*
X8535357Y-14887214D01*
X8763929Y-15187214D02*
X8763929Y-14987214D01*
X8763929Y-15015786D02*
X8778214Y-15001500D01*
X8806786Y-14987214D01*
X8849643Y-14987214D01*
X8878214Y-15001500D01*
X8892500Y-15030071D01*
X8892500Y-15187214D01*
X8892500Y-15030071D02*
X8906786Y-15001500D01*
X8935357Y-14987214D01*
X8978214Y-14987214D01*
X9006786Y-15001500D01*
X9021071Y-15030071D01*
X9021071Y-15187214D01*
X9163929Y-15187214D02*
X9163929Y-14987214D01*
X9163929Y-15015786D02*
X9178214Y-15001500D01*
X9206786Y-14987214D01*
X9249643Y-14987214D01*
X9278214Y-15001500D01*
X9292500Y-15030071D01*
X9292500Y-15187214D01*
X9292500Y-15030071D02*
X9306786Y-15001500D01*
X9335357Y-14987214D01*
X9378214Y-14987214D01*
X9406786Y-15001500D01*
X9421071Y-15030071D01*
X9421071Y-15187214D01*
X10006786Y-14872929D02*
X9749643Y-15258643D01*
X10392500Y-14887214D02*
X10421071Y-14887214D01*
X10449643Y-14901500D01*
X10463928Y-14915786D01*
X10478214Y-14944357D01*
X10492500Y-15001500D01*
X10492500Y-15072929D01*
X10478214Y-15130071D01*
X10463928Y-15158643D01*
X10449643Y-15172929D01*
X10421071Y-15187214D01*
X10392500Y-15187214D01*
X10363928Y-15172929D01*
X10349643Y-15158643D01*
X10335357Y-15130071D01*
X10321071Y-15072929D01*
X10321071Y-15001500D01*
X10335357Y-14944357D01*
X10349643Y-14915786D01*
X10363928Y-14901500D01*
X10392500Y-14887214D01*
X10621071Y-15158643D02*
X10635357Y-15172929D01*
X10621071Y-15187214D01*
X10606786Y-15172929D01*
X10621071Y-15158643D01*
X10621071Y-15187214D01*
X10821071Y-14887214D02*
X10849643Y-14887214D01*
X10878214Y-14901500D01*
X10892500Y-14915786D01*
X10906786Y-14944357D01*
X10921071Y-15001500D01*
X10921071Y-15072929D01*
X10906786Y-15130071D01*
X10892500Y-15158643D01*
X10878214Y-15172929D01*
X10849643Y-15187214D01*
X10821071Y-15187214D01*
X10792500Y-15172929D01*
X10778214Y-15158643D01*
X10763928Y-15130071D01*
X10749643Y-15072929D01*
X10749643Y-15001500D01*
X10763928Y-14944357D01*
X10778214Y-14915786D01*
X10792500Y-14901500D01*
X10821071Y-14887214D01*
X11192500Y-14887214D02*
X11049643Y-14887214D01*
X11035357Y-15030071D01*
X11049643Y-15015786D01*
X11078214Y-15001500D01*
X11149643Y-15001500D01*
X11178214Y-15015786D01*
X11192500Y-15030071D01*
X11206785Y-15058643D01*
X11206785Y-15130071D01*
X11192500Y-15158643D01*
X11178214Y-15172929D01*
X11149643Y-15187214D01*
X11078214Y-15187214D01*
X11049643Y-15172929D01*
X11035357Y-15158643D01*
X11492500Y-15187214D02*
X11321071Y-15187214D01*
X11406785Y-15187214D02*
X11406785Y-14887214D01*
X11378214Y-14930071D01*
X11349643Y-14958643D01*
X11321071Y-14972929D01*
X11606786Y-14887214D02*
X11606786Y-14944357D01*
X11721071Y-14887214D02*
X11721071Y-14944357D01*
X12163928Y-15301500D02*
X12149643Y-15287214D01*
X12121071Y-15244357D01*
X12106785Y-15215786D01*
X12092500Y-15172929D01*
X12078214Y-15101500D01*
X12078214Y-15044357D01*
X12092500Y-14972929D01*
X12106785Y-14930071D01*
X12121071Y-14901500D01*
X12149643Y-14858643D01*
X12163928Y-14844357D01*
X12406785Y-14987214D02*
X12406785Y-15187214D01*
X12335357Y-14872929D02*
X12263928Y-15087214D01*
X12449643Y-15087214D01*
X12792500Y-15187214D02*
X12792500Y-14887214D01*
X12921071Y-15187214D02*
X12921071Y-15030071D01*
X12906785Y-15001500D01*
X12878214Y-14987214D01*
X12835357Y-14987214D01*
X12806785Y-15001500D01*
X12792500Y-15015786D01*
X13106785Y-15187214D02*
X13078214Y-15172929D01*
X13063928Y-15158643D01*
X13049643Y-15130071D01*
X13049643Y-15044357D01*
X13063928Y-15015786D01*
X13078214Y-15001500D01*
X13106785Y-14987214D01*
X13149643Y-14987214D01*
X13178214Y-15001500D01*
X13192500Y-15015786D01*
X13206785Y-15044357D01*
X13206785Y-15130071D01*
X13192500Y-15158643D01*
X13178214Y-15172929D01*
X13149643Y-15187214D01*
X13106785Y-15187214D01*
X13378214Y-15187214D02*
X13349643Y-15172929D01*
X13335357Y-15144357D01*
X13335357Y-14887214D01*
X13606786Y-15172929D02*
X13578214Y-15187214D01*
X13521071Y-15187214D01*
X13492500Y-15172929D01*
X13478214Y-15144357D01*
X13478214Y-15030071D01*
X13492500Y-15001500D01*
X13521071Y-14987214D01*
X13578214Y-14987214D01*
X13606786Y-15001500D01*
X13621071Y-15030071D01*
X13621071Y-15058643D01*
X13478214Y-15087214D01*
X13735357Y-15172929D02*
X13763928Y-15187214D01*
X13821071Y-15187214D01*
X13849643Y-15172929D01*
X13863928Y-15144357D01*
X13863928Y-15130071D01*
X13849643Y-15101500D01*
X13821071Y-15087214D01*
X13778214Y-15087214D01*
X13749643Y-15072929D01*
X13735357Y-15044357D01*
X13735357Y-15030071D01*
X13749643Y-15001500D01*
X13778214Y-14987214D01*
X13821071Y-14987214D01*
X13849643Y-15001500D01*
X13963928Y-15301500D02*
X13978214Y-15287214D01*
X14006786Y-15244357D01*
X14021071Y-15215786D01*
X14035357Y-15172929D01*
X14049643Y-15101500D01*
X14049643Y-15044357D01*
X14035357Y-14972929D01*
X14021071Y-14930071D01*
X14006786Y-14901500D01*
X13978214Y-14858643D01*
X13963928Y-14844357D01*
X7272500Y-15337500D02*
X7492500Y-15557500D01*
X7492500Y-15337500D02*
X7272500Y-15557500D01*
X7492500Y-15447500D02*
G75*
G03X7492500Y-15447500I-110000J0D01*
G01*
X7749643Y-15311786D02*
X7763928Y-15297500D01*
X7792500Y-15283214D01*
X7863928Y-15283214D01*
X7892500Y-15297500D01*
X7906786Y-15311786D01*
X7921071Y-15340357D01*
X7921071Y-15368929D01*
X7906786Y-15411786D01*
X7735357Y-15583214D01*
X7921071Y-15583214D01*
X8049643Y-15554643D02*
X8063928Y-15568929D01*
X8049643Y-15583214D01*
X8035357Y-15568929D01*
X8049643Y-15554643D01*
X8049643Y-15583214D01*
X8178214Y-15311786D02*
X8192500Y-15297500D01*
X8221071Y-15283214D01*
X8292500Y-15283214D01*
X8321071Y-15297500D01*
X8335357Y-15311786D01*
X8349643Y-15340357D01*
X8349643Y-15368929D01*
X8335357Y-15411786D01*
X8163928Y-15583214D01*
X8349643Y-15583214D01*
X8535357Y-15283214D02*
X8563929Y-15283214D01*
X8592500Y-15297500D01*
X8606786Y-15311786D01*
X8621071Y-15340357D01*
X8635357Y-15397500D01*
X8635357Y-15468929D01*
X8621071Y-15526071D01*
X8606786Y-15554643D01*
X8592500Y-15568929D01*
X8563929Y-15583214D01*
X8535357Y-15583214D01*
X8506786Y-15568929D01*
X8492500Y-15554643D01*
X8478214Y-15526071D01*
X8463929Y-15468929D01*
X8463929Y-15397500D01*
X8478214Y-15340357D01*
X8492500Y-15311786D01*
X8506786Y-15297500D01*
X8535357Y-15283214D01*
X8763929Y-15583214D02*
X8763929Y-15383214D01*
X8763929Y-15411786D02*
X8778214Y-15397500D01*
X8806786Y-15383214D01*
X8849643Y-15383214D01*
X8878214Y-15397500D01*
X8892500Y-15426071D01*
X8892500Y-15583214D01*
X8892500Y-15426071D02*
X8906786Y-15397500D01*
X8935357Y-15383214D01*
X8978214Y-15383214D01*
X9006786Y-15397500D01*
X9021071Y-15426071D01*
X9021071Y-15583214D01*
X9163929Y-15583214D02*
X9163929Y-15383214D01*
X9163929Y-15411786D02*
X9178214Y-15397500D01*
X9206786Y-15383214D01*
X9249643Y-15383214D01*
X9278214Y-15397500D01*
X9292500Y-15426071D01*
X9292500Y-15583214D01*
X9292500Y-15426071D02*
X9306786Y-15397500D01*
X9335357Y-15383214D01*
X9378214Y-15383214D01*
X9406786Y-15397500D01*
X9421071Y-15426071D01*
X9421071Y-15583214D01*
X10006786Y-15268929D02*
X9749643Y-15654643D01*
X10392500Y-15283214D02*
X10421071Y-15283214D01*
X10449643Y-15297500D01*
X10463928Y-15311786D01*
X10478214Y-15340357D01*
X10492500Y-15397500D01*
X10492500Y-15468929D01*
X10478214Y-15526071D01*
X10463928Y-15554643D01*
X10449643Y-15568929D01*
X10421071Y-15583214D01*
X10392500Y-15583214D01*
X10363928Y-15568929D01*
X10349643Y-15554643D01*
X10335357Y-15526071D01*
X10321071Y-15468929D01*
X10321071Y-15397500D01*
X10335357Y-15340357D01*
X10349643Y-15311786D01*
X10363928Y-15297500D01*
X10392500Y-15283214D01*
X10621071Y-15554643D02*
X10635357Y-15568929D01*
X10621071Y-15583214D01*
X10606786Y-15568929D01*
X10621071Y-15554643D01*
X10621071Y-15583214D01*
X10821071Y-15283214D02*
X10849643Y-15283214D01*
X10878214Y-15297500D01*
X10892500Y-15311786D01*
X10906786Y-15340357D01*
X10921071Y-15397500D01*
X10921071Y-15468929D01*
X10906786Y-15526071D01*
X10892500Y-15554643D01*
X10878214Y-15568929D01*
X10849643Y-15583214D01*
X10821071Y-15583214D01*
X10792500Y-15568929D01*
X10778214Y-15554643D01*
X10763928Y-15526071D01*
X10749643Y-15468929D01*
X10749643Y-15397500D01*
X10763928Y-15340357D01*
X10778214Y-15311786D01*
X10792500Y-15297500D01*
X10821071Y-15283214D01*
X11092500Y-15411786D02*
X11063928Y-15397500D01*
X11049643Y-15383214D01*
X11035357Y-15354643D01*
X11035357Y-15340357D01*
X11049643Y-15311786D01*
X11063928Y-15297500D01*
X11092500Y-15283214D01*
X11149643Y-15283214D01*
X11178214Y-15297500D01*
X11192500Y-15311786D01*
X11206785Y-15340357D01*
X11206785Y-15354643D01*
X11192500Y-15383214D01*
X11178214Y-15397500D01*
X11149643Y-15411786D01*
X11092500Y-15411786D01*
X11063928Y-15426071D01*
X11049643Y-15440357D01*
X11035357Y-15468929D01*
X11035357Y-15526071D01*
X11049643Y-15554643D01*
X11063928Y-15568929D01*
X11092500Y-15583214D01*
X11149643Y-15583214D01*
X11178214Y-15568929D01*
X11192500Y-15554643D01*
X11206785Y-15526071D01*
X11206785Y-15468929D01*
X11192500Y-15440357D01*
X11178214Y-15426071D01*
X11149643Y-15411786D01*
X11306785Y-15283214D02*
X11506785Y-15283214D01*
X11378214Y-15583214D01*
X11606786Y-15283214D02*
X11606786Y-15340357D01*
X11721071Y-15283214D02*
X11721071Y-15340357D01*
X12163928Y-15697500D02*
X12149643Y-15683214D01*
X12121071Y-15640357D01*
X12106785Y-15611786D01*
X12092500Y-15568929D01*
X12078214Y-15497500D01*
X12078214Y-15440357D01*
X12092500Y-15368929D01*
X12106785Y-15326071D01*
X12121071Y-15297500D01*
X12149643Y-15254643D01*
X12163928Y-15240357D01*
X12263928Y-15311786D02*
X12278214Y-15297500D01*
X12306785Y-15283214D01*
X12378214Y-15283214D01*
X12406785Y-15297500D01*
X12421071Y-15311786D01*
X12435357Y-15340357D01*
X12435357Y-15368929D01*
X12421071Y-15411786D01*
X12249643Y-15583214D01*
X12435357Y-15583214D01*
X12792500Y-15583214D02*
X12792500Y-15283214D01*
X12921071Y-15583214D02*
X12921071Y-15426071D01*
X12906785Y-15397500D01*
X12878214Y-15383214D01*
X12835357Y-15383214D01*
X12806785Y-15397500D01*
X12792500Y-15411786D01*
X13106785Y-15583214D02*
X13078214Y-15568929D01*
X13063928Y-15554643D01*
X13049643Y-15526071D01*
X13049643Y-15440357D01*
X13063928Y-15411786D01*
X13078214Y-15397500D01*
X13106785Y-15383214D01*
X13149643Y-15383214D01*
X13178214Y-15397500D01*
X13192500Y-15411786D01*
X13206785Y-15440357D01*
X13206785Y-15526071D01*
X13192500Y-15554643D01*
X13178214Y-15568929D01*
X13149643Y-15583214D01*
X13106785Y-15583214D01*
X13378214Y-15583214D02*
X13349643Y-15568929D01*
X13335357Y-15540357D01*
X13335357Y-15283214D01*
X13606786Y-15568929D02*
X13578214Y-15583214D01*
X13521071Y-15583214D01*
X13492500Y-15568929D01*
X13478214Y-15540357D01*
X13478214Y-15426071D01*
X13492500Y-15397500D01*
X13521071Y-15383214D01*
X13578214Y-15383214D01*
X13606786Y-15397500D01*
X13621071Y-15426071D01*
X13621071Y-15454643D01*
X13478214Y-15483214D01*
X13735357Y-15568929D02*
X13763928Y-15583214D01*
X13821071Y-15583214D01*
X13849643Y-15568929D01*
X13863928Y-15540357D01*
X13863928Y-15526071D01*
X13849643Y-15497500D01*
X13821071Y-15483214D01*
X13778214Y-15483214D01*
X13749643Y-15468929D01*
X13735357Y-15440357D01*
X13735357Y-15426071D01*
X13749643Y-15397500D01*
X13778214Y-15383214D01*
X13821071Y-15383214D01*
X13849643Y-15397500D01*
X13963928Y-15697500D02*
X13978214Y-15683214D01*
X14006786Y-15640357D01*
X14021071Y-15611786D01*
X14035357Y-15568929D01*
X14049643Y-15497500D01*
X14049643Y-15440357D01*
X14035357Y-15368929D01*
X14021071Y-15326071D01*
X14006786Y-15297500D01*
X13978214Y-15254643D01*
X13963928Y-15240357D01*
M02*
