G04 #@! TF.FileFunction,Soldermask,Bot*
%FSLAX46Y46*%
G04 Gerber Fmt 4.6, Leading zero omitted, Abs format (unit mm)*
G04 Created by KiCad (PCBNEW 4.0.2-stable) date 5/28/2017 8:04:03 PM*
%MOMM*%
G01*
G04 APERTURE LIST*
%ADD10C,0.100000*%
%ADD11C,0.150000*%
%ADD12C,0.010000*%
%ADD13R,1.700000X1.700000*%
%ADD14O,1.700000X1.700000*%
%ADD15R,2.500000X2.500000*%
%ADD16C,2.500000*%
%ADD17C,1.700000*%
%ADD18R,3.200000X2.700000*%
%ADD19C,3.000000*%
%ADD20R,1.524000X1.524000*%
%ADD21C,1.524000*%
%ADD22R,1.800000X1.800000*%
%ADD23C,1.800000*%
G04 APERTURE END LIST*
D10*
D11*
X75000000Y-75000000D02*
X125000000Y-75000000D01*
X75000000Y-125000000D02*
X125000000Y-125000000D01*
X125000000Y-75000000D02*
X125000000Y-125000000D01*
X75000000Y-75000000D02*
X75000000Y-125000000D01*
D12*
G36*
X89187453Y-108000800D02*
X88642141Y-108000800D01*
X88840921Y-108202187D01*
X89170629Y-108565091D01*
X89385049Y-108839215D01*
X89463497Y-108942800D01*
X89558056Y-109062929D01*
X89658150Y-109186602D01*
X89753202Y-109300819D01*
X89832634Y-109392581D01*
X89857732Y-109420160D01*
X89939164Y-109507612D01*
X89869206Y-109598756D01*
X89733764Y-109788004D01*
X89646222Y-109927450D01*
X89591352Y-110009686D01*
X89530076Y-110089012D01*
X89524927Y-110095007D01*
X89455978Y-110177981D01*
X89375453Y-110280537D01*
X89292258Y-110390688D01*
X89215298Y-110496447D01*
X89153481Y-110585825D01*
X89117824Y-110642947D01*
X89082743Y-110695996D01*
X89024214Y-110774462D01*
X88952380Y-110865652D01*
X88877385Y-110956872D01*
X88809372Y-111035432D01*
X88773000Y-111074420D01*
X88749111Y-111100481D01*
X88706837Y-111147806D01*
X88698723Y-111156970D01*
X88637145Y-111226600D01*
X89763600Y-111226600D01*
X89763600Y-111148323D01*
X89780363Y-111071795D01*
X89827593Y-110966549D01*
X89900707Y-110840639D01*
X89995119Y-110702116D01*
X90082658Y-110587933D01*
X90153932Y-110495713D01*
X90219253Y-110404669D01*
X90266423Y-110331935D01*
X90272529Y-110321233D01*
X90312571Y-110254834D01*
X90347858Y-110206684D01*
X90356501Y-110197900D01*
X90391062Y-110159216D01*
X90431285Y-110102650D01*
X90468974Y-110054493D01*
X90499485Y-110032887D01*
X90500786Y-110032800D01*
X90509662Y-110057491D01*
X90516782Y-110128781D01*
X90521936Y-110242492D01*
X90524917Y-110394444D01*
X90525600Y-110529361D01*
X90524916Y-110708663D01*
X90522505Y-110844670D01*
X90517825Y-110944875D01*
X90510337Y-111016769D01*
X90499502Y-111067843D01*
X90484779Y-111105588D01*
X90483956Y-111107211D01*
X90448483Y-111166891D01*
X90416977Y-111205018D01*
X90414106Y-111207161D01*
X90429603Y-111212723D01*
X90488953Y-111217662D01*
X90585214Y-111221712D01*
X90711441Y-111224607D01*
X90860689Y-111226082D01*
X90912406Y-111226211D01*
X91438911Y-111226600D01*
X91409232Y-111156750D01*
X91381059Y-111098158D01*
X91358976Y-111062770D01*
X91355143Y-111033542D01*
X91351543Y-110958181D01*
X91348241Y-110841351D01*
X91345304Y-110687717D01*
X91342801Y-110501946D01*
X91340796Y-110288702D01*
X91339358Y-110052651D01*
X91338553Y-109798459D01*
X91338401Y-109626690D01*
X91338459Y-109322711D01*
X91338730Y-109065312D01*
X91339354Y-108850274D01*
X91340474Y-108673378D01*
X91342231Y-108530404D01*
X91344767Y-108417133D01*
X91348224Y-108329345D01*
X91352743Y-108262821D01*
X91358467Y-108213341D01*
X91365538Y-108176686D01*
X91374096Y-108148637D01*
X91384284Y-108124974D01*
X91389201Y-108115099D01*
X91419956Y-108053269D01*
X91438010Y-108014060D01*
X91440001Y-108008129D01*
X91415865Y-108005907D01*
X91348512Y-108003956D01*
X91245528Y-108002384D01*
X91114494Y-108001301D01*
X90962995Y-108000815D01*
X90929283Y-108000800D01*
X90756140Y-108001064D01*
X90627571Y-108002231D01*
X90537354Y-108004864D01*
X90479263Y-108009523D01*
X90447076Y-108016772D01*
X90434568Y-108027172D01*
X90435514Y-108041285D01*
X90437036Y-108045250D01*
X90470395Y-108134073D01*
X90494461Y-108222581D01*
X90510620Y-108321541D01*
X90520258Y-108441721D01*
X90524760Y-108593888D01*
X90525600Y-108733488D01*
X90525601Y-109153304D01*
X90449401Y-109080300D01*
X90401787Y-109029957D01*
X90375206Y-108992678D01*
X90373200Y-108985883D01*
X90358063Y-108959950D01*
X90318572Y-108906528D01*
X90263612Y-108836545D01*
X90202068Y-108760929D01*
X90142823Y-108690609D01*
X90094761Y-108636514D01*
X90067961Y-108610400D01*
X90045639Y-108583134D01*
X90007264Y-108527030D01*
X89979398Y-108483400D01*
X89921195Y-108395698D01*
X89858249Y-108309098D01*
X89835901Y-108280762D01*
X89791187Y-108214136D01*
X89765792Y-108153043D01*
X89763600Y-108136790D01*
X89763078Y-108093077D01*
X89757409Y-108059902D01*
X89740438Y-108035812D01*
X89706011Y-108019355D01*
X89647974Y-108009077D01*
X89560172Y-108003527D01*
X89436450Y-108001251D01*
X89270655Y-108000796D01*
X89187453Y-108000800D01*
X89187453Y-108000800D01*
G37*
X89187453Y-108000800D02*
X88642141Y-108000800D01*
X88840921Y-108202187D01*
X89170629Y-108565091D01*
X89385049Y-108839215D01*
X89463497Y-108942800D01*
X89558056Y-109062929D01*
X89658150Y-109186602D01*
X89753202Y-109300819D01*
X89832634Y-109392581D01*
X89857732Y-109420160D01*
X89939164Y-109507612D01*
X89869206Y-109598756D01*
X89733764Y-109788004D01*
X89646222Y-109927450D01*
X89591352Y-110009686D01*
X89530076Y-110089012D01*
X89524927Y-110095007D01*
X89455978Y-110177981D01*
X89375453Y-110280537D01*
X89292258Y-110390688D01*
X89215298Y-110496447D01*
X89153481Y-110585825D01*
X89117824Y-110642947D01*
X89082743Y-110695996D01*
X89024214Y-110774462D01*
X88952380Y-110865652D01*
X88877385Y-110956872D01*
X88809372Y-111035432D01*
X88773000Y-111074420D01*
X88749111Y-111100481D01*
X88706837Y-111147806D01*
X88698723Y-111156970D01*
X88637145Y-111226600D01*
X89763600Y-111226600D01*
X89763600Y-111148323D01*
X89780363Y-111071795D01*
X89827593Y-110966549D01*
X89900707Y-110840639D01*
X89995119Y-110702116D01*
X90082658Y-110587933D01*
X90153932Y-110495713D01*
X90219253Y-110404669D01*
X90266423Y-110331935D01*
X90272529Y-110321233D01*
X90312571Y-110254834D01*
X90347858Y-110206684D01*
X90356501Y-110197900D01*
X90391062Y-110159216D01*
X90431285Y-110102650D01*
X90468974Y-110054493D01*
X90499485Y-110032887D01*
X90500786Y-110032800D01*
X90509662Y-110057491D01*
X90516782Y-110128781D01*
X90521936Y-110242492D01*
X90524917Y-110394444D01*
X90525600Y-110529361D01*
X90524916Y-110708663D01*
X90522505Y-110844670D01*
X90517825Y-110944875D01*
X90510337Y-111016769D01*
X90499502Y-111067843D01*
X90484779Y-111105588D01*
X90483956Y-111107211D01*
X90448483Y-111166891D01*
X90416977Y-111205018D01*
X90414106Y-111207161D01*
X90429603Y-111212723D01*
X90488953Y-111217662D01*
X90585214Y-111221712D01*
X90711441Y-111224607D01*
X90860689Y-111226082D01*
X90912406Y-111226211D01*
X91438911Y-111226600D01*
X91409232Y-111156750D01*
X91381059Y-111098158D01*
X91358976Y-111062770D01*
X91355143Y-111033542D01*
X91351543Y-110958181D01*
X91348241Y-110841351D01*
X91345304Y-110687717D01*
X91342801Y-110501946D01*
X91340796Y-110288702D01*
X91339358Y-110052651D01*
X91338553Y-109798459D01*
X91338401Y-109626690D01*
X91338459Y-109322711D01*
X91338730Y-109065312D01*
X91339354Y-108850274D01*
X91340474Y-108673378D01*
X91342231Y-108530404D01*
X91344767Y-108417133D01*
X91348224Y-108329345D01*
X91352743Y-108262821D01*
X91358467Y-108213341D01*
X91365538Y-108176686D01*
X91374096Y-108148637D01*
X91384284Y-108124974D01*
X91389201Y-108115099D01*
X91419956Y-108053269D01*
X91438010Y-108014060D01*
X91440001Y-108008129D01*
X91415865Y-108005907D01*
X91348512Y-108003956D01*
X91245528Y-108002384D01*
X91114494Y-108001301D01*
X90962995Y-108000815D01*
X90929283Y-108000800D01*
X90756140Y-108001064D01*
X90627571Y-108002231D01*
X90537354Y-108004864D01*
X90479263Y-108009523D01*
X90447076Y-108016772D01*
X90434568Y-108027172D01*
X90435514Y-108041285D01*
X90437036Y-108045250D01*
X90470395Y-108134073D01*
X90494461Y-108222581D01*
X90510620Y-108321541D01*
X90520258Y-108441721D01*
X90524760Y-108593888D01*
X90525600Y-108733488D01*
X90525601Y-109153304D01*
X90449401Y-109080300D01*
X90401787Y-109029957D01*
X90375206Y-108992678D01*
X90373200Y-108985883D01*
X90358063Y-108959950D01*
X90318572Y-108906528D01*
X90263612Y-108836545D01*
X90202068Y-108760929D01*
X90142823Y-108690609D01*
X90094761Y-108636514D01*
X90067961Y-108610400D01*
X90045639Y-108583134D01*
X90007264Y-108527030D01*
X89979398Y-108483400D01*
X89921195Y-108395698D01*
X89858249Y-108309098D01*
X89835901Y-108280762D01*
X89791187Y-108214136D01*
X89765792Y-108153043D01*
X89763600Y-108136790D01*
X89763078Y-108093077D01*
X89757409Y-108059902D01*
X89740438Y-108035812D01*
X89706011Y-108019355D01*
X89647974Y-108009077D01*
X89560172Y-108003527D01*
X89436450Y-108001251D01*
X89270655Y-108000796D01*
X89187453Y-108000800D01*
G36*
X87604600Y-109964445D02*
X87604379Y-110235928D01*
X87603617Y-110461018D01*
X87602174Y-110644121D01*
X87599906Y-110789640D01*
X87596669Y-110901983D01*
X87592322Y-110985555D01*
X87586720Y-111044759D01*
X87579722Y-111084003D01*
X87571184Y-111107692D01*
X87567308Y-111113795D01*
X87541022Y-111151343D01*
X87530309Y-111179485D01*
X87540490Y-111199574D01*
X87576888Y-111212963D01*
X87644824Y-111221005D01*
X87749622Y-111225053D01*
X87896602Y-111226460D01*
X88011000Y-111226600D01*
X88161282Y-111225915D01*
X88292473Y-111224008D01*
X88396773Y-111221102D01*
X88466381Y-111217417D01*
X88493495Y-111213176D01*
X88493600Y-111212888D01*
X88483045Y-111183854D01*
X88456474Y-111126909D01*
X88442800Y-111099600D01*
X88429934Y-111072160D01*
X88419441Y-111041794D01*
X88411080Y-111003320D01*
X88404609Y-110951555D01*
X88399789Y-110881318D01*
X88396378Y-110787427D01*
X88394135Y-110664701D01*
X88392819Y-110507959D01*
X88392190Y-110312017D01*
X88392005Y-110071696D01*
X88392000Y-110007150D01*
X88392253Y-109749669D01*
X88393129Y-109538149D01*
X88394804Y-109367751D01*
X88397452Y-109233638D01*
X88401250Y-109130971D01*
X88406373Y-109054913D01*
X88412997Y-109000626D01*
X88421297Y-108963272D01*
X88430753Y-108939338D01*
X88469505Y-108864400D01*
X87604600Y-108864400D01*
X87604600Y-109964445D01*
X87604600Y-109964445D01*
G37*
X87604600Y-109964445D02*
X87604379Y-110235928D01*
X87603617Y-110461018D01*
X87602174Y-110644121D01*
X87599906Y-110789640D01*
X87596669Y-110901983D01*
X87592322Y-110985555D01*
X87586720Y-111044759D01*
X87579722Y-111084003D01*
X87571184Y-111107692D01*
X87567308Y-111113795D01*
X87541022Y-111151343D01*
X87530309Y-111179485D01*
X87540490Y-111199574D01*
X87576888Y-111212963D01*
X87644824Y-111221005D01*
X87749622Y-111225053D01*
X87896602Y-111226460D01*
X88011000Y-111226600D01*
X88161282Y-111225915D01*
X88292473Y-111224008D01*
X88396773Y-111221102D01*
X88466381Y-111217417D01*
X88493495Y-111213176D01*
X88493600Y-111212888D01*
X88483045Y-111183854D01*
X88456474Y-111126909D01*
X88442800Y-111099600D01*
X88429934Y-111072160D01*
X88419441Y-111041794D01*
X88411080Y-111003320D01*
X88404609Y-110951555D01*
X88399789Y-110881318D01*
X88396378Y-110787427D01*
X88394135Y-110664701D01*
X88392819Y-110507959D01*
X88392190Y-110312017D01*
X88392005Y-110071696D01*
X88392000Y-110007150D01*
X88392253Y-109749669D01*
X88393129Y-109538149D01*
X88394804Y-109367751D01*
X88397452Y-109233638D01*
X88401250Y-109130971D01*
X88406373Y-109054913D01*
X88412997Y-109000626D01*
X88421297Y-108963272D01*
X88430753Y-108939338D01*
X88469505Y-108864400D01*
X87604600Y-108864400D01*
X87604600Y-109964445D01*
G36*
X87845259Y-107098360D02*
X87727655Y-107164795D01*
X87634177Y-107267445D01*
X87590388Y-107353524D01*
X87559778Y-107492014D01*
X87568879Y-107629991D01*
X87616227Y-107751484D01*
X87628612Y-107770250D01*
X87719051Y-107857808D01*
X87837929Y-107917953D01*
X87970867Y-107947818D01*
X88103487Y-107944534D01*
X88221410Y-107905232D01*
X88242194Y-107892644D01*
X88324463Y-107813794D01*
X88392286Y-107705170D01*
X88434453Y-107587695D01*
X88442800Y-107518199D01*
X88423526Y-107408975D01*
X88373010Y-107294510D01*
X88302218Y-107195558D01*
X88246558Y-107146695D01*
X88114339Y-107086276D01*
X87977363Y-107071176D01*
X87845259Y-107098360D01*
X87845259Y-107098360D01*
G37*
X87845259Y-107098360D02*
X87727655Y-107164795D01*
X87634177Y-107267445D01*
X87590388Y-107353524D01*
X87559778Y-107492014D01*
X87568879Y-107629991D01*
X87616227Y-107751484D01*
X87628612Y-107770250D01*
X87719051Y-107857808D01*
X87837929Y-107917953D01*
X87970867Y-107947818D01*
X88103487Y-107944534D01*
X88221410Y-107905232D01*
X88242194Y-107892644D01*
X88324463Y-107813794D01*
X88392286Y-107705170D01*
X88434453Y-107587695D01*
X88442800Y-107518199D01*
X88423526Y-107408975D01*
X88373010Y-107294510D01*
X88302218Y-107195558D01*
X88246558Y-107146695D01*
X88114339Y-107086276D01*
X87977363Y-107071176D01*
X87845259Y-107098360D01*
D13*
X105918000Y-77216000D03*
D14*
X108458000Y-77216000D03*
D13*
X104648000Y-101854000D03*
D14*
X102108000Y-101854000D03*
X99568000Y-101854000D03*
X97028000Y-101854000D03*
D15*
X80010000Y-96012000D03*
D16*
X80010000Y-101012000D03*
D15*
X80010000Y-84074000D03*
D16*
X80010000Y-89074000D03*
D13*
X110998000Y-122936000D03*
D14*
X113538000Y-122936000D03*
X116078000Y-122936000D03*
X118618000Y-122936000D03*
D17*
X103999000Y-122254000D03*
X103999000Y-117174000D03*
X103999000Y-112094000D03*
X76849000Y-112024000D03*
X76849000Y-106944000D03*
D18*
X91440000Y-88760000D03*
X91440000Y-96660000D03*
D19*
X87630000Y-87710000D03*
X87630000Y-97710000D03*
D20*
X97790000Y-76454000D03*
D21*
X100330000Y-76454000D03*
X97790000Y-78994000D03*
X100330000Y-78994000D03*
X97790000Y-81534000D03*
X100330000Y-81534000D03*
X97790000Y-84074000D03*
X100330000Y-84074000D03*
D22*
X121462800Y-94792800D03*
D23*
X118922800Y-94792800D03*
M02*
